%TF.GenerationSoftware,KiCad,Pcbnew,7.0.1*%
%TF.CreationDate,2023-12-15T14:23:58-05:00*%
%TF.ProjectId,fret,66726574-2e6b-4696-9361-645f70636258,rev?*%
%TF.SameCoordinates,Original*%
%TF.FileFunction,Legend,Bot*%
%TF.FilePolarity,Positive*%
%FSLAX46Y46*%
G04 Gerber Fmt 4.6, Leading zero omitted, Abs format (unit mm)*
G04 Created by KiCad (PCBNEW 7.0.1) date 2023-12-15 14:23:58*
%MOMM*%
%LPD*%
G01*
G04 APERTURE LIST*
%ADD10C,0.150000*%
G04 APERTURE END LIST*
D10*
X100790476Y-103922380D02*
X100838095Y-103970000D01*
X100838095Y-103970000D02*
X100980952Y-104017619D01*
X100980952Y-104017619D02*
X101076190Y-104017619D01*
X101076190Y-104017619D02*
X101219047Y-103970000D01*
X101219047Y-103970000D02*
X101314285Y-103874761D01*
X101314285Y-103874761D02*
X101361904Y-103779523D01*
X101361904Y-103779523D02*
X101409523Y-103589047D01*
X101409523Y-103589047D02*
X101409523Y-103446190D01*
X101409523Y-103446190D02*
X101361904Y-103255714D01*
X101361904Y-103255714D02*
X101314285Y-103160476D01*
X101314285Y-103160476D02*
X101219047Y-103065238D01*
X101219047Y-103065238D02*
X101076190Y-103017619D01*
X101076190Y-103017619D02*
X100980952Y-103017619D01*
X100980952Y-103017619D02*
X100838095Y-103065238D01*
X100838095Y-103065238D02*
X100790476Y-103112857D01*
X100361904Y-104017619D02*
X100361904Y-103350952D01*
X100361904Y-103541428D02*
X100314285Y-103446190D01*
X100314285Y-103446190D02*
X100266666Y-103398571D01*
X100266666Y-103398571D02*
X100171428Y-103350952D01*
X100171428Y-103350952D02*
X100076190Y-103350952D01*
X99361904Y-103970000D02*
X99457142Y-104017619D01*
X99457142Y-104017619D02*
X99647618Y-104017619D01*
X99647618Y-104017619D02*
X99742856Y-103970000D01*
X99742856Y-103970000D02*
X99790475Y-103874761D01*
X99790475Y-103874761D02*
X99790475Y-103493809D01*
X99790475Y-103493809D02*
X99742856Y-103398571D01*
X99742856Y-103398571D02*
X99647618Y-103350952D01*
X99647618Y-103350952D02*
X99457142Y-103350952D01*
X99457142Y-103350952D02*
X99361904Y-103398571D01*
X99361904Y-103398571D02*
X99314285Y-103493809D01*
X99314285Y-103493809D02*
X99314285Y-103589047D01*
X99314285Y-103589047D02*
X99790475Y-103684285D01*
X98457142Y-104017619D02*
X98457142Y-103493809D01*
X98457142Y-103493809D02*
X98504761Y-103398571D01*
X98504761Y-103398571D02*
X98599999Y-103350952D01*
X98599999Y-103350952D02*
X98790475Y-103350952D01*
X98790475Y-103350952D02*
X98885713Y-103398571D01*
X98457142Y-103970000D02*
X98552380Y-104017619D01*
X98552380Y-104017619D02*
X98790475Y-104017619D01*
X98790475Y-104017619D02*
X98885713Y-103970000D01*
X98885713Y-103970000D02*
X98933332Y-103874761D01*
X98933332Y-103874761D02*
X98933332Y-103779523D01*
X98933332Y-103779523D02*
X98885713Y-103684285D01*
X98885713Y-103684285D02*
X98790475Y-103636666D01*
X98790475Y-103636666D02*
X98552380Y-103636666D01*
X98552380Y-103636666D02*
X98457142Y-103589047D01*
X98123808Y-103350952D02*
X97742856Y-103350952D01*
X97980951Y-103017619D02*
X97980951Y-103874761D01*
X97980951Y-103874761D02*
X97933332Y-103970000D01*
X97933332Y-103970000D02*
X97838094Y-104017619D01*
X97838094Y-104017619D02*
X97742856Y-104017619D01*
X97266665Y-104017619D02*
X97361903Y-103970000D01*
X97361903Y-103970000D02*
X97409522Y-103922380D01*
X97409522Y-103922380D02*
X97457141Y-103827142D01*
X97457141Y-103827142D02*
X97457141Y-103541428D01*
X97457141Y-103541428D02*
X97409522Y-103446190D01*
X97409522Y-103446190D02*
X97361903Y-103398571D01*
X97361903Y-103398571D02*
X97266665Y-103350952D01*
X97266665Y-103350952D02*
X97123808Y-103350952D01*
X97123808Y-103350952D02*
X97028570Y-103398571D01*
X97028570Y-103398571D02*
X96980951Y-103446190D01*
X96980951Y-103446190D02*
X96933332Y-103541428D01*
X96933332Y-103541428D02*
X96933332Y-103827142D01*
X96933332Y-103827142D02*
X96980951Y-103922380D01*
X96980951Y-103922380D02*
X97028570Y-103970000D01*
X97028570Y-103970000D02*
X97123808Y-104017619D01*
X97123808Y-104017619D02*
X97266665Y-104017619D01*
X96504760Y-104017619D02*
X96504760Y-103350952D01*
X96504760Y-103541428D02*
X96457141Y-103446190D01*
X96457141Y-103446190D02*
X96409522Y-103398571D01*
X96409522Y-103398571D02*
X96314284Y-103350952D01*
X96314284Y-103350952D02*
X96219046Y-103350952D01*
X95885712Y-103922380D02*
X95838093Y-103970000D01*
X95838093Y-103970000D02*
X95885712Y-104017619D01*
X95885712Y-104017619D02*
X95933331Y-103970000D01*
X95933331Y-103970000D02*
X95885712Y-103922380D01*
X95885712Y-103922380D02*
X95885712Y-104017619D01*
X95885712Y-103398571D02*
X95838093Y-103446190D01*
X95838093Y-103446190D02*
X95885712Y-103493809D01*
X95885712Y-103493809D02*
X95933331Y-103446190D01*
X95933331Y-103446190D02*
X95885712Y-103398571D01*
X95885712Y-103398571D02*
X95885712Y-103493809D01*
X94647617Y-104017619D02*
X94647617Y-103017619D01*
X94647617Y-103017619D02*
X94409522Y-103017619D01*
X94409522Y-103017619D02*
X94266665Y-103065238D01*
X94266665Y-103065238D02*
X94171427Y-103160476D01*
X94171427Y-103160476D02*
X94123808Y-103255714D01*
X94123808Y-103255714D02*
X94076189Y-103446190D01*
X94076189Y-103446190D02*
X94076189Y-103589047D01*
X94076189Y-103589047D02*
X94123808Y-103779523D01*
X94123808Y-103779523D02*
X94171427Y-103874761D01*
X94171427Y-103874761D02*
X94266665Y-103970000D01*
X94266665Y-103970000D02*
X94409522Y-104017619D01*
X94409522Y-104017619D02*
X94647617Y-104017619D01*
X93504760Y-104017619D02*
X93599998Y-103970000D01*
X93599998Y-103970000D02*
X93647617Y-103922380D01*
X93647617Y-103922380D02*
X93695236Y-103827142D01*
X93695236Y-103827142D02*
X93695236Y-103541428D01*
X93695236Y-103541428D02*
X93647617Y-103446190D01*
X93647617Y-103446190D02*
X93599998Y-103398571D01*
X93599998Y-103398571D02*
X93504760Y-103350952D01*
X93504760Y-103350952D02*
X93361903Y-103350952D01*
X93361903Y-103350952D02*
X93266665Y-103398571D01*
X93266665Y-103398571D02*
X93219046Y-103446190D01*
X93219046Y-103446190D02*
X93171427Y-103541428D01*
X93171427Y-103541428D02*
X93171427Y-103827142D01*
X93171427Y-103827142D02*
X93219046Y-103922380D01*
X93219046Y-103922380D02*
X93266665Y-103970000D01*
X93266665Y-103970000D02*
X93361903Y-104017619D01*
X93361903Y-104017619D02*
X93504760Y-104017619D01*
X92361903Y-103970000D02*
X92457141Y-104017619D01*
X92457141Y-104017619D02*
X92647617Y-104017619D01*
X92647617Y-104017619D02*
X92742855Y-103970000D01*
X92742855Y-103970000D02*
X92790474Y-103874761D01*
X92790474Y-103874761D02*
X92790474Y-103493809D01*
X92790474Y-103493809D02*
X92742855Y-103398571D01*
X92742855Y-103398571D02*
X92647617Y-103350952D01*
X92647617Y-103350952D02*
X92457141Y-103350952D01*
X92457141Y-103350952D02*
X92361903Y-103398571D01*
X92361903Y-103398571D02*
X92314284Y-103493809D01*
X92314284Y-103493809D02*
X92314284Y-103589047D01*
X92314284Y-103589047D02*
X92790474Y-103684285D01*
X91933331Y-103970000D02*
X91838093Y-104017619D01*
X91838093Y-104017619D02*
X91647617Y-104017619D01*
X91647617Y-104017619D02*
X91552379Y-103970000D01*
X91552379Y-103970000D02*
X91504760Y-103874761D01*
X91504760Y-103874761D02*
X91504760Y-103827142D01*
X91504760Y-103827142D02*
X91552379Y-103731904D01*
X91552379Y-103731904D02*
X91647617Y-103684285D01*
X91647617Y-103684285D02*
X91790474Y-103684285D01*
X91790474Y-103684285D02*
X91885712Y-103636666D01*
X91885712Y-103636666D02*
X91933331Y-103541428D01*
X91933331Y-103541428D02*
X91933331Y-103493809D01*
X91933331Y-103493809D02*
X91885712Y-103398571D01*
X91885712Y-103398571D02*
X91790474Y-103350952D01*
X91790474Y-103350952D02*
X91647617Y-103350952D01*
X91647617Y-103350952D02*
X91552379Y-103398571D01*
X91076188Y-103350952D02*
X91076188Y-104017619D01*
X91076188Y-103446190D02*
X91028569Y-103398571D01*
X91028569Y-103398571D02*
X90933331Y-103350952D01*
X90933331Y-103350952D02*
X90790474Y-103350952D01*
X90790474Y-103350952D02*
X90695236Y-103398571D01*
X90695236Y-103398571D02*
X90647617Y-103493809D01*
X90647617Y-103493809D02*
X90647617Y-104017619D01*
X90314283Y-103350952D02*
X89933331Y-103350952D01*
X90171426Y-103017619D02*
X90171426Y-103874761D01*
X90171426Y-103874761D02*
X90123807Y-103970000D01*
X90123807Y-103970000D02*
X90028569Y-104017619D01*
X90028569Y-104017619D02*
X89933331Y-104017619D01*
X89742854Y-103350952D02*
X89361902Y-103350952D01*
X89599997Y-104017619D02*
X89599997Y-103160476D01*
X89599997Y-103160476D02*
X89552378Y-103065238D01*
X89552378Y-103065238D02*
X89457140Y-103017619D01*
X89457140Y-103017619D02*
X89361902Y-103017619D01*
X88599997Y-104017619D02*
X88599997Y-103493809D01*
X88599997Y-103493809D02*
X88647616Y-103398571D01*
X88647616Y-103398571D02*
X88742854Y-103350952D01*
X88742854Y-103350952D02*
X88933330Y-103350952D01*
X88933330Y-103350952D02*
X89028568Y-103398571D01*
X88599997Y-103970000D02*
X88695235Y-104017619D01*
X88695235Y-104017619D02*
X88933330Y-104017619D01*
X88933330Y-104017619D02*
X89028568Y-103970000D01*
X89028568Y-103970000D02*
X89076187Y-103874761D01*
X89076187Y-103874761D02*
X89076187Y-103779523D01*
X89076187Y-103779523D02*
X89028568Y-103684285D01*
X89028568Y-103684285D02*
X88933330Y-103636666D01*
X88933330Y-103636666D02*
X88695235Y-103636666D01*
X88695235Y-103636666D02*
X88599997Y-103589047D01*
X88219044Y-103350952D02*
X87695235Y-103350952D01*
X87695235Y-103350952D02*
X88219044Y-104017619D01*
X88219044Y-104017619D02*
X87695235Y-104017619D01*
X86933330Y-103970000D02*
X87028568Y-104017619D01*
X87028568Y-104017619D02*
X87219044Y-104017619D01*
X87219044Y-104017619D02*
X87314282Y-103970000D01*
X87314282Y-103970000D02*
X87361901Y-103874761D01*
X87361901Y-103874761D02*
X87361901Y-103493809D01*
X87361901Y-103493809D02*
X87314282Y-103398571D01*
X87314282Y-103398571D02*
X87219044Y-103350952D01*
X87219044Y-103350952D02*
X87028568Y-103350952D01*
X87028568Y-103350952D02*
X86933330Y-103398571D01*
X86933330Y-103398571D02*
X86885711Y-103493809D01*
X86885711Y-103493809D02*
X86885711Y-103589047D01*
X86885711Y-103589047D02*
X87361901Y-103684285D01*
X86457139Y-104017619D02*
X86457139Y-103350952D01*
X86457139Y-103541428D02*
X86409520Y-103446190D01*
X86409520Y-103446190D02*
X86361901Y-103398571D01*
X86361901Y-103398571D02*
X86266663Y-103350952D01*
X86266663Y-103350952D02*
X86171425Y-103350952D01*
M02*
