%TF.GenerationSoftware,KiCad,Pcbnew,7.0.1*%
%TF.CreationDate,2023-12-15T14:23:58-05:00*%
%TF.ProjectId,fret,66726574-2e6b-4696-9361-645f70636258,rev?*%
%TF.SameCoordinates,Original*%
%TF.FileFunction,Copper,L1,Top*%
%TF.FilePolarity,Positive*%
%FSLAX46Y46*%
G04 Gerber Fmt 4.6, Leading zero omitted, Abs format (unit mm)*
G04 Created by KiCad (PCBNEW 7.0.1) date 2023-12-15 14:23:58*
%MOMM*%
%LPD*%
G01*
G04 APERTURE LIST*
%TA.AperFunction,ComponentPad*%
%ADD10C,2.000000*%
%TD*%
%TA.AperFunction,ComponentPad*%
%ADD11R,1.700000X1.700000*%
%TD*%
%TA.AperFunction,ComponentPad*%
%ADD12O,1.700000X1.700000*%
%TD*%
%TA.AperFunction,Conductor*%
%ADD13C,0.250000*%
%TD*%
G04 APERTURE END LIST*
D10*
%TO.P,SW5,2,2*%
%TO.N,gnd*%
X204968000Y-98864000D03*
%TO.P,SW5,1,1*%
%TO.N,orange*%
X207068000Y-93864000D03*
%TD*%
%TO.P,SW4,1,1*%
%TO.N,blue*%
X183500000Y-93698000D03*
%TO.P,SW4,2,2*%
%TO.N,gnd*%
X181400000Y-98698000D03*
%TD*%
D11*
%TO.P,J1,1,Pin_1*%
%TO.N,yellow*%
X219227000Y-97551000D03*
D12*
%TO.P,J1,2,Pin_2*%
%TO.N,red*%
X219227000Y-100091000D03*
%TO.P,J1,3,Pin_3*%
%TO.N,green*%
X219227000Y-102631000D03*
%TD*%
D10*
%TO.P,SW2,2,2*%
%TO.N,gnd*%
X133856000Y-98698000D03*
%TO.P,SW2,1,1*%
%TO.N,red*%
X135956000Y-93698000D03*
%TD*%
D11*
%TO.P,J2,1,Pin_1*%
%TO.N,gnd*%
X219227000Y-81041000D03*
D12*
%TO.P,J2,2,Pin_2*%
%TO.N,orange*%
X219227000Y-83581000D03*
%TO.P,J2,3,Pin_3*%
%TO.N,blue*%
X219227000Y-86121000D03*
%TD*%
D10*
%TO.P,SW3,2,2*%
%TO.N,gnd*%
X157678000Y-98698000D03*
%TO.P,SW3,1,1*%
%TO.N,yellow*%
X159778000Y-93698000D03*
%TD*%
%TO.P,SW1,1,1*%
%TO.N,green*%
X112342000Y-93864000D03*
%TO.P,SW1,2,2*%
%TO.N,gnd*%
X110242000Y-98864000D03*
%TD*%
D13*
%TO.N,gnd*%
X206952000Y-98864000D02*
X204968000Y-98864000D01*
X211074000Y-89194000D02*
X211074000Y-94742000D01*
X219227000Y-81041000D02*
X211074000Y-89194000D01*
X211074000Y-94742000D02*
X206952000Y-98864000D01*
X133856000Y-101344000D02*
X133858000Y-101346000D01*
X112724000Y-101346000D02*
X133858000Y-101346000D01*
X133858000Y-101346000D02*
X157734000Y-101346000D01*
X133856000Y-98698000D02*
X133856000Y-101344000D01*
X157678000Y-98698000D02*
X157678000Y-101290000D01*
X157734000Y-101346000D02*
X181356000Y-101346000D01*
X157678000Y-101290000D02*
X157734000Y-101346000D01*
X181400000Y-98698000D02*
X181400000Y-101302000D01*
X181356000Y-101346000D02*
X204978000Y-101346000D01*
X181400000Y-101302000D02*
X181356000Y-101346000D01*
X204978000Y-101346000D02*
X204968000Y-101336000D01*
X204968000Y-101336000D02*
X204968000Y-98864000D01*
X110242000Y-98864000D02*
X112724000Y-101346000D01*
%TD*%
%TA.AperFunction,NonConductor*%
G36*
X221361279Y-77242623D02*
G01*
X221657544Y-77298173D01*
X221663160Y-77299226D01*
X221676412Y-77302474D01*
X221887463Y-77366706D01*
X221911109Y-77376680D01*
X221970851Y-77409538D01*
X222092074Y-77476211D01*
X222106716Y-77485662D01*
X222292615Y-77625086D01*
X222305896Y-77636604D01*
X222410188Y-77740895D01*
X222426813Y-77761523D01*
X222595951Y-78024625D01*
X222602554Y-78036225D01*
X222673683Y-78178486D01*
X222682806Y-78202821D01*
X222747494Y-78452331D01*
X222750504Y-78468070D01*
X222778544Y-78692392D01*
X222779502Y-78707725D01*
X222789497Y-105094795D01*
X222789069Y-105105139D01*
X222769874Y-105335484D01*
X222768816Y-105344330D01*
X222721573Y-105646687D01*
X222714698Y-105672307D01*
X222604984Y-105955737D01*
X222590930Y-105982083D01*
X222401136Y-106253218D01*
X222373542Y-106281614D01*
X222012432Y-106550131D01*
X221985111Y-106565508D01*
X221692970Y-106684189D01*
X221665893Y-106691750D01*
X221435572Y-106728601D01*
X221424230Y-106729883D01*
X221284113Y-106739225D01*
X221275864Y-106739500D01*
X82836899Y-106739500D01*
X82823205Y-106738742D01*
X82480120Y-106700620D01*
X82460380Y-106696786D01*
X82231595Y-106632727D01*
X82209575Y-106624228D01*
X81988652Y-106513767D01*
X81972597Y-106504162D01*
X81816156Y-106393733D01*
X81804982Y-106384839D01*
X81633009Y-106230968D01*
X81611250Y-106205401D01*
X81467782Y-105981233D01*
X81455775Y-105956999D01*
X81315793Y-105574380D01*
X81308903Y-105544537D01*
X81281158Y-105276337D01*
X81280500Y-105263577D01*
X81280500Y-102631000D01*
X217871340Y-102631000D01*
X217891936Y-102866407D01*
X217936709Y-103033502D01*
X217953097Y-103094663D01*
X218052965Y-103308830D01*
X218188505Y-103502401D01*
X218355599Y-103669495D01*
X218549170Y-103805035D01*
X218763337Y-103904903D01*
X218991592Y-103966063D01*
X219227000Y-103986659D01*
X219462408Y-103966063D01*
X219690663Y-103904903D01*
X219904830Y-103805035D01*
X220098401Y-103669495D01*
X220265495Y-103502401D01*
X220401035Y-103308830D01*
X220500903Y-103094663D01*
X220562063Y-102866408D01*
X220582659Y-102631000D01*
X220562063Y-102395592D01*
X220500903Y-102167337D01*
X220401035Y-101953171D01*
X220265495Y-101759599D01*
X220098401Y-101592505D01*
X219912839Y-101462573D01*
X219873975Y-101418257D01*
X219859964Y-101361000D01*
X219873975Y-101303743D01*
X219912839Y-101259426D01*
X220098401Y-101129495D01*
X220265495Y-100962401D01*
X220401035Y-100768830D01*
X220500903Y-100554663D01*
X220562063Y-100326408D01*
X220582659Y-100091000D01*
X220580439Y-100065631D01*
X220562063Y-99855592D01*
X220544162Y-99788785D01*
X220500903Y-99627337D01*
X220401035Y-99413171D01*
X220265495Y-99219599D01*
X220143569Y-99097673D01*
X220112273Y-99044927D01*
X220110084Y-98983634D01*
X220137537Y-98928789D01*
X220187916Y-98893810D01*
X220319331Y-98844796D01*
X220434546Y-98758546D01*
X220520796Y-98643331D01*
X220571091Y-98508483D01*
X220577500Y-98448873D01*
X220577499Y-96653128D01*
X220571091Y-96593517D01*
X220520796Y-96458669D01*
X220434546Y-96343454D01*
X220319331Y-96257204D01*
X220184483Y-96206909D01*
X220124873Y-96200500D01*
X220124869Y-96200500D01*
X218329130Y-96200500D01*
X218269515Y-96206909D01*
X218134669Y-96257204D01*
X218019454Y-96343454D01*
X217933204Y-96458668D01*
X217882909Y-96593516D01*
X217876500Y-96653130D01*
X217876500Y-98448869D01*
X217882909Y-98508484D01*
X217903580Y-98563906D01*
X217933204Y-98643331D01*
X218019454Y-98758546D01*
X218134669Y-98844796D01*
X218246907Y-98886658D01*
X218266082Y-98893810D01*
X218316462Y-98928789D01*
X218343915Y-98983634D01*
X218341726Y-99044926D01*
X218310431Y-99097673D01*
X218188503Y-99219601D01*
X218052965Y-99413170D01*
X217953097Y-99627336D01*
X217891936Y-99855592D01*
X217871340Y-100090999D01*
X217891936Y-100326407D01*
X217928938Y-100464500D01*
X217953097Y-100554663D01*
X218052965Y-100768830D01*
X218188505Y-100962401D01*
X218355599Y-101129495D01*
X218541160Y-101259426D01*
X218580024Y-101303743D01*
X218594035Y-101361000D01*
X218580024Y-101418257D01*
X218541158Y-101462575D01*
X218402643Y-101559565D01*
X218355595Y-101592508D01*
X218188505Y-101759598D01*
X218052965Y-101953170D01*
X217953097Y-102167336D01*
X217891936Y-102395592D01*
X217871340Y-102631000D01*
X81280500Y-102631000D01*
X81280500Y-99311398D01*
X105337746Y-99311398D01*
X105340165Y-99362171D01*
X105347746Y-99521330D01*
X105397297Y-99725580D01*
X105484602Y-99916752D01*
X105565577Y-100030464D01*
X105606514Y-100087952D01*
X105758622Y-100232986D01*
X105830964Y-100279478D01*
X105935425Y-100346612D01*
X105974580Y-100362287D01*
X106130543Y-100424725D01*
X106259228Y-100449527D01*
X106336914Y-100464500D01*
X106336915Y-100464500D01*
X106494420Y-100464500D01*
X106494425Y-100464500D01*
X106651218Y-100449528D01*
X106852875Y-100390316D01*
X107039682Y-100294011D01*
X107204886Y-100164092D01*
X107342519Y-100005256D01*
X107447604Y-99823244D01*
X107516344Y-99624633D01*
X107546254Y-99416602D01*
X107536254Y-99206670D01*
X107486704Y-99002424D01*
X107478123Y-98983634D01*
X107423488Y-98863999D01*
X108736356Y-98863999D01*
X108756891Y-99111816D01*
X108756891Y-99111819D01*
X108756892Y-99111821D01*
X108817937Y-99352881D01*
X108852828Y-99432425D01*
X108917825Y-99580604D01*
X108917827Y-99580607D01*
X109053836Y-99788785D01*
X109222256Y-99971738D01*
X109222259Y-99971740D01*
X109418485Y-100124470D01*
X109418487Y-100124471D01*
X109418491Y-100124474D01*
X109637190Y-100242828D01*
X109872386Y-100323571D01*
X110117665Y-100364500D01*
X110366335Y-100364500D01*
X110611614Y-100323571D01*
X110691287Y-100296218D01*
X110759496Y-100292691D01*
X110819229Y-100325819D01*
X112223196Y-101729787D01*
X112236096Y-101745888D01*
X112287223Y-101793900D01*
X112290020Y-101796611D01*
X112309529Y-101816120D01*
X112312711Y-101818588D01*
X112321571Y-101826155D01*
X112353418Y-101856062D01*
X112358719Y-101858976D01*
X112370972Y-101865712D01*
X112387236Y-101876396D01*
X112398972Y-101885499D01*
X112403064Y-101888673D01*
X112427909Y-101899424D01*
X112443152Y-101906021D01*
X112453631Y-101911154D01*
X112491908Y-101932197D01*
X112511306Y-101937177D01*
X112529708Y-101943477D01*
X112548104Y-101951438D01*
X112591261Y-101958273D01*
X112602664Y-101960634D01*
X112644981Y-101971500D01*
X112665016Y-101971500D01*
X112684413Y-101973026D01*
X112704196Y-101976160D01*
X112747674Y-101972050D01*
X112759344Y-101971500D01*
X133778981Y-101971500D01*
X133795635Y-101971500D01*
X133818869Y-101973696D01*
X133825121Y-101974888D01*
X133832300Y-101975225D01*
X133838196Y-101976160D01*
X133881674Y-101972050D01*
X133893344Y-101971500D01*
X133897350Y-101971500D01*
X157654981Y-101971500D01*
X157675016Y-101971500D01*
X157694413Y-101973026D01*
X157714196Y-101976160D01*
X157757674Y-101972050D01*
X157769344Y-101971500D01*
X157773350Y-101971500D01*
X181273256Y-101971500D01*
X181293762Y-101973764D01*
X181296665Y-101973672D01*
X181296667Y-101973673D01*
X181363872Y-101971561D01*
X181367768Y-101971500D01*
X181395350Y-101971500D01*
X204919016Y-101971500D01*
X204938415Y-101973027D01*
X204958196Y-101976160D01*
X205001674Y-101972050D01*
X205013344Y-101971500D01*
X205017348Y-101971500D01*
X205017350Y-101971500D01*
X205044744Y-101968038D01*
X205048582Y-101967614D01*
X205115533Y-101961287D01*
X205115534Y-101961286D01*
X205118427Y-101961013D01*
X205132089Y-101957733D01*
X205134787Y-101956664D01*
X205134792Y-101956664D01*
X205197388Y-101931879D01*
X205200903Y-101930551D01*
X205264228Y-101907754D01*
X205264233Y-101907750D01*
X205266970Y-101906765D01*
X205279376Y-101900196D01*
X205281726Y-101898488D01*
X205281732Y-101898486D01*
X205336157Y-101858942D01*
X205339301Y-101856734D01*
X205357798Y-101844163D01*
X205394938Y-101818924D01*
X205394939Y-101818922D01*
X205397343Y-101817289D01*
X205407730Y-101807838D01*
X205409585Y-101805595D01*
X205409587Y-101805594D01*
X205452460Y-101753766D01*
X205454968Y-101750831D01*
X205457573Y-101747877D01*
X205499450Y-101700378D01*
X205499450Y-101700377D01*
X205501371Y-101698199D01*
X205509082Y-101686460D01*
X205510321Y-101683826D01*
X205510324Y-101683823D01*
X205538981Y-101622920D01*
X205540657Y-101619499D01*
X205571197Y-101559565D01*
X205571197Y-101559564D01*
X205572517Y-101556974D01*
X205577069Y-101543679D01*
X205577612Y-101540828D01*
X205577614Y-101540826D01*
X205590228Y-101474695D01*
X205591011Y-101470921D01*
X205606305Y-101402499D01*
X205607409Y-101388479D01*
X205603004Y-101318473D01*
X205602820Y-101314579D01*
X205602480Y-101303743D01*
X205600709Y-101247373D01*
X205600708Y-101247370D01*
X205600617Y-101244463D01*
X205597069Y-101224128D01*
X205596540Y-101215711D01*
X205593500Y-101196514D01*
X205593500Y-100305519D01*
X205610977Y-100242045D01*
X205658480Y-100196465D01*
X205791509Y-100124474D01*
X205987744Y-99971738D01*
X206156164Y-99788785D01*
X206292173Y-99580607D01*
X206294851Y-99574500D01*
X206299594Y-99563690D01*
X206326685Y-99524619D01*
X206366488Y-99498615D01*
X206413150Y-99489500D01*
X206869256Y-99489500D01*
X206889762Y-99491764D01*
X206892665Y-99491672D01*
X206892667Y-99491673D01*
X206959872Y-99489561D01*
X206963768Y-99489500D01*
X206991349Y-99489500D01*
X206991350Y-99489500D01*
X206995319Y-99488998D01*
X207006965Y-99488080D01*
X207050627Y-99486709D01*
X207069859Y-99481120D01*
X207088918Y-99477174D01*
X207095196Y-99476381D01*
X207108792Y-99474664D01*
X207149407Y-99458582D01*
X207160444Y-99454803D01*
X207202390Y-99442618D01*
X207219629Y-99432422D01*
X207237102Y-99423862D01*
X207255732Y-99416486D01*
X207291064Y-99390814D01*
X207300830Y-99384400D01*
X207338418Y-99362171D01*
X207338417Y-99362171D01*
X207338420Y-99362170D01*
X207352585Y-99348004D01*
X207367373Y-99335373D01*
X207383587Y-99323594D01*
X207411438Y-99289926D01*
X207419279Y-99281309D01*
X211457789Y-95242800D01*
X211473885Y-95229906D01*
X211475873Y-95227787D01*
X211475877Y-95227786D01*
X211521948Y-95178723D01*
X211524566Y-95176023D01*
X211544120Y-95156471D01*
X211546581Y-95153298D01*
X211554156Y-95144427D01*
X211584062Y-95112582D01*
X211593717Y-95095018D01*
X211604394Y-95078764D01*
X211616673Y-95062936D01*
X211634018Y-95022852D01*
X211639160Y-95012356D01*
X211660197Y-94974092D01*
X211665179Y-94954684D01*
X211671481Y-94936280D01*
X211679437Y-94917896D01*
X211686269Y-94874752D01*
X211688633Y-94863338D01*
X211699500Y-94821019D01*
X211699500Y-94800984D01*
X211701027Y-94781585D01*
X211701068Y-94781321D01*
X211704160Y-94761804D01*
X211700050Y-94718325D01*
X211699500Y-94706656D01*
X211699500Y-91999999D01*
X215475039Y-91999999D01*
X215494929Y-92303474D01*
X215554259Y-92601744D01*
X215652014Y-92889721D01*
X215786524Y-93162480D01*
X215928604Y-93375119D01*
X215955484Y-93415347D01*
X216156004Y-93643996D01*
X216319706Y-93787559D01*
X216384653Y-93844516D01*
X216637519Y-94013475D01*
X216910278Y-94147985D01*
X217198255Y-94245740D01*
X217496525Y-94305070D01*
X217496527Y-94305070D01*
X217496532Y-94305071D01*
X217800000Y-94324961D01*
X218103468Y-94305071D01*
X218103472Y-94305070D01*
X218103474Y-94305070D01*
X218401744Y-94245740D01*
X218689721Y-94147985D01*
X218689720Y-94147985D01*
X218689724Y-94147984D01*
X218962481Y-94013475D01*
X219215347Y-93844516D01*
X219443996Y-93643996D01*
X219644516Y-93415347D01*
X219813475Y-93162481D01*
X219947984Y-92889724D01*
X220045740Y-92601744D01*
X220048025Y-92590259D01*
X220105070Y-92303474D01*
X220105070Y-92303472D01*
X220105071Y-92303468D01*
X220124961Y-92000000D01*
X220105071Y-91696532D01*
X220094888Y-91645340D01*
X220045740Y-91398255D01*
X219947985Y-91110278D01*
X219813475Y-90837520D01*
X219644516Y-90584653D01*
X219443996Y-90356004D01*
X219215347Y-90155484D01*
X219144940Y-90108440D01*
X218962480Y-89986524D01*
X218689721Y-89852014D01*
X218401744Y-89754259D01*
X218103474Y-89694929D01*
X217800000Y-89675039D01*
X217496525Y-89694929D01*
X217198255Y-89754259D01*
X216910278Y-89852014D01*
X216637520Y-89986524D01*
X216384653Y-90155483D01*
X216156004Y-90356004D01*
X215955483Y-90584653D01*
X215786524Y-90837520D01*
X215652014Y-91110278D01*
X215554259Y-91398255D01*
X215494929Y-91696525D01*
X215475039Y-91999999D01*
X211699500Y-91999999D01*
X211699500Y-89504452D01*
X211708939Y-89456999D01*
X211735819Y-89416771D01*
X214567928Y-86584662D01*
X217659194Y-83493395D01*
X217720034Y-83460017D01*
X217789283Y-83464556D01*
X217845249Y-83505591D01*
X217870401Y-83570270D01*
X217891936Y-83816407D01*
X217936709Y-83983501D01*
X217953097Y-84044663D01*
X218052965Y-84258830D01*
X218188505Y-84452401D01*
X218355599Y-84619495D01*
X218541160Y-84749426D01*
X218580024Y-84793743D01*
X218594035Y-84851000D01*
X218580024Y-84908257D01*
X218541159Y-84952575D01*
X218355595Y-85082508D01*
X218188505Y-85249598D01*
X218052965Y-85443170D01*
X217953097Y-85657336D01*
X217891936Y-85885592D01*
X217871340Y-86121000D01*
X217891936Y-86356407D01*
X217936709Y-86523502D01*
X217953097Y-86584663D01*
X218052965Y-86798830D01*
X218188505Y-86992401D01*
X218355599Y-87159495D01*
X218549170Y-87295035D01*
X218763337Y-87394903D01*
X218991592Y-87456063D01*
X219226999Y-87476659D01*
X219226999Y-87476658D01*
X219227000Y-87476659D01*
X219462408Y-87456063D01*
X219690663Y-87394903D01*
X219904830Y-87295035D01*
X220098401Y-87159495D01*
X220265495Y-86992401D01*
X220401035Y-86798830D01*
X220500903Y-86584663D01*
X220562063Y-86356408D01*
X220582659Y-86121000D01*
X220562063Y-85885592D01*
X220500903Y-85657337D01*
X220401035Y-85443171D01*
X220265495Y-85249599D01*
X220098401Y-85082505D01*
X219912839Y-84952573D01*
X219873975Y-84908257D01*
X219859964Y-84851000D01*
X219873975Y-84793743D01*
X219912839Y-84749426D01*
X220098401Y-84619495D01*
X220265495Y-84452401D01*
X220401035Y-84258830D01*
X220500903Y-84044663D01*
X220562063Y-83816408D01*
X220582659Y-83581000D01*
X220562063Y-83345592D01*
X220500903Y-83117337D01*
X220401035Y-82903171D01*
X220265495Y-82709599D01*
X220143569Y-82587672D01*
X220112273Y-82534927D01*
X220110084Y-82473634D01*
X220137537Y-82418789D01*
X220187916Y-82383810D01*
X220319331Y-82334796D01*
X220434546Y-82248546D01*
X220520796Y-82133331D01*
X220571091Y-81998483D01*
X220577500Y-81938873D01*
X220577499Y-80143128D01*
X220571091Y-80083517D01*
X220520796Y-79948669D01*
X220434546Y-79833454D01*
X220319331Y-79747204D01*
X220184483Y-79696909D01*
X220124873Y-79690500D01*
X220124869Y-79690500D01*
X218329130Y-79690500D01*
X218269515Y-79696909D01*
X218134669Y-79747204D01*
X218019454Y-79833454D01*
X217933204Y-79948668D01*
X217882909Y-80083516D01*
X217876500Y-80143131D01*
X217876500Y-81455546D01*
X217867061Y-81502999D01*
X217840181Y-81543227D01*
X210690208Y-88693199D01*
X210674110Y-88706096D01*
X210626096Y-88757225D01*
X210623391Y-88760017D01*
X210603874Y-88779534D01*
X210601415Y-88782705D01*
X210593842Y-88791572D01*
X210563935Y-88823420D01*
X210554285Y-88840974D01*
X210543609Y-88857228D01*
X210531326Y-88873063D01*
X210513975Y-88913158D01*
X210508838Y-88923644D01*
X210487802Y-88961907D01*
X210482821Y-88981309D01*
X210476520Y-88999711D01*
X210468561Y-89018102D01*
X210461728Y-89061242D01*
X210459360Y-89072674D01*
X210448500Y-89114978D01*
X210448500Y-89135016D01*
X210446973Y-89154413D01*
X210443840Y-89174196D01*
X210444447Y-89180613D01*
X210447950Y-89217675D01*
X210448500Y-89229344D01*
X210448500Y-94431547D01*
X210439061Y-94479000D01*
X210412181Y-94519228D01*
X206729228Y-98202181D01*
X206689000Y-98229061D01*
X206641547Y-98238500D01*
X206413150Y-98238500D01*
X206366488Y-98229385D01*
X206326685Y-98203381D01*
X206299594Y-98164310D01*
X206292174Y-98147395D01*
X206292173Y-98147393D01*
X206156164Y-97939215D01*
X205987744Y-97756262D01*
X205965612Y-97739036D01*
X205791514Y-97603529D01*
X205791510Y-97603526D01*
X205791509Y-97603526D01*
X205572810Y-97485172D01*
X205572806Y-97485170D01*
X205572805Y-97485170D01*
X205337615Y-97404429D01*
X205092335Y-97363500D01*
X204843665Y-97363500D01*
X204598384Y-97404429D01*
X204363194Y-97485170D01*
X204144485Y-97603529D01*
X203948259Y-97756259D01*
X203779837Y-97939214D01*
X203643825Y-98147395D01*
X203553780Y-98352678D01*
X203543937Y-98375119D01*
X203496129Y-98563908D01*
X203482891Y-98616183D01*
X203462356Y-98863999D01*
X203482891Y-99111816D01*
X203482891Y-99111819D01*
X203482892Y-99111821D01*
X203543937Y-99352881D01*
X203578828Y-99432425D01*
X203643825Y-99580604D01*
X203643827Y-99580607D01*
X203779836Y-99788785D01*
X203948256Y-99971738D01*
X203948259Y-99971740D01*
X204144485Y-100124470D01*
X204144487Y-100124471D01*
X204144491Y-100124474D01*
X204277519Y-100196465D01*
X204325023Y-100242045D01*
X204342500Y-100305519D01*
X204342500Y-100596500D01*
X204325887Y-100658500D01*
X204280500Y-100703887D01*
X204218500Y-100720500D01*
X182149500Y-100720500D01*
X182087500Y-100703887D01*
X182042113Y-100658500D01*
X182025500Y-100596500D01*
X182025500Y-100139519D01*
X182042977Y-100076045D01*
X182090480Y-100030465D01*
X182223509Y-99958474D01*
X182419744Y-99805738D01*
X182588164Y-99622785D01*
X182724173Y-99414607D01*
X182769445Y-99311398D01*
X200063746Y-99311398D01*
X200066165Y-99362171D01*
X200073746Y-99521330D01*
X200123297Y-99725580D01*
X200210602Y-99916752D01*
X200291577Y-100030464D01*
X200332514Y-100087952D01*
X200484622Y-100232986D01*
X200556964Y-100279478D01*
X200661425Y-100346612D01*
X200700580Y-100362287D01*
X200856543Y-100424725D01*
X200985228Y-100449527D01*
X201062914Y-100464500D01*
X201062915Y-100464500D01*
X201220420Y-100464500D01*
X201220425Y-100464500D01*
X201377218Y-100449528D01*
X201578875Y-100390316D01*
X201765682Y-100294011D01*
X201930886Y-100164092D01*
X202068519Y-100005256D01*
X202173604Y-99823244D01*
X202242344Y-99624633D01*
X202272254Y-99416602D01*
X202262254Y-99206670D01*
X202212704Y-99002424D01*
X202204123Y-98983634D01*
X202125397Y-98811247D01*
X202007188Y-98645247D01*
X202003486Y-98640048D01*
X201851378Y-98495014D01*
X201818754Y-98474048D01*
X201674574Y-98381387D01*
X201518609Y-98318949D01*
X201479457Y-98303275D01*
X201479456Y-98303274D01*
X201479454Y-98303274D01*
X201273086Y-98263500D01*
X201273085Y-98263500D01*
X201115575Y-98263500D01*
X201017579Y-98272857D01*
X200958779Y-98278472D01*
X200757126Y-98337683D01*
X200570315Y-98433990D01*
X200405115Y-98563906D01*
X200267479Y-98722745D01*
X200162396Y-98904754D01*
X200093655Y-99103366D01*
X200063746Y-99311396D01*
X200063746Y-99311398D01*
X182769445Y-99311398D01*
X182824063Y-99186881D01*
X182885108Y-98945821D01*
X182905643Y-98698000D01*
X182885108Y-98450179D01*
X182824063Y-98209119D01*
X182724173Y-97981393D01*
X182588164Y-97773215D01*
X182419744Y-97590262D01*
X182284725Y-97485172D01*
X182223514Y-97437529D01*
X182223510Y-97437526D01*
X182223509Y-97437526D01*
X182004810Y-97319172D01*
X182004806Y-97319170D01*
X182004805Y-97319170D01*
X181769615Y-97238429D01*
X181524335Y-97197500D01*
X181275665Y-97197500D01*
X181030384Y-97238429D01*
X180795194Y-97319170D01*
X180576485Y-97437529D01*
X180380259Y-97590259D01*
X180211837Y-97773214D01*
X180075825Y-97981395D01*
X179985780Y-98186678D01*
X179975937Y-98209119D01*
X179928129Y-98397908D01*
X179914891Y-98450183D01*
X179894356Y-98698000D01*
X179914891Y-98945816D01*
X179914891Y-98945819D01*
X179914892Y-98945821D01*
X179975937Y-99186881D01*
X180003888Y-99250602D01*
X180075825Y-99414604D01*
X180075827Y-99414607D01*
X180211836Y-99622785D01*
X180380256Y-99805738D01*
X180380259Y-99805740D01*
X180576485Y-99958470D01*
X180576487Y-99958471D01*
X180576491Y-99958474D01*
X180709519Y-100030465D01*
X180757023Y-100076045D01*
X180774500Y-100139519D01*
X180774500Y-100596500D01*
X180757887Y-100658500D01*
X180712500Y-100703887D01*
X180650500Y-100720500D01*
X158427500Y-100720500D01*
X158365500Y-100703887D01*
X158320113Y-100658500D01*
X158303500Y-100596500D01*
X158303500Y-100139519D01*
X158320977Y-100076045D01*
X158368480Y-100030465D01*
X158501509Y-99958474D01*
X158697744Y-99805738D01*
X158866164Y-99622785D01*
X159002173Y-99414607D01*
X159102063Y-99186881D01*
X159112568Y-99145398D01*
X176495746Y-99145398D01*
X176505746Y-99355330D01*
X176537618Y-99486709D01*
X176555297Y-99559580D01*
X176642602Y-99750752D01*
X176717259Y-99855592D01*
X176764514Y-99921952D01*
X176916622Y-100066986D01*
X176988964Y-100113478D01*
X177093425Y-100180612D01*
X177132580Y-100196287D01*
X177288543Y-100258725D01*
X177417228Y-100283527D01*
X177494914Y-100298500D01*
X177494915Y-100298500D01*
X177652420Y-100298500D01*
X177652425Y-100298500D01*
X177809218Y-100283528D01*
X178010875Y-100224316D01*
X178197682Y-100128011D01*
X178362886Y-99998092D01*
X178500519Y-99839256D01*
X178605604Y-99657244D01*
X178674344Y-99458633D01*
X178704254Y-99250602D01*
X178694254Y-99040670D01*
X178644704Y-98836424D01*
X178633206Y-98811247D01*
X178557397Y-98645247D01*
X178435487Y-98474050D01*
X178435486Y-98474048D01*
X178283378Y-98329014D01*
X178204734Y-98278472D01*
X178106574Y-98215387D01*
X177950609Y-98152949D01*
X177911457Y-98137275D01*
X177911456Y-98137274D01*
X177911454Y-98137274D01*
X177705086Y-98097500D01*
X177705085Y-98097500D01*
X177547575Y-98097500D01*
X177449579Y-98106857D01*
X177390779Y-98112472D01*
X177189126Y-98171683D01*
X177002315Y-98267990D01*
X176837115Y-98397906D01*
X176699479Y-98556745D01*
X176594396Y-98738754D01*
X176525655Y-98937366D01*
X176495746Y-99145396D01*
X176495746Y-99145398D01*
X159112568Y-99145398D01*
X159163108Y-98945821D01*
X159183643Y-98698000D01*
X159163108Y-98450179D01*
X159102063Y-98209119D01*
X159002173Y-97981393D01*
X158866164Y-97773215D01*
X158697744Y-97590262D01*
X158562725Y-97485172D01*
X158501514Y-97437529D01*
X158501510Y-97437526D01*
X158501509Y-97437526D01*
X158282810Y-97319172D01*
X158282806Y-97319170D01*
X158282805Y-97319170D01*
X158047615Y-97238429D01*
X157802335Y-97197500D01*
X157553665Y-97197500D01*
X157308384Y-97238429D01*
X157073194Y-97319170D01*
X156854485Y-97437529D01*
X156658259Y-97590259D01*
X156489837Y-97773214D01*
X156353825Y-97981395D01*
X156263780Y-98186678D01*
X156253937Y-98209119D01*
X156206129Y-98397908D01*
X156192891Y-98450183D01*
X156172356Y-98698000D01*
X156192891Y-98945816D01*
X156192891Y-98945819D01*
X156192892Y-98945821D01*
X156253937Y-99186881D01*
X156281888Y-99250602D01*
X156353825Y-99414604D01*
X156353827Y-99414607D01*
X156489836Y-99622785D01*
X156658256Y-99805738D01*
X156658259Y-99805740D01*
X156854485Y-99958470D01*
X156854487Y-99958471D01*
X156854491Y-99958474D01*
X156987519Y-100030465D01*
X157035023Y-100076045D01*
X157052500Y-100139519D01*
X157052500Y-100596500D01*
X157035887Y-100658500D01*
X156990500Y-100703887D01*
X156928500Y-100720500D01*
X134605500Y-100720500D01*
X134543500Y-100703887D01*
X134498113Y-100658500D01*
X134481500Y-100596500D01*
X134481500Y-100139519D01*
X134498977Y-100076045D01*
X134546480Y-100030465D01*
X134679509Y-99958474D01*
X134875744Y-99805738D01*
X135044164Y-99622785D01*
X135180173Y-99414607D01*
X135280063Y-99186881D01*
X135290568Y-99145398D01*
X152773746Y-99145398D01*
X152783746Y-99355330D01*
X152815618Y-99486709D01*
X152833297Y-99559580D01*
X152920602Y-99750752D01*
X152995259Y-99855592D01*
X153042514Y-99921952D01*
X153194622Y-100066986D01*
X153266964Y-100113478D01*
X153371425Y-100180612D01*
X153410580Y-100196287D01*
X153566543Y-100258725D01*
X153695228Y-100283527D01*
X153772914Y-100298500D01*
X153772915Y-100298500D01*
X153930420Y-100298500D01*
X153930425Y-100298500D01*
X154087218Y-100283528D01*
X154288875Y-100224316D01*
X154475682Y-100128011D01*
X154640886Y-99998092D01*
X154778519Y-99839256D01*
X154883604Y-99657244D01*
X154952344Y-99458633D01*
X154982254Y-99250602D01*
X154972254Y-99040670D01*
X154922704Y-98836424D01*
X154911206Y-98811247D01*
X154835397Y-98645247D01*
X154713487Y-98474050D01*
X154713486Y-98474048D01*
X154561378Y-98329014D01*
X154482734Y-98278472D01*
X154384574Y-98215387D01*
X154228609Y-98152949D01*
X154189457Y-98137275D01*
X154189456Y-98137274D01*
X154189454Y-98137274D01*
X153983086Y-98097500D01*
X153983085Y-98097500D01*
X153825575Y-98097500D01*
X153727579Y-98106857D01*
X153668779Y-98112472D01*
X153467126Y-98171683D01*
X153280315Y-98267990D01*
X153115115Y-98397906D01*
X152977479Y-98556745D01*
X152872396Y-98738754D01*
X152803655Y-98937366D01*
X152773746Y-99145396D01*
X152773746Y-99145398D01*
X135290568Y-99145398D01*
X135341108Y-98945821D01*
X135361643Y-98698000D01*
X135341108Y-98450179D01*
X135280063Y-98209119D01*
X135180173Y-97981393D01*
X135044164Y-97773215D01*
X134875744Y-97590262D01*
X134740725Y-97485172D01*
X134679514Y-97437529D01*
X134679510Y-97437526D01*
X134679509Y-97437526D01*
X134460810Y-97319172D01*
X134460806Y-97319170D01*
X134460805Y-97319170D01*
X134225615Y-97238429D01*
X133980335Y-97197500D01*
X133731665Y-97197500D01*
X133486384Y-97238429D01*
X133251194Y-97319170D01*
X133032485Y-97437529D01*
X132836259Y-97590259D01*
X132667837Y-97773214D01*
X132531825Y-97981395D01*
X132441780Y-98186678D01*
X132431937Y-98209119D01*
X132384129Y-98397908D01*
X132370891Y-98450183D01*
X132350356Y-98698000D01*
X132370891Y-98945816D01*
X132370891Y-98945819D01*
X132370892Y-98945821D01*
X132431937Y-99186881D01*
X132459888Y-99250602D01*
X132531825Y-99414604D01*
X132531827Y-99414607D01*
X132667836Y-99622785D01*
X132836256Y-99805738D01*
X132836259Y-99805740D01*
X133032485Y-99958470D01*
X133032487Y-99958471D01*
X133032491Y-99958474D01*
X133165519Y-100030465D01*
X133213023Y-100076045D01*
X133230500Y-100139519D01*
X133230500Y-100596500D01*
X133213887Y-100658500D01*
X133168500Y-100703887D01*
X133106500Y-100720500D01*
X113034452Y-100720500D01*
X112986999Y-100711061D01*
X112946771Y-100684181D01*
X111705660Y-99443070D01*
X111673790Y-99388307D01*
X111673136Y-99324950D01*
X111718605Y-99145398D01*
X128951746Y-99145398D01*
X128961746Y-99355330D01*
X128993618Y-99486709D01*
X129011297Y-99559580D01*
X129098602Y-99750752D01*
X129173259Y-99855592D01*
X129220514Y-99921952D01*
X129372622Y-100066986D01*
X129444964Y-100113478D01*
X129549425Y-100180612D01*
X129588580Y-100196287D01*
X129744543Y-100258725D01*
X129873228Y-100283527D01*
X129950914Y-100298500D01*
X129950915Y-100298500D01*
X130108420Y-100298500D01*
X130108425Y-100298500D01*
X130265218Y-100283528D01*
X130466875Y-100224316D01*
X130653682Y-100128011D01*
X130818886Y-99998092D01*
X130956519Y-99839256D01*
X131061604Y-99657244D01*
X131130344Y-99458633D01*
X131160254Y-99250602D01*
X131150254Y-99040670D01*
X131100704Y-98836424D01*
X131089206Y-98811247D01*
X131013397Y-98645247D01*
X130891487Y-98474050D01*
X130891486Y-98474048D01*
X130739378Y-98329014D01*
X130660734Y-98278472D01*
X130562574Y-98215387D01*
X130406609Y-98152949D01*
X130367457Y-98137275D01*
X130367456Y-98137274D01*
X130367454Y-98137274D01*
X130161086Y-98097500D01*
X130161085Y-98097500D01*
X130003575Y-98097500D01*
X129905579Y-98106857D01*
X129846779Y-98112472D01*
X129645126Y-98171683D01*
X129458315Y-98267990D01*
X129293115Y-98397906D01*
X129155479Y-98556745D01*
X129050396Y-98738754D01*
X128981655Y-98937366D01*
X128951746Y-99145396D01*
X128951746Y-99145398D01*
X111718605Y-99145398D01*
X111727108Y-99111821D01*
X111747643Y-98864000D01*
X111727108Y-98616179D01*
X111666063Y-98375119D01*
X111576016Y-98169833D01*
X111566174Y-98147395D01*
X111566173Y-98147393D01*
X111430164Y-97939215D01*
X111261744Y-97756262D01*
X111239612Y-97739036D01*
X111065514Y-97603529D01*
X111065510Y-97603526D01*
X111065509Y-97603526D01*
X110846810Y-97485172D01*
X110846806Y-97485170D01*
X110846805Y-97485170D01*
X110611615Y-97404429D01*
X110366335Y-97363500D01*
X110117665Y-97363500D01*
X109872384Y-97404429D01*
X109637194Y-97485170D01*
X109418485Y-97603529D01*
X109222259Y-97756259D01*
X109053837Y-97939214D01*
X108917825Y-98147395D01*
X108827780Y-98352678D01*
X108817937Y-98375119D01*
X108770129Y-98563908D01*
X108756891Y-98616183D01*
X108736356Y-98863999D01*
X107423488Y-98863999D01*
X107399397Y-98811247D01*
X107281188Y-98645247D01*
X107277486Y-98640048D01*
X107125378Y-98495014D01*
X107092754Y-98474048D01*
X106948574Y-98381387D01*
X106792609Y-98318949D01*
X106753457Y-98303275D01*
X106753456Y-98303274D01*
X106753454Y-98303274D01*
X106547086Y-98263500D01*
X106547085Y-98263500D01*
X106389575Y-98263500D01*
X106291579Y-98272857D01*
X106232779Y-98278472D01*
X106031126Y-98337683D01*
X105844315Y-98433990D01*
X105679115Y-98563906D01*
X105541479Y-98722745D01*
X105436396Y-98904754D01*
X105367655Y-99103366D01*
X105337746Y-99311396D01*
X105337746Y-99311398D01*
X81280500Y-99311398D01*
X81280500Y-91947999D01*
X86835286Y-91947999D01*
X86855123Y-92250659D01*
X86914293Y-92548125D01*
X87011787Y-92835333D01*
X87145934Y-93107356D01*
X87283392Y-93313077D01*
X87314441Y-93359544D01*
X87514422Y-93587578D01*
X87640333Y-93697999D01*
X87742456Y-93787559D01*
X87994643Y-93956065D01*
X88266666Y-94090212D01*
X88410269Y-94138958D01*
X88553873Y-94187706D01*
X88653941Y-94207610D01*
X88851340Y-94246876D01*
X88851342Y-94246876D01*
X88851347Y-94246877D01*
X89154000Y-94266714D01*
X89456653Y-94246877D01*
X89456657Y-94246876D01*
X89456659Y-94246876D01*
X89553989Y-94227515D01*
X89754127Y-94187706D01*
X90041333Y-94090212D01*
X90313357Y-93956065D01*
X90451143Y-93863999D01*
X104486517Y-93863999D01*
X104506422Y-94142294D01*
X104565727Y-94414918D01*
X104565729Y-94414923D01*
X104663231Y-94676337D01*
X104686158Y-94718325D01*
X104796942Y-94921211D01*
X104839879Y-94978568D01*
X104964145Y-95144568D01*
X105161432Y-95341855D01*
X105328948Y-95467255D01*
X105384788Y-95509057D01*
X105472331Y-95556858D01*
X105629663Y-95642769D01*
X105891077Y-95740271D01*
X105891080Y-95740271D01*
X105891081Y-95740272D01*
X105929883Y-95748712D01*
X106163706Y-95799578D01*
X106357420Y-95813432D01*
X106372342Y-95814500D01*
X106372343Y-95814500D01*
X106511657Y-95814500D01*
X106511658Y-95814500D01*
X106525583Y-95813503D01*
X106720294Y-95799578D01*
X106992923Y-95740271D01*
X107254337Y-95642769D01*
X107499213Y-95509056D01*
X107722568Y-95341855D01*
X107919855Y-95144568D01*
X108087056Y-94921213D01*
X108220769Y-94676337D01*
X108318271Y-94414923D01*
X108377578Y-94142294D01*
X108397482Y-93864000D01*
X110836356Y-93864000D01*
X110856891Y-94111816D01*
X110856891Y-94111819D01*
X110856892Y-94111821D01*
X110917937Y-94352881D01*
X110945011Y-94414604D01*
X111017825Y-94580604D01*
X111017827Y-94580607D01*
X111153836Y-94788785D01*
X111322256Y-94971738D01*
X111331034Y-94978570D01*
X111518485Y-95124470D01*
X111518487Y-95124471D01*
X111518491Y-95124474D01*
X111737190Y-95242828D01*
X111972386Y-95323571D01*
X112217665Y-95364500D01*
X112466335Y-95364500D01*
X112711614Y-95323571D01*
X112946810Y-95242828D01*
X113165509Y-95124474D01*
X113361744Y-94971738D01*
X113530164Y-94788785D01*
X113666173Y-94580607D01*
X113766063Y-94352881D01*
X113827108Y-94111821D01*
X113847643Y-93864000D01*
X113833888Y-93698000D01*
X128100517Y-93698000D01*
X128120422Y-93976294D01*
X128179727Y-94248918D01*
X128179729Y-94248923D01*
X128277231Y-94510337D01*
X128277233Y-94510340D01*
X128410942Y-94755211D01*
X128491877Y-94863327D01*
X128578145Y-94978568D01*
X128775432Y-95175855D01*
X128942948Y-95301255D01*
X128998788Y-95343057D01*
X129086331Y-95390858D01*
X129243663Y-95476769D01*
X129505077Y-95574271D01*
X129505080Y-95574271D01*
X129505081Y-95574272D01*
X129543883Y-95582712D01*
X129777706Y-95633578D01*
X129971420Y-95647432D01*
X129986342Y-95648500D01*
X129986343Y-95648500D01*
X130125657Y-95648500D01*
X130125658Y-95648500D01*
X130139583Y-95647503D01*
X130334294Y-95633578D01*
X130606923Y-95574271D01*
X130868337Y-95476769D01*
X131113213Y-95343056D01*
X131336568Y-95175855D01*
X131533855Y-94978568D01*
X131701056Y-94755213D01*
X131834769Y-94510337D01*
X131932271Y-94248923D01*
X131991578Y-93976294D01*
X132011482Y-93698000D01*
X134450356Y-93698000D01*
X134470891Y-93945816D01*
X134470891Y-93945819D01*
X134470892Y-93945821D01*
X134531937Y-94186881D01*
X134558254Y-94246877D01*
X134631825Y-94414604D01*
X134631827Y-94414607D01*
X134767836Y-94622785D01*
X134936256Y-94805738D01*
X134936259Y-94805740D01*
X135132485Y-94958470D01*
X135132487Y-94958471D01*
X135132491Y-94958474D01*
X135351190Y-95076828D01*
X135586386Y-95157571D01*
X135831665Y-95198500D01*
X136080335Y-95198500D01*
X136325614Y-95157571D01*
X136560810Y-95076828D01*
X136779509Y-94958474D01*
X136975744Y-94805738D01*
X137144164Y-94622785D01*
X137280173Y-94414607D01*
X137380063Y-94186881D01*
X137441108Y-93945821D01*
X137461643Y-93698000D01*
X151922517Y-93698000D01*
X151942422Y-93976294D01*
X152001727Y-94248918D01*
X152001729Y-94248923D01*
X152099231Y-94510337D01*
X152099233Y-94510340D01*
X152232942Y-94755211D01*
X152313877Y-94863327D01*
X152400145Y-94978568D01*
X152597432Y-95175855D01*
X152764948Y-95301255D01*
X152820788Y-95343057D01*
X152908331Y-95390858D01*
X153065663Y-95476769D01*
X153327077Y-95574271D01*
X153327080Y-95574271D01*
X153327081Y-95574272D01*
X153365883Y-95582712D01*
X153599706Y-95633578D01*
X153793420Y-95647432D01*
X153808342Y-95648500D01*
X153808343Y-95648500D01*
X153947657Y-95648500D01*
X153947658Y-95648500D01*
X153961583Y-95647503D01*
X154156294Y-95633578D01*
X154428923Y-95574271D01*
X154690337Y-95476769D01*
X154935213Y-95343056D01*
X155158568Y-95175855D01*
X155355855Y-94978568D01*
X155523056Y-94755213D01*
X155656769Y-94510337D01*
X155754271Y-94248923D01*
X155813578Y-93976294D01*
X155833482Y-93698000D01*
X155833482Y-93697999D01*
X158272356Y-93697999D01*
X158292891Y-93945816D01*
X158292891Y-93945819D01*
X158292892Y-93945821D01*
X158353937Y-94186881D01*
X158380254Y-94246877D01*
X158453825Y-94414604D01*
X158453827Y-94414607D01*
X158589836Y-94622785D01*
X158758256Y-94805738D01*
X158758259Y-94805740D01*
X158954485Y-94958470D01*
X158954487Y-94958471D01*
X158954491Y-94958474D01*
X159173190Y-95076828D01*
X159408386Y-95157571D01*
X159653665Y-95198500D01*
X159902335Y-95198500D01*
X160147614Y-95157571D01*
X160382810Y-95076828D01*
X160601509Y-94958474D01*
X160797744Y-94805738D01*
X160966164Y-94622785D01*
X161102173Y-94414607D01*
X161202063Y-94186881D01*
X161263108Y-93945821D01*
X161283643Y-93698000D01*
X175644517Y-93698000D01*
X175664422Y-93976294D01*
X175723727Y-94248918D01*
X175723729Y-94248923D01*
X175821231Y-94510337D01*
X175821233Y-94510340D01*
X175954942Y-94755211D01*
X176035877Y-94863327D01*
X176122145Y-94978568D01*
X176319432Y-95175855D01*
X176486948Y-95301255D01*
X176542788Y-95343057D01*
X176630331Y-95390858D01*
X176787663Y-95476769D01*
X177049077Y-95574271D01*
X177049080Y-95574271D01*
X177049081Y-95574272D01*
X177087883Y-95582712D01*
X177321706Y-95633578D01*
X177515420Y-95647432D01*
X177530342Y-95648500D01*
X177530343Y-95648500D01*
X177669657Y-95648500D01*
X177669658Y-95648500D01*
X177683583Y-95647503D01*
X177878294Y-95633578D01*
X178150923Y-95574271D01*
X178412337Y-95476769D01*
X178657213Y-95343056D01*
X178880568Y-95175855D01*
X179077855Y-94978568D01*
X179245056Y-94755213D01*
X179378769Y-94510337D01*
X179476271Y-94248923D01*
X179535578Y-93976294D01*
X179555482Y-93698000D01*
X179555482Y-93697999D01*
X181994356Y-93697999D01*
X182014891Y-93945816D01*
X182014891Y-93945819D01*
X182014892Y-93945821D01*
X182075937Y-94186881D01*
X182102254Y-94246877D01*
X182175825Y-94414604D01*
X182175827Y-94414607D01*
X182311836Y-94622785D01*
X182480256Y-94805738D01*
X182480259Y-94805740D01*
X182676485Y-94958470D01*
X182676487Y-94958471D01*
X182676491Y-94958474D01*
X182895190Y-95076828D01*
X183130386Y-95157571D01*
X183375665Y-95198500D01*
X183624335Y-95198500D01*
X183869614Y-95157571D01*
X184104810Y-95076828D01*
X184323509Y-94958474D01*
X184519744Y-94805738D01*
X184688164Y-94622785D01*
X184824173Y-94414607D01*
X184924063Y-94186881D01*
X184985108Y-93945821D01*
X184991888Y-93864000D01*
X199212517Y-93864000D01*
X199232422Y-94142294D01*
X199291727Y-94414918D01*
X199291729Y-94414923D01*
X199389231Y-94676337D01*
X199412158Y-94718325D01*
X199522942Y-94921211D01*
X199565879Y-94978568D01*
X199690145Y-95144568D01*
X199887432Y-95341855D01*
X200054948Y-95467255D01*
X200110788Y-95509057D01*
X200198331Y-95556858D01*
X200355663Y-95642769D01*
X200617077Y-95740271D01*
X200617080Y-95740271D01*
X200617081Y-95740272D01*
X200655883Y-95748712D01*
X200889706Y-95799578D01*
X201083420Y-95813432D01*
X201098342Y-95814500D01*
X201098343Y-95814500D01*
X201237657Y-95814500D01*
X201237658Y-95814500D01*
X201251583Y-95813503D01*
X201446294Y-95799578D01*
X201718923Y-95740271D01*
X201980337Y-95642769D01*
X202225213Y-95509056D01*
X202448568Y-95341855D01*
X202645855Y-95144568D01*
X202813056Y-94921213D01*
X202946769Y-94676337D01*
X203044271Y-94414923D01*
X203103578Y-94142294D01*
X203123482Y-93864000D01*
X205562356Y-93864000D01*
X205582891Y-94111816D01*
X205582891Y-94111819D01*
X205582892Y-94111821D01*
X205643937Y-94352881D01*
X205671011Y-94414604D01*
X205743825Y-94580604D01*
X205743827Y-94580607D01*
X205879836Y-94788785D01*
X206048256Y-94971738D01*
X206057034Y-94978570D01*
X206244485Y-95124470D01*
X206244487Y-95124471D01*
X206244491Y-95124474D01*
X206463190Y-95242828D01*
X206698386Y-95323571D01*
X206943665Y-95364500D01*
X207192335Y-95364500D01*
X207437614Y-95323571D01*
X207672810Y-95242828D01*
X207891509Y-95124474D01*
X208087744Y-94971738D01*
X208256164Y-94788785D01*
X208392173Y-94580607D01*
X208492063Y-94352881D01*
X208553108Y-94111821D01*
X208573643Y-93864000D01*
X208553108Y-93616179D01*
X208492063Y-93375119D01*
X208392173Y-93147393D01*
X208256164Y-92939215D01*
X208087744Y-92756262D01*
X208065612Y-92739036D01*
X207891514Y-92603529D01*
X207891510Y-92603526D01*
X207891509Y-92603526D01*
X207672810Y-92485172D01*
X207672806Y-92485170D01*
X207672805Y-92485170D01*
X207437615Y-92404429D01*
X207192335Y-92363500D01*
X206943665Y-92363500D01*
X206698384Y-92404429D01*
X206463194Y-92485170D01*
X206244485Y-92603529D01*
X206048259Y-92756259D01*
X206048256Y-92756261D01*
X206048256Y-92756262D01*
X205925396Y-92889724D01*
X205879837Y-92939214D01*
X205743825Y-93147395D01*
X205716752Y-93209117D01*
X205643937Y-93375119D01*
X205632646Y-93419706D01*
X205582891Y-93616183D01*
X205562356Y-93864000D01*
X203123482Y-93864000D01*
X203103578Y-93585706D01*
X203044271Y-93313077D01*
X202946769Y-93051663D01*
X202856124Y-92885659D01*
X202813057Y-92806788D01*
X202660899Y-92603529D01*
X202645855Y-92583432D01*
X202448568Y-92386145D01*
X202336890Y-92302544D01*
X202225211Y-92218942D01*
X202050124Y-92123338D01*
X201980337Y-92085231D01*
X201718923Y-91987729D01*
X201718918Y-91987727D01*
X201446294Y-91928422D01*
X201237658Y-91913500D01*
X201237657Y-91913500D01*
X201098343Y-91913500D01*
X201098342Y-91913500D01*
X200889705Y-91928422D01*
X200617081Y-91987727D01*
X200486369Y-92036480D01*
X200355663Y-92085231D01*
X200355660Y-92085232D01*
X200355659Y-92085233D01*
X200110788Y-92218942D01*
X199887429Y-92386147D01*
X199690147Y-92583429D01*
X199522942Y-92806788D01*
X199427601Y-92981393D01*
X199389231Y-93051663D01*
X199353644Y-93147077D01*
X199291727Y-93313081D01*
X199232422Y-93585705D01*
X199212517Y-93864000D01*
X184991888Y-93864000D01*
X185005643Y-93698000D01*
X184985108Y-93450179D01*
X184924063Y-93209119D01*
X184824173Y-92981393D01*
X184688164Y-92773215D01*
X184519744Y-92590262D01*
X184465609Y-92548127D01*
X184323514Y-92437529D01*
X184323510Y-92437526D01*
X184323509Y-92437526D01*
X184104810Y-92319172D01*
X184104806Y-92319170D01*
X184104805Y-92319170D01*
X183869615Y-92238429D01*
X183624335Y-92197500D01*
X183375665Y-92197500D01*
X183130384Y-92238429D01*
X182895194Y-92319170D01*
X182676485Y-92437529D01*
X182480259Y-92590259D01*
X182480256Y-92590261D01*
X182480256Y-92590262D01*
X182311836Y-92773215D01*
X182289902Y-92806788D01*
X182175825Y-92981395D01*
X182097705Y-93159492D01*
X182075937Y-93209119D01*
X182023713Y-93415346D01*
X182014891Y-93450183D01*
X181994356Y-93697999D01*
X179555482Y-93697999D01*
X179535578Y-93419706D01*
X179476271Y-93147077D01*
X179378769Y-92885663D01*
X179245056Y-92640787D01*
X179077855Y-92417432D01*
X178880568Y-92220145D01*
X178768890Y-92136544D01*
X178657211Y-92052942D01*
X178465021Y-91947999D01*
X178412337Y-91919231D01*
X178150923Y-91821729D01*
X178150918Y-91821727D01*
X177878294Y-91762422D01*
X177669658Y-91747500D01*
X177669657Y-91747500D01*
X177530343Y-91747500D01*
X177530342Y-91747500D01*
X177321705Y-91762422D01*
X177049081Y-91821727D01*
X176918369Y-91870480D01*
X176787663Y-91919231D01*
X176787660Y-91919232D01*
X176787659Y-91919233D01*
X176542788Y-92052942D01*
X176319429Y-92220147D01*
X176122147Y-92417429D01*
X175954942Y-92640788D01*
X175864300Y-92806788D01*
X175821231Y-92885663D01*
X175785526Y-92981393D01*
X175723727Y-93147081D01*
X175664422Y-93419705D01*
X175644517Y-93698000D01*
X161283643Y-93698000D01*
X161263108Y-93450179D01*
X161202063Y-93209119D01*
X161102173Y-92981393D01*
X160966164Y-92773215D01*
X160797744Y-92590262D01*
X160743609Y-92548127D01*
X160601514Y-92437529D01*
X160601510Y-92437526D01*
X160601509Y-92437526D01*
X160382810Y-92319172D01*
X160382806Y-92319170D01*
X160382805Y-92319170D01*
X160147615Y-92238429D01*
X159902335Y-92197500D01*
X159653665Y-92197500D01*
X159408384Y-92238429D01*
X159173194Y-92319170D01*
X158954485Y-92437529D01*
X158758259Y-92590259D01*
X158758256Y-92590261D01*
X158758256Y-92590262D01*
X158589836Y-92773215D01*
X158567902Y-92806788D01*
X158453825Y-92981395D01*
X158375705Y-93159492D01*
X158353937Y-93209119D01*
X158301713Y-93415346D01*
X158292891Y-93450183D01*
X158272356Y-93697999D01*
X155833482Y-93697999D01*
X155813578Y-93419706D01*
X155754271Y-93147077D01*
X155656769Y-92885663D01*
X155523056Y-92640787D01*
X155355855Y-92417432D01*
X155158568Y-92220145D01*
X155046890Y-92136544D01*
X154935211Y-92052942D01*
X154743021Y-91947999D01*
X154690337Y-91919231D01*
X154428923Y-91821729D01*
X154428918Y-91821727D01*
X154156294Y-91762422D01*
X153947658Y-91747500D01*
X153947657Y-91747500D01*
X153808343Y-91747500D01*
X153808342Y-91747500D01*
X153599705Y-91762422D01*
X153327081Y-91821727D01*
X153196369Y-91870480D01*
X153065663Y-91919231D01*
X153065660Y-91919232D01*
X153065659Y-91919233D01*
X152820788Y-92052942D01*
X152597429Y-92220147D01*
X152400147Y-92417429D01*
X152232942Y-92640788D01*
X152142300Y-92806788D01*
X152099231Y-92885663D01*
X152063526Y-92981393D01*
X152001727Y-93147081D01*
X151942422Y-93419705D01*
X151922517Y-93698000D01*
X137461643Y-93698000D01*
X137441108Y-93450179D01*
X137380063Y-93209119D01*
X137280173Y-92981393D01*
X137144164Y-92773215D01*
X136975744Y-92590262D01*
X136921609Y-92548127D01*
X136779514Y-92437529D01*
X136779510Y-92437526D01*
X136779509Y-92437526D01*
X136560810Y-92319172D01*
X136560806Y-92319170D01*
X136560805Y-92319170D01*
X136325615Y-92238429D01*
X136080335Y-92197500D01*
X135831665Y-92197500D01*
X135586384Y-92238429D01*
X135351194Y-92319170D01*
X135132485Y-92437529D01*
X134936259Y-92590259D01*
X134936256Y-92590261D01*
X134936256Y-92590262D01*
X134767836Y-92773215D01*
X134745902Y-92806788D01*
X134631825Y-92981395D01*
X134553705Y-93159492D01*
X134531937Y-93209119D01*
X134479713Y-93415346D01*
X134470891Y-93450183D01*
X134450356Y-93698000D01*
X132011482Y-93698000D01*
X131991578Y-93419706D01*
X131932271Y-93147077D01*
X131834769Y-92885663D01*
X131701056Y-92640787D01*
X131533855Y-92417432D01*
X131336568Y-92220145D01*
X131224890Y-92136544D01*
X131113211Y-92052942D01*
X130921021Y-91947999D01*
X130868337Y-91919231D01*
X130606923Y-91821729D01*
X130606918Y-91821727D01*
X130334294Y-91762422D01*
X130125658Y-91747500D01*
X130125657Y-91747500D01*
X129986343Y-91747500D01*
X129986342Y-91747500D01*
X129777705Y-91762422D01*
X129505081Y-91821727D01*
X129374369Y-91870480D01*
X129243663Y-91919231D01*
X129243660Y-91919232D01*
X129243659Y-91919233D01*
X128998788Y-92052942D01*
X128775429Y-92220147D01*
X128578147Y-92417429D01*
X128410942Y-92640788D01*
X128320300Y-92806788D01*
X128277231Y-92885663D01*
X128241526Y-92981393D01*
X128179727Y-93147081D01*
X128120422Y-93419705D01*
X128100517Y-93698000D01*
X113833888Y-93698000D01*
X113827108Y-93616179D01*
X113766063Y-93375119D01*
X113666173Y-93147393D01*
X113530164Y-92939215D01*
X113361744Y-92756262D01*
X113339612Y-92739036D01*
X113165514Y-92603529D01*
X113165510Y-92603526D01*
X113165509Y-92603526D01*
X112946810Y-92485172D01*
X112946806Y-92485170D01*
X112946805Y-92485170D01*
X112711615Y-92404429D01*
X112466335Y-92363500D01*
X112217665Y-92363500D01*
X111972384Y-92404429D01*
X111737194Y-92485170D01*
X111518485Y-92603529D01*
X111322259Y-92756259D01*
X111322256Y-92756261D01*
X111322256Y-92756262D01*
X111199396Y-92889724D01*
X111153837Y-92939214D01*
X111017825Y-93147395D01*
X110990752Y-93209117D01*
X110917937Y-93375119D01*
X110906646Y-93419706D01*
X110856891Y-93616183D01*
X110836356Y-93864000D01*
X108397482Y-93864000D01*
X108377578Y-93585706D01*
X108318271Y-93313077D01*
X108220769Y-93051663D01*
X108130124Y-92885659D01*
X108087057Y-92806788D01*
X107934899Y-92603529D01*
X107919855Y-92583432D01*
X107722568Y-92386145D01*
X107610890Y-92302544D01*
X107499211Y-92218942D01*
X107324124Y-92123338D01*
X107254337Y-92085231D01*
X106992923Y-91987729D01*
X106992918Y-91987727D01*
X106720294Y-91928422D01*
X106511658Y-91913500D01*
X106511657Y-91913500D01*
X106372343Y-91913500D01*
X106372342Y-91913500D01*
X106163705Y-91928422D01*
X105891081Y-91987727D01*
X105760369Y-92036480D01*
X105629663Y-92085231D01*
X105629660Y-92085232D01*
X105629659Y-92085233D01*
X105384788Y-92218942D01*
X105161429Y-92386147D01*
X104964147Y-92583429D01*
X104796942Y-92806788D01*
X104701601Y-92981393D01*
X104663231Y-93051663D01*
X104627644Y-93147077D01*
X104565727Y-93313081D01*
X104506422Y-93585705D01*
X104486517Y-93863999D01*
X90451143Y-93863999D01*
X90565544Y-93787559D01*
X90793578Y-93587578D01*
X90993559Y-93359544D01*
X91162065Y-93107357D01*
X91296212Y-92835333D01*
X91393706Y-92548127D01*
X91442370Y-92303474D01*
X91452876Y-92250659D01*
X91452876Y-92250657D01*
X91452877Y-92250653D01*
X91472714Y-91948000D01*
X91452877Y-91645347D01*
X91393706Y-91347873D01*
X91296212Y-91060667D01*
X91187642Y-90840509D01*
X91162065Y-90788643D01*
X90993559Y-90536456D01*
X90835306Y-90356004D01*
X90793578Y-90308422D01*
X90565544Y-90108441D01*
X90383082Y-89986524D01*
X90313356Y-89939934D01*
X90041333Y-89805787D01*
X89754125Y-89708293D01*
X89456659Y-89649123D01*
X89154000Y-89629286D01*
X88851340Y-89649123D01*
X88553874Y-89708293D01*
X88266666Y-89805787D01*
X87994643Y-89939934D01*
X87742456Y-90108440D01*
X87514422Y-90308422D01*
X87314440Y-90536456D01*
X87145934Y-90788643D01*
X87011787Y-91060666D01*
X86914293Y-91347874D01*
X86855123Y-91645340D01*
X86835286Y-91947999D01*
X81280500Y-91947999D01*
X81280500Y-88311398D01*
X105337746Y-88311398D01*
X105347746Y-88521330D01*
X105391789Y-88702878D01*
X105397297Y-88725580D01*
X105484602Y-88916752D01*
X105587494Y-89061242D01*
X105606514Y-89087952D01*
X105758622Y-89232986D01*
X105830964Y-89279478D01*
X105935425Y-89346612D01*
X105974580Y-89362287D01*
X106130543Y-89424725D01*
X106259228Y-89449527D01*
X106336914Y-89464500D01*
X106336915Y-89464500D01*
X106494420Y-89464500D01*
X106494425Y-89464500D01*
X106651218Y-89449528D01*
X106852875Y-89390316D01*
X107039682Y-89294011D01*
X107204886Y-89164092D01*
X107342519Y-89005256D01*
X107447604Y-88823244D01*
X107516344Y-88624633D01*
X107546254Y-88416602D01*
X107536254Y-88206670D01*
X107521389Y-88145396D01*
X128951746Y-88145396D01*
X128961746Y-88355330D01*
X129011297Y-88559580D01*
X129098602Y-88750752D01*
X129168939Y-88849525D01*
X129220514Y-88921952D01*
X129372622Y-89066986D01*
X129405241Y-89087949D01*
X129549425Y-89180612D01*
X129588580Y-89196287D01*
X129744543Y-89258725D01*
X129873228Y-89283527D01*
X129950914Y-89298500D01*
X129950915Y-89298500D01*
X130108420Y-89298500D01*
X130108425Y-89298500D01*
X130265218Y-89283528D01*
X130466875Y-89224316D01*
X130653682Y-89128011D01*
X130818886Y-88998092D01*
X130956519Y-88839256D01*
X131061604Y-88657244D01*
X131130344Y-88458633D01*
X131160254Y-88250602D01*
X131155243Y-88145396D01*
X152773746Y-88145396D01*
X152783746Y-88355330D01*
X152833297Y-88559580D01*
X152920602Y-88750752D01*
X152990939Y-88849525D01*
X153042514Y-88921952D01*
X153194622Y-89066986D01*
X153227241Y-89087949D01*
X153371425Y-89180612D01*
X153410580Y-89196287D01*
X153566543Y-89258725D01*
X153695228Y-89283527D01*
X153772914Y-89298500D01*
X153772915Y-89298500D01*
X153930420Y-89298500D01*
X153930425Y-89298500D01*
X154087218Y-89283528D01*
X154288875Y-89224316D01*
X154475682Y-89128011D01*
X154640886Y-88998092D01*
X154778519Y-88839256D01*
X154883604Y-88657244D01*
X154952344Y-88458633D01*
X154982254Y-88250602D01*
X154977243Y-88145396D01*
X176495746Y-88145396D01*
X176505746Y-88355330D01*
X176555297Y-88559580D01*
X176642602Y-88750752D01*
X176712939Y-88849525D01*
X176764514Y-88921952D01*
X176916622Y-89066986D01*
X176949241Y-89087949D01*
X177093425Y-89180612D01*
X177132580Y-89196287D01*
X177288543Y-89258725D01*
X177417228Y-89283527D01*
X177494914Y-89298500D01*
X177494915Y-89298500D01*
X177652420Y-89298500D01*
X177652425Y-89298500D01*
X177809218Y-89283528D01*
X178010875Y-89224316D01*
X178197682Y-89128011D01*
X178362886Y-88998092D01*
X178500519Y-88839256D01*
X178605604Y-88657244D01*
X178674344Y-88458633D01*
X178695513Y-88311398D01*
X200063746Y-88311398D01*
X200073746Y-88521330D01*
X200117789Y-88702878D01*
X200123297Y-88725580D01*
X200210602Y-88916752D01*
X200313494Y-89061242D01*
X200332514Y-89087952D01*
X200484622Y-89232986D01*
X200556964Y-89279478D01*
X200661425Y-89346612D01*
X200700580Y-89362287D01*
X200856543Y-89424725D01*
X200985228Y-89449527D01*
X201062914Y-89464500D01*
X201062915Y-89464500D01*
X201220420Y-89464500D01*
X201220425Y-89464500D01*
X201377218Y-89449528D01*
X201578875Y-89390316D01*
X201765682Y-89294011D01*
X201930886Y-89164092D01*
X202068519Y-89005256D01*
X202173604Y-88823244D01*
X202242344Y-88624633D01*
X202272254Y-88416602D01*
X202262254Y-88206670D01*
X202212704Y-88002424D01*
X202212702Y-88002419D01*
X202125397Y-87811247D01*
X202003487Y-87640050D01*
X202003486Y-87640048D01*
X201851378Y-87495014D01*
X201818754Y-87474048D01*
X201674574Y-87381387D01*
X201518609Y-87318949D01*
X201479457Y-87303275D01*
X201479456Y-87303274D01*
X201479454Y-87303274D01*
X201273086Y-87263500D01*
X201273085Y-87263500D01*
X201115575Y-87263500D01*
X201017579Y-87272857D01*
X200958779Y-87278472D01*
X200757126Y-87337683D01*
X200570315Y-87433990D01*
X200405115Y-87563906D01*
X200267479Y-87722745D01*
X200162396Y-87904754D01*
X200093655Y-88103366D01*
X200063746Y-88311396D01*
X200063746Y-88311398D01*
X178695513Y-88311398D01*
X178704254Y-88250602D01*
X178694254Y-88040670D01*
X178644704Y-87836424D01*
X178633206Y-87811247D01*
X178557397Y-87645247D01*
X178435487Y-87474050D01*
X178435486Y-87474048D01*
X178283378Y-87329014D01*
X178204734Y-87278472D01*
X178106574Y-87215387D01*
X177950609Y-87152949D01*
X177911457Y-87137275D01*
X177911456Y-87137274D01*
X177911454Y-87137274D01*
X177705086Y-87097500D01*
X177705085Y-87097500D01*
X177547575Y-87097500D01*
X177449579Y-87106857D01*
X177390779Y-87112472D01*
X177189126Y-87171683D01*
X177002315Y-87267990D01*
X176837115Y-87397906D01*
X176699479Y-87556745D01*
X176594396Y-87738754D01*
X176525655Y-87937366D01*
X176495746Y-88145396D01*
X154977243Y-88145396D01*
X154972254Y-88040670D01*
X154922704Y-87836424D01*
X154911206Y-87811247D01*
X154835397Y-87645247D01*
X154713487Y-87474050D01*
X154713486Y-87474048D01*
X154561378Y-87329014D01*
X154482734Y-87278472D01*
X154384574Y-87215387D01*
X154228609Y-87152949D01*
X154189457Y-87137275D01*
X154189456Y-87137274D01*
X154189454Y-87137274D01*
X153983086Y-87097500D01*
X153983085Y-87097500D01*
X153825575Y-87097500D01*
X153727579Y-87106857D01*
X153668779Y-87112472D01*
X153467126Y-87171683D01*
X153280315Y-87267990D01*
X153115115Y-87397906D01*
X152977479Y-87556745D01*
X152872396Y-87738754D01*
X152803655Y-87937366D01*
X152773746Y-88145396D01*
X131155243Y-88145396D01*
X131150254Y-88040670D01*
X131100704Y-87836424D01*
X131089206Y-87811247D01*
X131013397Y-87645247D01*
X130891487Y-87474050D01*
X130891486Y-87474048D01*
X130739378Y-87329014D01*
X130660734Y-87278472D01*
X130562574Y-87215387D01*
X130406609Y-87152949D01*
X130367457Y-87137275D01*
X130367456Y-87137274D01*
X130367454Y-87137274D01*
X130161086Y-87097500D01*
X130161085Y-87097500D01*
X130003575Y-87097500D01*
X129905579Y-87106857D01*
X129846779Y-87112472D01*
X129645126Y-87171683D01*
X129458315Y-87267990D01*
X129293115Y-87397906D01*
X129155479Y-87556745D01*
X129050396Y-87738754D01*
X128981655Y-87937366D01*
X128951746Y-88145396D01*
X107521389Y-88145396D01*
X107486704Y-88002424D01*
X107486702Y-88002419D01*
X107399397Y-87811247D01*
X107277487Y-87640050D01*
X107277486Y-87640048D01*
X107125378Y-87495014D01*
X107092754Y-87474048D01*
X106948574Y-87381387D01*
X106792609Y-87318949D01*
X106753457Y-87303275D01*
X106753456Y-87303274D01*
X106753454Y-87303274D01*
X106547086Y-87263500D01*
X106547085Y-87263500D01*
X106389575Y-87263500D01*
X106291579Y-87272857D01*
X106232779Y-87278472D01*
X106031126Y-87337683D01*
X105844315Y-87433990D01*
X105679115Y-87563906D01*
X105541479Y-87722745D01*
X105436396Y-87904754D01*
X105367655Y-88103366D01*
X105337746Y-88311396D01*
X105337746Y-88311398D01*
X81280500Y-88311398D01*
X81280500Y-78744135D01*
X81280775Y-78735888D01*
X81289880Y-78599294D01*
X81292470Y-78581042D01*
X81318928Y-78460097D01*
X81357668Y-78282997D01*
X81365914Y-78258196D01*
X81456294Y-78059358D01*
X81465994Y-78041909D01*
X81595324Y-77847913D01*
X81606534Y-77833521D01*
X81781883Y-77639715D01*
X81800491Y-77622926D01*
X82077894Y-77419496D01*
X82104428Y-77404661D01*
X82348405Y-77305263D01*
X82372605Y-77298173D01*
X82618854Y-77252573D01*
X82641434Y-77250500D01*
X83391434Y-77250500D01*
X83391454Y-77250495D01*
X221338434Y-77240500D01*
X221361279Y-77242623D01*
G37*
%TD.AperFunction*%
M02*
