G04 #@! TF.GenerationSoftware,KiCad,Pcbnew,7.0.1*
G04 #@! TF.CreationDate,2023-12-15T11:31:03-05:00*
G04 #@! TF.ProjectId,strum,73747275-6d2e-46b6-9963-61645f706362,rev?*
G04 #@! TF.SameCoordinates,Original*
G04 #@! TF.FileFunction,Legend,Top*
G04 #@! TF.FilePolarity,Positive*
%FSLAX46Y46*%
G04 Gerber Fmt 4.6, Leading zero omitted, Abs format (unit mm)*
G04 Created by KiCad (PCBNEW 7.0.1) date 2023-12-15 11:31:03*
%MOMM*%
%LPD*%
G01*
G04 APERTURE LIST*
%ADD10C,0.150000*%
%ADD11C,0.120000*%
%ADD12R,1.700000X1.700000*%
%ADD13O,1.700000X1.700000*%
%ADD14O,1.500000X2.500000*%
%ADD15O,2.500000X1.500000*%
%ADD16C,1.750000*%
%ADD17C,4.000000*%
%ADD18C,2.500000*%
G04 APERTURE END LIST*
D10*
X145742857Y-133777619D02*
X145980952Y-134777619D01*
X145980952Y-134777619D02*
X146171428Y-134063333D01*
X146171428Y-134063333D02*
X146361904Y-134777619D01*
X146361904Y-134777619D02*
X146600000Y-133777619D01*
X146980952Y-134777619D02*
X146980952Y-134110952D01*
X146980952Y-133777619D02*
X146933333Y-133825238D01*
X146933333Y-133825238D02*
X146980952Y-133872857D01*
X146980952Y-133872857D02*
X147028571Y-133825238D01*
X147028571Y-133825238D02*
X146980952Y-133777619D01*
X146980952Y-133777619D02*
X146980952Y-133872857D01*
X147457142Y-134777619D02*
X147457142Y-134110952D01*
X147457142Y-133777619D02*
X147409523Y-133825238D01*
X147409523Y-133825238D02*
X147457142Y-133872857D01*
X147457142Y-133872857D02*
X147504761Y-133825238D01*
X147504761Y-133825238D02*
X147457142Y-133777619D01*
X147457142Y-133777619D02*
X147457142Y-133872857D01*
X149171427Y-134777619D02*
X148695237Y-134777619D01*
X148695237Y-134777619D02*
X148695237Y-133777619D01*
X149504761Y-134777619D02*
X149504761Y-133777619D01*
X149504761Y-133777619D02*
X149885713Y-133777619D01*
X149885713Y-133777619D02*
X149980951Y-133825238D01*
X149980951Y-133825238D02*
X150028570Y-133872857D01*
X150028570Y-133872857D02*
X150076189Y-133968095D01*
X150076189Y-133968095D02*
X150076189Y-134110952D01*
X150076189Y-134110952D02*
X150028570Y-134206190D01*
X150028570Y-134206190D02*
X149980951Y-134253809D01*
X149980951Y-134253809D02*
X149885713Y-134301428D01*
X149885713Y-134301428D02*
X149504761Y-134301428D01*
X151838094Y-134682380D02*
X151790475Y-134730000D01*
X151790475Y-134730000D02*
X151647618Y-134777619D01*
X151647618Y-134777619D02*
X151552380Y-134777619D01*
X151552380Y-134777619D02*
X151409523Y-134730000D01*
X151409523Y-134730000D02*
X151314285Y-134634761D01*
X151314285Y-134634761D02*
X151266666Y-134539523D01*
X151266666Y-134539523D02*
X151219047Y-134349047D01*
X151219047Y-134349047D02*
X151219047Y-134206190D01*
X151219047Y-134206190D02*
X151266666Y-134015714D01*
X151266666Y-134015714D02*
X151314285Y-133920476D01*
X151314285Y-133920476D02*
X151409523Y-133825238D01*
X151409523Y-133825238D02*
X151552380Y-133777619D01*
X151552380Y-133777619D02*
X151647618Y-133777619D01*
X151647618Y-133777619D02*
X151790475Y-133825238D01*
X151790475Y-133825238D02*
X151838094Y-133872857D01*
X152695237Y-134777619D02*
X152695237Y-134253809D01*
X152695237Y-134253809D02*
X152647618Y-134158571D01*
X152647618Y-134158571D02*
X152552380Y-134110952D01*
X152552380Y-134110952D02*
X152361904Y-134110952D01*
X152361904Y-134110952D02*
X152266666Y-134158571D01*
X152695237Y-134730000D02*
X152599999Y-134777619D01*
X152599999Y-134777619D02*
X152361904Y-134777619D01*
X152361904Y-134777619D02*
X152266666Y-134730000D01*
X152266666Y-134730000D02*
X152219047Y-134634761D01*
X152219047Y-134634761D02*
X152219047Y-134539523D01*
X152219047Y-134539523D02*
X152266666Y-134444285D01*
X152266666Y-134444285D02*
X152361904Y-134396666D01*
X152361904Y-134396666D02*
X152599999Y-134396666D01*
X152599999Y-134396666D02*
X152695237Y-134349047D01*
X153171428Y-134777619D02*
X153171428Y-134110952D01*
X153171428Y-134301428D02*
X153219047Y-134206190D01*
X153219047Y-134206190D02*
X153266666Y-134158571D01*
X153266666Y-134158571D02*
X153361904Y-134110952D01*
X153361904Y-134110952D02*
X153457142Y-134110952D01*
X153790476Y-134777619D02*
X153790476Y-134110952D01*
X153790476Y-134301428D02*
X153838095Y-134206190D01*
X153838095Y-134206190D02*
X153885714Y-134158571D01*
X153885714Y-134158571D02*
X153980952Y-134110952D01*
X153980952Y-134110952D02*
X154076190Y-134110952D01*
X154409524Y-134777619D02*
X154409524Y-134110952D01*
X154409524Y-133777619D02*
X154361905Y-133825238D01*
X154361905Y-133825238D02*
X154409524Y-133872857D01*
X154409524Y-133872857D02*
X154457143Y-133825238D01*
X154457143Y-133825238D02*
X154409524Y-133777619D01*
X154409524Y-133777619D02*
X154409524Y-133872857D01*
X155266666Y-134730000D02*
X155171428Y-134777619D01*
X155171428Y-134777619D02*
X154980952Y-134777619D01*
X154980952Y-134777619D02*
X154885714Y-134730000D01*
X154885714Y-134730000D02*
X154838095Y-134634761D01*
X154838095Y-134634761D02*
X154838095Y-134253809D01*
X154838095Y-134253809D02*
X154885714Y-134158571D01*
X154885714Y-134158571D02*
X154980952Y-134110952D01*
X154980952Y-134110952D02*
X155171428Y-134110952D01*
X155171428Y-134110952D02*
X155266666Y-134158571D01*
X155266666Y-134158571D02*
X155314285Y-134253809D01*
X155314285Y-134253809D02*
X155314285Y-134349047D01*
X155314285Y-134349047D02*
X154838095Y-134444285D01*
X155742857Y-134777619D02*
X155742857Y-134110952D01*
X155742857Y-134301428D02*
X155790476Y-134206190D01*
X155790476Y-134206190D02*
X155838095Y-134158571D01*
X155838095Y-134158571D02*
X155933333Y-134110952D01*
X155933333Y-134110952D02*
X156028571Y-134110952D01*
X175325238Y-78722857D02*
X175325238Y-78341904D01*
X175325238Y-78341904D02*
X175420476Y-78151428D01*
X175420476Y-78151428D02*
X175610952Y-77960952D01*
X175610952Y-77960952D02*
X175991904Y-77865714D01*
X175991904Y-77865714D02*
X176658571Y-77865714D01*
X176658571Y-77865714D02*
X177039523Y-77960952D01*
X177039523Y-77960952D02*
X177230000Y-78151428D01*
X177230000Y-78151428D02*
X177325238Y-78341904D01*
X177325238Y-78341904D02*
X177325238Y-78722857D01*
X177325238Y-78722857D02*
X177230000Y-78913333D01*
X177230000Y-78913333D02*
X177039523Y-79103809D01*
X177039523Y-79103809D02*
X176658571Y-79199047D01*
X176658571Y-79199047D02*
X175991904Y-79199047D01*
X175991904Y-79199047D02*
X175610952Y-79103809D01*
X175610952Y-79103809D02*
X175420476Y-78913333D01*
X175420476Y-78913333D02*
X175325238Y-78722857D01*
X175991904Y-77008571D02*
X177991904Y-77008571D01*
X176087142Y-77008571D02*
X175991904Y-76818095D01*
X175991904Y-76818095D02*
X175991904Y-76437142D01*
X175991904Y-76437142D02*
X176087142Y-76246666D01*
X176087142Y-76246666D02*
X176182380Y-76151428D01*
X176182380Y-76151428D02*
X176372857Y-76056190D01*
X176372857Y-76056190D02*
X176944285Y-76056190D01*
X176944285Y-76056190D02*
X177134761Y-76151428D01*
X177134761Y-76151428D02*
X177230000Y-76246666D01*
X177230000Y-76246666D02*
X177325238Y-76437142D01*
X177325238Y-76437142D02*
X177325238Y-76818095D01*
X177325238Y-76818095D02*
X177230000Y-77008571D01*
X177230000Y-74437142D02*
X177325238Y-74627618D01*
X177325238Y-74627618D02*
X177325238Y-75008571D01*
X177325238Y-75008571D02*
X177230000Y-75199047D01*
X177230000Y-75199047D02*
X177039523Y-75294285D01*
X177039523Y-75294285D02*
X176277619Y-75294285D01*
X176277619Y-75294285D02*
X176087142Y-75199047D01*
X176087142Y-75199047D02*
X175991904Y-75008571D01*
X175991904Y-75008571D02*
X175991904Y-74627618D01*
X175991904Y-74627618D02*
X176087142Y-74437142D01*
X176087142Y-74437142D02*
X176277619Y-74341904D01*
X176277619Y-74341904D02*
X176468095Y-74341904D01*
X176468095Y-74341904D02*
X176658571Y-75294285D01*
X175991904Y-73484761D02*
X177325238Y-73484761D01*
X176182380Y-73484761D02*
X176087142Y-73389523D01*
X176087142Y-73389523D02*
X175991904Y-73199047D01*
X175991904Y-73199047D02*
X175991904Y-72913332D01*
X175991904Y-72913332D02*
X176087142Y-72722856D01*
X176087142Y-72722856D02*
X176277619Y-72627618D01*
X176277619Y-72627618D02*
X177325238Y-72627618D01*
X177230000Y-70246665D02*
X177325238Y-69960951D01*
X177325238Y-69960951D02*
X177325238Y-69484760D01*
X177325238Y-69484760D02*
X177230000Y-69294284D01*
X177230000Y-69294284D02*
X177134761Y-69199046D01*
X177134761Y-69199046D02*
X176944285Y-69103808D01*
X176944285Y-69103808D02*
X176753809Y-69103808D01*
X176753809Y-69103808D02*
X176563333Y-69199046D01*
X176563333Y-69199046D02*
X176468095Y-69294284D01*
X176468095Y-69294284D02*
X176372857Y-69484760D01*
X176372857Y-69484760D02*
X176277619Y-69865713D01*
X176277619Y-69865713D02*
X176182380Y-70056189D01*
X176182380Y-70056189D02*
X176087142Y-70151427D01*
X176087142Y-70151427D02*
X175896666Y-70246665D01*
X175896666Y-70246665D02*
X175706190Y-70246665D01*
X175706190Y-70246665D02*
X175515714Y-70151427D01*
X175515714Y-70151427D02*
X175420476Y-70056189D01*
X175420476Y-70056189D02*
X175325238Y-69865713D01*
X175325238Y-69865713D02*
X175325238Y-69389522D01*
X175325238Y-69389522D02*
X175420476Y-69103808D01*
X177325238Y-67960951D02*
X177230000Y-68151427D01*
X177230000Y-68151427D02*
X177134761Y-68246665D01*
X177134761Y-68246665D02*
X176944285Y-68341903D01*
X176944285Y-68341903D02*
X176372857Y-68341903D01*
X176372857Y-68341903D02*
X176182380Y-68246665D01*
X176182380Y-68246665D02*
X176087142Y-68151427D01*
X176087142Y-68151427D02*
X175991904Y-67960951D01*
X175991904Y-67960951D02*
X175991904Y-67675236D01*
X175991904Y-67675236D02*
X176087142Y-67484760D01*
X176087142Y-67484760D02*
X176182380Y-67389522D01*
X176182380Y-67389522D02*
X176372857Y-67294284D01*
X176372857Y-67294284D02*
X176944285Y-67294284D01*
X176944285Y-67294284D02*
X177134761Y-67389522D01*
X177134761Y-67389522D02*
X177230000Y-67484760D01*
X177230000Y-67484760D02*
X177325238Y-67675236D01*
X177325238Y-67675236D02*
X177325238Y-67960951D01*
X175991904Y-65579998D02*
X177325238Y-65579998D01*
X175991904Y-66437141D02*
X177039523Y-66437141D01*
X177039523Y-66437141D02*
X177230000Y-66341903D01*
X177230000Y-66341903D02*
X177325238Y-66151427D01*
X177325238Y-66151427D02*
X177325238Y-65865712D01*
X177325238Y-65865712D02*
X177230000Y-65675236D01*
X177230000Y-65675236D02*
X177134761Y-65579998D01*
X177325238Y-64627617D02*
X175991904Y-64627617D01*
X176372857Y-64627617D02*
X176182380Y-64532379D01*
X176182380Y-64532379D02*
X176087142Y-64437141D01*
X176087142Y-64437141D02*
X175991904Y-64246665D01*
X175991904Y-64246665D02*
X175991904Y-64056188D01*
X177230000Y-62532379D02*
X177325238Y-62722855D01*
X177325238Y-62722855D02*
X177325238Y-63103808D01*
X177325238Y-63103808D02*
X177230000Y-63294284D01*
X177230000Y-63294284D02*
X177134761Y-63389522D01*
X177134761Y-63389522D02*
X176944285Y-63484760D01*
X176944285Y-63484760D02*
X176372857Y-63484760D01*
X176372857Y-63484760D02*
X176182380Y-63389522D01*
X176182380Y-63389522D02*
X176087142Y-63294284D01*
X176087142Y-63294284D02*
X175991904Y-63103808D01*
X175991904Y-63103808D02*
X175991904Y-62722855D01*
X175991904Y-62722855D02*
X176087142Y-62532379D01*
X177230000Y-60913331D02*
X177325238Y-61103807D01*
X177325238Y-61103807D02*
X177325238Y-61484760D01*
X177325238Y-61484760D02*
X177230000Y-61675236D01*
X177230000Y-61675236D02*
X177039523Y-61770474D01*
X177039523Y-61770474D02*
X176277619Y-61770474D01*
X176277619Y-61770474D02*
X176087142Y-61675236D01*
X176087142Y-61675236D02*
X175991904Y-61484760D01*
X175991904Y-61484760D02*
X175991904Y-61103807D01*
X175991904Y-61103807D02*
X176087142Y-60913331D01*
X176087142Y-60913331D02*
X176277619Y-60818093D01*
X176277619Y-60818093D02*
X176468095Y-60818093D01*
X176468095Y-60818093D02*
X176658571Y-61770474D01*
X176277619Y-58437140D02*
X176277619Y-57770473D01*
X177325238Y-57484759D02*
X177325238Y-58437140D01*
X177325238Y-58437140D02*
X175325238Y-58437140D01*
X175325238Y-58437140D02*
X175325238Y-57484759D01*
X175991904Y-56818092D02*
X177325238Y-56341902D01*
X177325238Y-56341902D02*
X175991904Y-55865711D01*
X177230000Y-54341901D02*
X177325238Y-54532377D01*
X177325238Y-54532377D02*
X177325238Y-54913330D01*
X177325238Y-54913330D02*
X177230000Y-55103806D01*
X177230000Y-55103806D02*
X177039523Y-55199044D01*
X177039523Y-55199044D02*
X176277619Y-55199044D01*
X176277619Y-55199044D02*
X176087142Y-55103806D01*
X176087142Y-55103806D02*
X175991904Y-54913330D01*
X175991904Y-54913330D02*
X175991904Y-54532377D01*
X175991904Y-54532377D02*
X176087142Y-54341901D01*
X176087142Y-54341901D02*
X176277619Y-54246663D01*
X176277619Y-54246663D02*
X176468095Y-54246663D01*
X176468095Y-54246663D02*
X176658571Y-55199044D01*
X177325238Y-53389520D02*
X175991904Y-53389520D01*
X176372857Y-53389520D02*
X176182380Y-53294282D01*
X176182380Y-53294282D02*
X176087142Y-53199044D01*
X176087142Y-53199044D02*
X175991904Y-53008568D01*
X175991904Y-53008568D02*
X175991904Y-52818091D01*
X175991904Y-52341901D02*
X177325238Y-51865711D01*
X175991904Y-51389520D02*
X177325238Y-51865711D01*
X177325238Y-51865711D02*
X177801428Y-52056187D01*
X177801428Y-52056187D02*
X177896666Y-52151425D01*
X177896666Y-52151425D02*
X177991904Y-52341901D01*
X175991904Y-50913329D02*
X175991904Y-50151425D01*
X175325238Y-50627615D02*
X177039523Y-50627615D01*
X177039523Y-50627615D02*
X177230000Y-50532377D01*
X177230000Y-50532377D02*
X177325238Y-50341901D01*
X177325238Y-50341901D02*
X177325238Y-50151425D01*
X177325238Y-49484758D02*
X175325238Y-49484758D01*
X177325238Y-48627615D02*
X176277619Y-48627615D01*
X176277619Y-48627615D02*
X176087142Y-48722853D01*
X176087142Y-48722853D02*
X175991904Y-48913329D01*
X175991904Y-48913329D02*
X175991904Y-49199044D01*
X175991904Y-49199044D02*
X176087142Y-49389520D01*
X176087142Y-49389520D02*
X176182380Y-49484758D01*
X177325238Y-47675234D02*
X175991904Y-47675234D01*
X175325238Y-47675234D02*
X175420476Y-47770472D01*
X175420476Y-47770472D02*
X175515714Y-47675234D01*
X175515714Y-47675234D02*
X175420476Y-47579996D01*
X175420476Y-47579996D02*
X175325238Y-47675234D01*
X175325238Y-47675234D02*
X175515714Y-47675234D01*
X175991904Y-46722853D02*
X177325238Y-46722853D01*
X176182380Y-46722853D02*
X176087142Y-46627615D01*
X176087142Y-46627615D02*
X175991904Y-46437139D01*
X175991904Y-46437139D02*
X175991904Y-46151424D01*
X175991904Y-46151424D02*
X176087142Y-45960948D01*
X176087142Y-45960948D02*
X176277619Y-45865710D01*
X176277619Y-45865710D02*
X177325238Y-45865710D01*
X175991904Y-44056186D02*
X177610952Y-44056186D01*
X177610952Y-44056186D02*
X177801428Y-44151424D01*
X177801428Y-44151424D02*
X177896666Y-44246662D01*
X177896666Y-44246662D02*
X177991904Y-44437139D01*
X177991904Y-44437139D02*
X177991904Y-44722853D01*
X177991904Y-44722853D02*
X177896666Y-44913329D01*
X177230000Y-44056186D02*
X177325238Y-44246662D01*
X177325238Y-44246662D02*
X177325238Y-44627615D01*
X177325238Y-44627615D02*
X177230000Y-44818091D01*
X177230000Y-44818091D02*
X177134761Y-44913329D01*
X177134761Y-44913329D02*
X176944285Y-45008567D01*
X176944285Y-45008567D02*
X176372857Y-45008567D01*
X176372857Y-45008567D02*
X176182380Y-44913329D01*
X176182380Y-44913329D02*
X176087142Y-44818091D01*
X176087142Y-44818091D02*
X175991904Y-44627615D01*
X175991904Y-44627615D02*
X175991904Y-44246662D01*
X175991904Y-44246662D02*
X176087142Y-44056186D01*
X177134761Y-43103805D02*
X177230000Y-43008567D01*
X177230000Y-43008567D02*
X177325238Y-43103805D01*
X177325238Y-43103805D02*
X177230000Y-43199043D01*
X177230000Y-43199043D02*
X177134761Y-43103805D01*
X177134761Y-43103805D02*
X177325238Y-43103805D01*
X176563333Y-43103805D02*
X175420476Y-43199043D01*
X175420476Y-43199043D02*
X175325238Y-43103805D01*
X175325238Y-43103805D02*
X175420476Y-43008567D01*
X175420476Y-43008567D02*
X176563333Y-43103805D01*
X176563333Y-43103805D02*
X175325238Y-43103805D01*
X128122619Y-40693333D02*
X128836904Y-40693333D01*
X128836904Y-40693333D02*
X128979761Y-40740952D01*
X128979761Y-40740952D02*
X129075000Y-40836190D01*
X129075000Y-40836190D02*
X129122619Y-40979047D01*
X129122619Y-40979047D02*
X129122619Y-41074285D01*
X128122619Y-39740952D02*
X128122619Y-40217142D01*
X128122619Y-40217142D02*
X128598809Y-40264761D01*
X128598809Y-40264761D02*
X128551190Y-40217142D01*
X128551190Y-40217142D02*
X128503571Y-40121904D01*
X128503571Y-40121904D02*
X128503571Y-39883809D01*
X128503571Y-39883809D02*
X128551190Y-39788571D01*
X128551190Y-39788571D02*
X128598809Y-39740952D01*
X128598809Y-39740952D02*
X128694047Y-39693333D01*
X128694047Y-39693333D02*
X128932142Y-39693333D01*
X128932142Y-39693333D02*
X129027380Y-39740952D01*
X129027380Y-39740952D02*
X129075000Y-39788571D01*
X129075000Y-39788571D02*
X129122619Y-39883809D01*
X129122619Y-39883809D02*
X129122619Y-40121904D01*
X129122619Y-40121904D02*
X129075000Y-40217142D01*
X129075000Y-40217142D02*
X129027380Y-40264761D01*
X130166666Y-97722619D02*
X130166666Y-98436904D01*
X130166666Y-98436904D02*
X130119047Y-98579761D01*
X130119047Y-98579761D02*
X130023809Y-98675000D01*
X130023809Y-98675000D02*
X129880952Y-98722619D01*
X129880952Y-98722619D02*
X129785714Y-98722619D01*
X131071428Y-98055952D02*
X131071428Y-98722619D01*
X130833333Y-97675000D02*
X130595238Y-98389285D01*
X130595238Y-98389285D02*
X131214285Y-98389285D01*
X162516667Y-77005000D02*
X162659524Y-77052619D01*
X162659524Y-77052619D02*
X162897619Y-77052619D01*
X162897619Y-77052619D02*
X162992857Y-77005000D01*
X162992857Y-77005000D02*
X163040476Y-76957380D01*
X163040476Y-76957380D02*
X163088095Y-76862142D01*
X163088095Y-76862142D02*
X163088095Y-76766904D01*
X163088095Y-76766904D02*
X163040476Y-76671666D01*
X163040476Y-76671666D02*
X162992857Y-76624047D01*
X162992857Y-76624047D02*
X162897619Y-76576428D01*
X162897619Y-76576428D02*
X162707143Y-76528809D01*
X162707143Y-76528809D02*
X162611905Y-76481190D01*
X162611905Y-76481190D02*
X162564286Y-76433571D01*
X162564286Y-76433571D02*
X162516667Y-76338333D01*
X162516667Y-76338333D02*
X162516667Y-76243095D01*
X162516667Y-76243095D02*
X162564286Y-76147857D01*
X162564286Y-76147857D02*
X162611905Y-76100238D01*
X162611905Y-76100238D02*
X162707143Y-76052619D01*
X162707143Y-76052619D02*
X162945238Y-76052619D01*
X162945238Y-76052619D02*
X163088095Y-76100238D01*
X163421429Y-76052619D02*
X163659524Y-77052619D01*
X163659524Y-77052619D02*
X163850000Y-76338333D01*
X163850000Y-76338333D02*
X164040476Y-77052619D01*
X164040476Y-77052619D02*
X164278572Y-76052619D01*
X164611905Y-76147857D02*
X164659524Y-76100238D01*
X164659524Y-76100238D02*
X164754762Y-76052619D01*
X164754762Y-76052619D02*
X164992857Y-76052619D01*
X164992857Y-76052619D02*
X165088095Y-76100238D01*
X165088095Y-76100238D02*
X165135714Y-76147857D01*
X165135714Y-76147857D02*
X165183333Y-76243095D01*
X165183333Y-76243095D02*
X165183333Y-76338333D01*
X165183333Y-76338333D02*
X165135714Y-76481190D01*
X165135714Y-76481190D02*
X164564286Y-77052619D01*
X164564286Y-77052619D02*
X165183333Y-77052619D01*
X141996667Y-76995000D02*
X142139524Y-77042619D01*
X142139524Y-77042619D02*
X142377619Y-77042619D01*
X142377619Y-77042619D02*
X142472857Y-76995000D01*
X142472857Y-76995000D02*
X142520476Y-76947380D01*
X142520476Y-76947380D02*
X142568095Y-76852142D01*
X142568095Y-76852142D02*
X142568095Y-76756904D01*
X142568095Y-76756904D02*
X142520476Y-76661666D01*
X142520476Y-76661666D02*
X142472857Y-76614047D01*
X142472857Y-76614047D02*
X142377619Y-76566428D01*
X142377619Y-76566428D02*
X142187143Y-76518809D01*
X142187143Y-76518809D02*
X142091905Y-76471190D01*
X142091905Y-76471190D02*
X142044286Y-76423571D01*
X142044286Y-76423571D02*
X141996667Y-76328333D01*
X141996667Y-76328333D02*
X141996667Y-76233095D01*
X141996667Y-76233095D02*
X142044286Y-76137857D01*
X142044286Y-76137857D02*
X142091905Y-76090238D01*
X142091905Y-76090238D02*
X142187143Y-76042619D01*
X142187143Y-76042619D02*
X142425238Y-76042619D01*
X142425238Y-76042619D02*
X142568095Y-76090238D01*
X142901429Y-76042619D02*
X143139524Y-77042619D01*
X143139524Y-77042619D02*
X143330000Y-76328333D01*
X143330000Y-76328333D02*
X143520476Y-77042619D01*
X143520476Y-77042619D02*
X143758572Y-76042619D01*
X144663333Y-77042619D02*
X144091905Y-77042619D01*
X144377619Y-77042619D02*
X144377619Y-76042619D01*
X144377619Y-76042619D02*
X144282381Y-76185476D01*
X144282381Y-76185476D02*
X144187143Y-76280714D01*
X144187143Y-76280714D02*
X144091905Y-76328333D01*
X162272619Y-134043333D02*
X162986904Y-134043333D01*
X162986904Y-134043333D02*
X163129761Y-134090952D01*
X163129761Y-134090952D02*
X163225000Y-134186190D01*
X163225000Y-134186190D02*
X163272619Y-134329047D01*
X163272619Y-134329047D02*
X163272619Y-134424285D01*
X162272619Y-133662380D02*
X162272619Y-133043333D01*
X162272619Y-133043333D02*
X162653571Y-133376666D01*
X162653571Y-133376666D02*
X162653571Y-133233809D01*
X162653571Y-133233809D02*
X162701190Y-133138571D01*
X162701190Y-133138571D02*
X162748809Y-133090952D01*
X162748809Y-133090952D02*
X162844047Y-133043333D01*
X162844047Y-133043333D02*
X163082142Y-133043333D01*
X163082142Y-133043333D02*
X163177380Y-133090952D01*
X163177380Y-133090952D02*
X163225000Y-133138571D01*
X163225000Y-133138571D02*
X163272619Y-133233809D01*
X163272619Y-133233809D02*
X163272619Y-133519523D01*
X163272619Y-133519523D02*
X163225000Y-133614761D01*
X163225000Y-133614761D02*
X163177380Y-133662380D01*
X164282619Y-40493333D02*
X164996904Y-40493333D01*
X164996904Y-40493333D02*
X165139761Y-40540952D01*
X165139761Y-40540952D02*
X165235000Y-40636190D01*
X165235000Y-40636190D02*
X165282619Y-40779047D01*
X165282619Y-40779047D02*
X165282619Y-40874285D01*
X164377857Y-40064761D02*
X164330238Y-40017142D01*
X164330238Y-40017142D02*
X164282619Y-39921904D01*
X164282619Y-39921904D02*
X164282619Y-39683809D01*
X164282619Y-39683809D02*
X164330238Y-39588571D01*
X164330238Y-39588571D02*
X164377857Y-39540952D01*
X164377857Y-39540952D02*
X164473095Y-39493333D01*
X164473095Y-39493333D02*
X164568333Y-39493333D01*
X164568333Y-39493333D02*
X164711190Y-39540952D01*
X164711190Y-39540952D02*
X165282619Y-40112380D01*
X165282619Y-40112380D02*
X165282619Y-39493333D01*
X176896666Y-117572619D02*
X176896666Y-118286904D01*
X176896666Y-118286904D02*
X176849047Y-118429761D01*
X176849047Y-118429761D02*
X176753809Y-118525000D01*
X176753809Y-118525000D02*
X176610952Y-118572619D01*
X176610952Y-118572619D02*
X176515714Y-118572619D01*
X177896666Y-118572619D02*
X177325238Y-118572619D01*
X177610952Y-118572619D02*
X177610952Y-117572619D01*
X177610952Y-117572619D02*
X177515714Y-117715476D01*
X177515714Y-117715476D02*
X177420476Y-117810714D01*
X177420476Y-117810714D02*
X177325238Y-117858333D01*
D11*
X130100000Y-40360000D02*
X130100000Y-39030000D01*
X130100000Y-39030000D02*
X131430000Y-39030000D01*
X132700000Y-41690000D02*
X140380000Y-41690000D01*
X132700000Y-41690000D02*
X132700000Y-39030000D01*
X132700000Y-39030000D02*
X140380000Y-39030000D01*
X140380000Y-41690000D02*
X140380000Y-39030000D01*
X129170000Y-115060000D02*
X131830000Y-115060000D01*
X129170000Y-102300000D02*
X129170000Y-115060000D01*
X131830000Y-99700000D02*
X131830000Y-101030000D01*
X131830000Y-102300000D02*
X131830000Y-115060000D01*
X129170000Y-102300000D02*
X131830000Y-102300000D01*
X130500000Y-99700000D02*
X131830000Y-99700000D01*
X170950000Y-77490000D02*
X156750000Y-77490000D01*
X170950000Y-91690000D02*
X170950000Y-77490000D01*
X156750000Y-91690000D02*
X170950000Y-91690000D01*
X156750000Y-77490000D02*
X156750000Y-91690000D01*
X136230000Y-77480000D02*
X136230000Y-91680000D01*
X136230000Y-91680000D02*
X150430000Y-91680000D01*
X150430000Y-91680000D02*
X150430000Y-77480000D01*
X150430000Y-77480000D02*
X136230000Y-77480000D01*
X171990000Y-135040000D02*
X171990000Y-132380000D01*
X164250000Y-132380000D02*
X165580000Y-132380000D01*
X166850000Y-135040000D02*
X166850000Y-132380000D01*
X166850000Y-135040000D02*
X171990000Y-135040000D01*
X166850000Y-132380000D02*
X171990000Y-132380000D01*
X164250000Y-133710000D02*
X164250000Y-132380000D01*
X148020000Y-38830000D02*
X148020000Y-41490000D01*
X160780000Y-38830000D02*
X148020000Y-38830000D01*
X163380000Y-41490000D02*
X162050000Y-41490000D01*
X160780000Y-41490000D02*
X148020000Y-41490000D01*
X160780000Y-38830000D02*
X160780000Y-41490000D01*
X163380000Y-40160000D02*
X163380000Y-41490000D01*
X177230000Y-119550000D02*
X178560000Y-119550000D01*
X178560000Y-122150000D02*
X178560000Y-127290000D01*
X175900000Y-122150000D02*
X175900000Y-127290000D01*
X175900000Y-122150000D02*
X178560000Y-122150000D01*
X178560000Y-119550000D02*
X178560000Y-120880000D01*
X175900000Y-127290000D02*
X178560000Y-127290000D01*
%LPC*%
D12*
X131430000Y-40360000D03*
D13*
X133970000Y-40360000D03*
X136510000Y-40360000D03*
X139050000Y-40360000D03*
D12*
X130500000Y-101030000D03*
D13*
X130500000Y-103570000D03*
X130500000Y-106110000D03*
X130500000Y-108650000D03*
X130500000Y-111190000D03*
X130500000Y-113730000D03*
D14*
X177750000Y-99400000D03*
X175210000Y-99400000D03*
X172670000Y-99400000D03*
X170130000Y-99400000D03*
X167590000Y-99400000D03*
X165050000Y-99400000D03*
X162510000Y-99400000D03*
X159970000Y-99400000D03*
X157430000Y-99400000D03*
D15*
X156930000Y-102440000D03*
X156930000Y-104980000D03*
X156930000Y-107520000D03*
X156930000Y-110060000D03*
X156930000Y-112600000D03*
D14*
X157430000Y-115640000D03*
X159970000Y-115640000D03*
X162510000Y-115640000D03*
X165050000Y-115640000D03*
X167590000Y-115640000D03*
X170130000Y-115640000D03*
X172670000Y-115640000D03*
X175210000Y-115640000D03*
X177750000Y-115640000D03*
D16*
X168930000Y-84590000D03*
X158770000Y-84590000D03*
D17*
X163850000Y-84590000D03*
D18*
X166390000Y-79510000D03*
X160040000Y-82050000D03*
X139520000Y-82040000D03*
X145870000Y-79500000D03*
D17*
X143330000Y-84580000D03*
D16*
X138250000Y-84580000D03*
X148410000Y-84580000D03*
D13*
X170660000Y-133710000D03*
X168120000Y-133710000D03*
D12*
X165580000Y-133710000D03*
X162050000Y-40160000D03*
D13*
X159510000Y-40160000D03*
X156970000Y-40160000D03*
X154430000Y-40160000D03*
X151890000Y-40160000D03*
X149350000Y-40160000D03*
D12*
X177230000Y-120880000D03*
D13*
X177230000Y-123420000D03*
X177230000Y-125960000D03*
M02*
