G04 #@! TF.GenerationSoftware,KiCad,Pcbnew,7.0.1*
G04 #@! TF.CreationDate,2023-12-15T11:31:03-05:00*
G04 #@! TF.ProjectId,strum,73747275-6d2e-46b6-9963-61645f706362,rev?*
G04 #@! TF.SameCoordinates,Original*
G04 #@! TF.FileFunction,Copper,L2,Bot*
G04 #@! TF.FilePolarity,Positive*
%FSLAX46Y46*%
G04 Gerber Fmt 4.6, Leading zero omitted, Abs format (unit mm)*
G04 Created by KiCad (PCBNEW 7.0.1) date 2023-12-15 11:31:03*
%MOMM*%
%LPD*%
G01*
G04 APERTURE LIST*
G04 #@! TA.AperFunction,ComponentPad*
%ADD10R,1.700000X1.700000*%
G04 #@! TD*
G04 #@! TA.AperFunction,ComponentPad*
%ADD11O,1.700000X1.700000*%
G04 #@! TD*
G04 #@! TA.AperFunction,ComponentPad*
%ADD12O,1.500000X2.500000*%
G04 #@! TD*
G04 #@! TA.AperFunction,ComponentPad*
%ADD13O,2.500000X1.500000*%
G04 #@! TD*
G04 #@! TA.AperFunction,ComponentPad*
%ADD14C,2.500000*%
G04 #@! TD*
G04 #@! TA.AperFunction,ViaPad*
%ADD15C,0.800000*%
G04 #@! TD*
G04 #@! TA.AperFunction,Conductor*
%ADD16C,0.250000*%
G04 #@! TD*
G04 APERTURE END LIST*
D10*
X131430000Y-40360000D03*
D11*
X133970000Y-40360000D03*
X136510000Y-40360000D03*
X139050000Y-40360000D03*
D10*
X130500000Y-101030000D03*
D11*
X130500000Y-103570000D03*
X130500000Y-106110000D03*
X130500000Y-108650000D03*
X130500000Y-111190000D03*
X130500000Y-113730000D03*
D12*
X177750000Y-99400000D03*
X175210000Y-99400000D03*
X172670000Y-99400000D03*
X170130000Y-99400000D03*
X167590000Y-99400000D03*
X165050000Y-99400000D03*
X162510000Y-99400000D03*
X159970000Y-99400000D03*
X157430000Y-99400000D03*
D13*
X156930000Y-102440000D03*
X156930000Y-104980000D03*
X156930000Y-107520000D03*
X156930000Y-110060000D03*
X156930000Y-112600000D03*
D12*
X157430000Y-115640000D03*
X159970000Y-115640000D03*
X162510000Y-115640000D03*
X165050000Y-115640000D03*
X167590000Y-115640000D03*
X170130000Y-115640000D03*
X172670000Y-115640000D03*
X175210000Y-115640000D03*
X177750000Y-115640000D03*
D14*
X166390000Y-79510000D03*
X160040000Y-82050000D03*
X139520000Y-82040000D03*
X145870000Y-79500000D03*
D11*
X170660000Y-133710000D03*
X168120000Y-133710000D03*
D10*
X165580000Y-133710000D03*
X162050000Y-40160000D03*
D11*
X159510000Y-40160000D03*
X156970000Y-40160000D03*
X154430000Y-40160000D03*
X151890000Y-40160000D03*
X149350000Y-40160000D03*
D10*
X177230000Y-120880000D03*
D11*
X177230000Y-123420000D03*
X177230000Y-125960000D03*
D15*
X132910000Y-60280000D03*
X145730000Y-102180000D03*
X151230000Y-104140000D03*
X147240000Y-95890000D03*
X148342299Y-93667701D03*
X143780000Y-104950000D03*
X151100000Y-107330000D03*
X152954500Y-103430000D03*
X150920000Y-103110000D03*
X165990000Y-117700000D03*
X151360000Y-105770000D03*
X152954500Y-105860000D03*
X173180000Y-125235500D03*
X150724500Y-109940000D03*
X150724500Y-99860000D03*
X150960000Y-97310000D03*
D16*
X132910000Y-83170000D02*
X132910000Y-60280000D01*
X145630000Y-95890000D02*
X132910000Y-83170000D01*
X147240000Y-95890000D02*
X145630000Y-95890000D01*
X148406396Y-102180000D02*
X145730000Y-102180000D01*
X151230000Y-104140000D02*
X150366396Y-104140000D01*
X150366396Y-104140000D02*
X148406396Y-102180000D01*
X133970000Y-70910000D02*
X133970000Y-40360000D01*
X145910000Y-82850000D02*
X133970000Y-70910000D01*
X151770000Y-82850000D02*
X145910000Y-82850000D01*
X151770000Y-90240000D02*
X151770000Y-82850000D01*
X148342299Y-93667701D02*
X151770000Y-90240000D01*
X148720000Y-104950000D02*
X143780000Y-104950000D01*
X151100000Y-107330000D02*
X148720000Y-104950000D01*
X145880000Y-79510000D02*
X145870000Y-79500000D01*
X166390000Y-79510000D02*
X145880000Y-79510000D01*
X157469720Y-117700000D02*
X165990000Y-117700000D01*
X153610000Y-113840280D02*
X157469720Y-117700000D01*
X153610000Y-112990000D02*
X153610000Y-113840280D01*
X153679500Y-112920500D02*
X153610000Y-112990000D01*
X152954500Y-103430000D02*
X153679500Y-104155000D01*
X153679500Y-104155000D02*
X153679500Y-112920500D01*
X148840000Y-101030000D02*
X150920000Y-103110000D01*
X130500000Y-101030000D02*
X148840000Y-101030000D01*
X149160000Y-103570000D02*
X130500000Y-103570000D01*
X151360000Y-105770000D02*
X149160000Y-103570000D01*
X156110000Y-118140000D02*
X152954500Y-114984500D01*
X152954500Y-114984500D02*
X152954500Y-105860000D01*
X158370000Y-120400000D02*
X156110000Y-118140000D01*
X167590000Y-117370000D02*
X164560000Y-120400000D01*
X164560000Y-120400000D02*
X158370000Y-120400000D01*
X167590000Y-115140000D02*
X167590000Y-117370000D01*
X173045500Y-125370000D02*
X173180000Y-125235500D01*
X161930000Y-125370000D02*
X173045500Y-125370000D01*
X151780000Y-109970195D02*
X151780000Y-115220000D01*
X151780000Y-115220000D02*
X161930000Y-125370000D01*
X147919805Y-106110000D02*
X151780000Y-109970195D01*
X130500000Y-106110000D02*
X147919805Y-106110000D01*
X149434500Y-108650000D02*
X150724500Y-109940000D01*
X130500000Y-108650000D02*
X149434500Y-108650000D01*
X130500000Y-122260000D02*
X130500000Y-113730000D01*
X134200000Y-125960000D02*
X130500000Y-122260000D01*
X177230000Y-125960000D02*
X134200000Y-125960000D01*
X160040000Y-83270000D02*
X160040000Y-82050000D01*
X160470000Y-83700000D02*
X160040000Y-83270000D01*
X160470000Y-87030000D02*
X160470000Y-83700000D01*
X151685000Y-95815000D02*
X160470000Y-87030000D01*
X150724500Y-99860000D02*
X151685000Y-98899500D01*
X151685000Y-98899500D02*
X151685000Y-95815000D01*
X150960000Y-97310000D02*
X140250000Y-86600000D01*
X140250000Y-82770000D02*
X139520000Y-82040000D01*
X140250000Y-86600000D02*
X140250000Y-82770000D01*
X165110000Y-99840000D02*
X165050000Y-99900000D01*
X165110000Y-96350000D02*
X165110000Y-99840000D01*
X164920000Y-96160000D02*
X165110000Y-96350000D01*
X152230000Y-96160000D02*
X164920000Y-96160000D01*
X152230000Y-115010000D02*
X152230000Y-96160000D01*
X162140000Y-124920000D02*
X152230000Y-115010000D01*
X172260000Y-124920000D02*
X162140000Y-124920000D01*
X173760000Y-123420000D02*
X172260000Y-124920000D01*
X177230000Y-123420000D02*
X173760000Y-123420000D01*
G04 #@! TA.AperFunction,NonConductor*
G36*
X145465530Y-83290677D02*
G01*
X145473220Y-83297898D01*
X145476019Y-83300610D01*
X145495529Y-83320120D01*
X145498711Y-83322588D01*
X145507571Y-83330155D01*
X145539418Y-83360062D01*
X145556972Y-83369712D01*
X145573236Y-83380396D01*
X145584972Y-83389499D01*
X145589064Y-83392673D01*
X145603803Y-83399051D01*
X145629152Y-83410021D01*
X145639631Y-83415154D01*
X145677908Y-83436197D01*
X145697306Y-83441177D01*
X145715708Y-83447477D01*
X145734104Y-83455438D01*
X145777261Y-83462273D01*
X145788664Y-83464634D01*
X145830981Y-83475500D01*
X145851016Y-83475500D01*
X145870413Y-83477026D01*
X145890196Y-83480160D01*
X145933674Y-83476050D01*
X145945344Y-83475500D01*
X147635482Y-83475500D01*
X147694390Y-83490386D01*
X147739154Y-83531470D01*
X147759027Y-83588889D01*
X147749237Y-83648854D01*
X147712134Y-83696970D01*
X147629784Y-83761730D01*
X147489022Y-83924177D01*
X147381552Y-84110321D01*
X147311249Y-84313445D01*
X147280661Y-84526201D01*
X147280661Y-84526203D01*
X147286309Y-84644766D01*
X147290888Y-84740904D01*
X147341564Y-84949794D01*
X147430852Y-85145309D01*
X147525279Y-85277912D01*
X147555534Y-85320399D01*
X147711097Y-85468727D01*
X147785083Y-85516275D01*
X147891917Y-85584934D01*
X147916896Y-85594934D01*
X148091468Y-85664822D01*
X148302528Y-85705500D01*
X148463613Y-85705500D01*
X148463618Y-85705500D01*
X148623971Y-85690188D01*
X148830209Y-85629631D01*
X149021259Y-85531138D01*
X149190217Y-85398268D01*
X149330976Y-85235824D01*
X149438448Y-85049677D01*
X149508750Y-84846554D01*
X149539339Y-84633797D01*
X149529112Y-84419096D01*
X149478437Y-84210210D01*
X149472220Y-84196597D01*
X149389147Y-84014690D01*
X149264467Y-83839603D01*
X149264466Y-83839601D01*
X149108903Y-83691273D01*
X149106774Y-83689243D01*
X149075164Y-83640057D01*
X149069606Y-83581853D01*
X149091337Y-83527573D01*
X149135524Y-83489284D01*
X149192344Y-83475500D01*
X151020500Y-83475500D01*
X151082500Y-83492113D01*
X151127887Y-83537500D01*
X151144500Y-83599500D01*
X151144500Y-89929547D01*
X151135061Y-89977000D01*
X151108181Y-90017228D01*
X148394527Y-92730882D01*
X148354299Y-92757762D01*
X148306846Y-92767201D01*
X148247651Y-92767201D01*
X148062496Y-92806556D01*
X147889568Y-92883549D01*
X147736427Y-92994812D01*
X147725770Y-93006648D01*
X147669874Y-93042254D01*
X147603624Y-93043987D01*
X147545943Y-93011352D01*
X140911819Y-86377228D01*
X140884939Y-86337000D01*
X140875500Y-86289547D01*
X140875500Y-85043661D01*
X140889778Y-84985894D01*
X140929323Y-84941430D01*
X140985028Y-84920508D01*
X141044067Y-84927947D01*
X141092842Y-84962032D01*
X141120122Y-85014915D01*
X141175731Y-85248262D01*
X141284021Y-85529432D01*
X141428824Y-85793664D01*
X141428825Y-85793665D01*
X141607554Y-86036238D01*
X141817020Y-86252824D01*
X142053485Y-86439558D01*
X142312730Y-86593109D01*
X142590128Y-86710736D01*
X142590129Y-86710736D01*
X142590131Y-86710737D01*
X142622293Y-86719547D01*
X142880729Y-86790340D01*
X143179347Y-86830500D01*
X143405244Y-86830500D01*
X143405246Y-86830500D01*
X143630635Y-86815412D01*
X143753994Y-86790338D01*
X143925903Y-86755396D01*
X144210537Y-86656560D01*
X144479459Y-86520668D01*
X144727869Y-86350144D01*
X144951333Y-86148032D01*
X145145865Y-85917939D01*
X145307993Y-85663970D01*
X145434823Y-85390658D01*
X145524093Y-85102879D01*
X145574209Y-84805770D01*
X145584277Y-84504631D01*
X145554118Y-84204838D01*
X145484269Y-83911739D01*
X145383021Y-83648854D01*
X145375978Y-83630568D01*
X145349442Y-83582146D01*
X145271906Y-83440660D01*
X145256902Y-83373153D01*
X145280389Y-83308106D01*
X145335061Y-83265755D01*
X145403914Y-83259273D01*
X145465530Y-83290677D01*
G37*
G04 #@! TD.AperFunction*
G04 #@! TA.AperFunction,NonConductor*
G36*
X133697818Y-71541521D02*
G01*
X133747181Y-71571771D01*
X144620257Y-82444848D01*
X144650906Y-82495461D01*
X144654611Y-82554515D01*
X144630530Y-82608562D01*
X144584145Y-82645297D01*
X144526018Y-82656355D01*
X144469384Y-82639219D01*
X144372034Y-82581559D01*
X144347270Y-82566891D01*
X144093455Y-82459264D01*
X144069868Y-82449262D01*
X143779275Y-82369661D01*
X143779274Y-82369660D01*
X143779271Y-82369660D01*
X143480653Y-82329500D01*
X143254756Y-82329500D01*
X143254754Y-82329500D01*
X143029364Y-82344587D01*
X142734098Y-82404603D01*
X142449459Y-82503441D01*
X142180546Y-82639328D01*
X141932127Y-82809858D01*
X141708668Y-83011966D01*
X141514135Y-83242061D01*
X141352005Y-83496032D01*
X141225178Y-83769339D01*
X141174045Y-83934177D01*
X141135907Y-84057121D01*
X141125247Y-84120321D01*
X141121773Y-84140916D01*
X141097242Y-84196597D01*
X141049177Y-84233905D01*
X140989152Y-84243858D01*
X140931618Y-84224060D01*
X140890428Y-84179277D01*
X140875500Y-84120291D01*
X140875500Y-83191230D01*
X140882459Y-83150275D01*
X140902553Y-83113917D01*
X140962411Y-83038857D01*
X140970386Y-83028857D01*
X141101568Y-82801643D01*
X141197420Y-82557416D01*
X141255802Y-82301630D01*
X141275408Y-82040000D01*
X141255802Y-81778370D01*
X141197420Y-81522584D01*
X141101568Y-81278357D01*
X140970386Y-81051143D01*
X140806805Y-80846019D01*
X140806801Y-80846015D01*
X140614485Y-80667571D01*
X140597170Y-80655766D01*
X140397704Y-80519772D01*
X140161323Y-80405937D01*
X139910615Y-80328604D01*
X139651182Y-80289500D01*
X139388818Y-80289500D01*
X139129385Y-80328604D01*
X138878677Y-80405937D01*
X138685729Y-80498856D01*
X138642296Y-80519772D01*
X138627629Y-80529772D01*
X138425514Y-80667571D01*
X138233198Y-80846015D01*
X138069613Y-81051143D01*
X137938431Y-81278358D01*
X137842580Y-81522581D01*
X137784197Y-81778372D01*
X137764591Y-82039999D01*
X137784197Y-82301627D01*
X137842580Y-82557418D01*
X137911045Y-82731862D01*
X137938432Y-82801643D01*
X137971863Y-82859547D01*
X138065636Y-83021968D01*
X138069614Y-83028857D01*
X138213552Y-83209350D01*
X138233196Y-83233982D01*
X138242572Y-83242682D01*
X138274144Y-83289537D01*
X138281651Y-83345535D01*
X138263535Y-83399051D01*
X138223557Y-83438975D01*
X138170016Y-83457017D01*
X138036031Y-83469811D01*
X137829792Y-83530368D01*
X137638742Y-83628861D01*
X137613319Y-83648854D01*
X137482927Y-83751396D01*
X137469782Y-83761733D01*
X137329022Y-83924177D01*
X137221552Y-84110321D01*
X137151249Y-84313445D01*
X137120661Y-84526201D01*
X137120661Y-84526203D01*
X137126309Y-84644766D01*
X137130888Y-84740904D01*
X137181564Y-84949794D01*
X137270852Y-85145309D01*
X137365279Y-85277912D01*
X137395534Y-85320399D01*
X137551097Y-85468727D01*
X137625083Y-85516275D01*
X137731917Y-85584934D01*
X137756896Y-85594934D01*
X137931468Y-85664822D01*
X138142528Y-85705500D01*
X138303613Y-85705500D01*
X138303618Y-85705500D01*
X138463971Y-85690188D01*
X138670209Y-85629631D01*
X138861259Y-85531138D01*
X139030217Y-85398268D01*
X139170976Y-85235824D01*
X139278448Y-85049677D01*
X139348750Y-84846554D01*
X139375225Y-84662412D01*
X139377762Y-84644766D01*
X139389230Y-84617077D01*
X139376640Y-84577145D01*
X139374690Y-84536201D01*
X139369112Y-84419096D01*
X139318437Y-84210210D01*
X139312220Y-84196597D01*
X139229148Y-84014693D01*
X139200664Y-83974693D01*
X139179081Y-83921413D01*
X139183845Y-83864126D01*
X139213930Y-83815143D01*
X139262872Y-83784991D01*
X139320152Y-83780150D01*
X139388818Y-83790500D01*
X139500500Y-83790500D01*
X139562500Y-83807113D01*
X139607887Y-83852500D01*
X139624500Y-83914500D01*
X139624500Y-84571245D01*
X139612675Y-84616085D01*
X139624500Y-84662412D01*
X139624500Y-86517256D01*
X139622235Y-86537762D01*
X139624439Y-86607873D01*
X139624500Y-86611768D01*
X139624500Y-86639349D01*
X139625003Y-86643334D01*
X139625918Y-86654967D01*
X139627290Y-86698626D01*
X139632879Y-86717860D01*
X139636825Y-86736916D01*
X139639335Y-86756792D01*
X139655414Y-86797404D01*
X139659197Y-86808451D01*
X139671382Y-86850391D01*
X139681580Y-86867635D01*
X139690136Y-86885100D01*
X139697514Y-86903732D01*
X139697515Y-86903733D01*
X139723180Y-86939059D01*
X139729593Y-86948822D01*
X139751826Y-86986416D01*
X139751829Y-86986419D01*
X139751830Y-86986420D01*
X139765995Y-87000585D01*
X139778627Y-87015375D01*
X139790406Y-87031587D01*
X139824058Y-87059426D01*
X139832699Y-87067289D01*
X147572344Y-94806935D01*
X147604095Y-94861270D01*
X147605084Y-94924194D01*
X147575055Y-94979500D01*
X147521745Y-95012942D01*
X147458883Y-95015906D01*
X147334649Y-94989500D01*
X147334646Y-94989500D01*
X147145354Y-94989500D01*
X147145352Y-94989500D01*
X146960197Y-95028855D01*
X146787272Y-95105847D01*
X146685176Y-95180024D01*
X146634129Y-95217112D01*
X146628401Y-95223473D01*
X146586688Y-95253780D01*
X146536253Y-95264500D01*
X145940453Y-95264500D01*
X145893000Y-95255061D01*
X145852772Y-95228181D01*
X133571819Y-82947228D01*
X133544939Y-82907000D01*
X133535500Y-82859547D01*
X133535500Y-71659452D01*
X133549015Y-71603157D01*
X133586615Y-71559134D01*
X133640102Y-71536979D01*
X133697818Y-71541521D01*
G37*
G04 #@! TD.AperFunction*
G04 #@! TA.AperFunction,NonConductor*
G36*
X159551901Y-80155003D02*
G01*
X159597658Y-80207376D01*
X159608024Y-80276145D01*
X159579737Y-80339678D01*
X159521696Y-80377990D01*
X159398677Y-80415937D01*
X159162296Y-80529772D01*
X159092922Y-80577070D01*
X158945514Y-80677571D01*
X158753198Y-80856015D01*
X158589613Y-81061143D01*
X158458431Y-81288358D01*
X158362580Y-81532581D01*
X158304197Y-81788372D01*
X158284591Y-82049999D01*
X158304197Y-82311627D01*
X158362580Y-82567418D01*
X158458431Y-82811641D01*
X158589613Y-83038856D01*
X158665297Y-83133761D01*
X158711127Y-83191230D01*
X158753196Y-83243982D01*
X158762572Y-83252682D01*
X158794144Y-83299537D01*
X158801651Y-83355535D01*
X158783535Y-83409051D01*
X158743557Y-83448975D01*
X158690016Y-83467017D01*
X158556031Y-83479811D01*
X158349792Y-83540368D01*
X158158742Y-83638861D01*
X158146035Y-83648854D01*
X157993189Y-83769054D01*
X157989782Y-83771733D01*
X157849022Y-83934177D01*
X157741552Y-84120321D01*
X157671249Y-84323445D01*
X157640661Y-84536201D01*
X157650888Y-84750904D01*
X157701564Y-84959794D01*
X157790852Y-85155309D01*
X157878158Y-85277912D01*
X157915534Y-85330399D01*
X158071097Y-85478727D01*
X158145083Y-85526275D01*
X158251917Y-85594934D01*
X158291962Y-85610965D01*
X158451468Y-85674822D01*
X158662528Y-85715500D01*
X158823613Y-85715500D01*
X158823618Y-85715500D01*
X158983971Y-85700188D01*
X159190209Y-85639631D01*
X159381259Y-85541138D01*
X159550217Y-85408268D01*
X159626788Y-85319899D01*
X159675512Y-85285553D01*
X159734635Y-85277912D01*
X159790491Y-85298745D01*
X159830170Y-85343237D01*
X159844500Y-85401104D01*
X159844500Y-86719547D01*
X159835061Y-86767000D01*
X159808181Y-86807228D01*
X151301208Y-95314199D01*
X151285110Y-95327096D01*
X151237096Y-95378225D01*
X151234391Y-95381017D01*
X151214874Y-95400534D01*
X151212415Y-95403705D01*
X151204842Y-95412572D01*
X151174935Y-95444420D01*
X151165285Y-95461974D01*
X151154609Y-95478228D01*
X151142326Y-95494063D01*
X151124975Y-95534158D01*
X151119838Y-95544644D01*
X151098802Y-95582907D01*
X151093821Y-95602309D01*
X151087520Y-95620711D01*
X151079561Y-95639102D01*
X151072728Y-95682242D01*
X151070360Y-95693674D01*
X151059500Y-95735978D01*
X151059500Y-95756016D01*
X151057973Y-95775415D01*
X151054840Y-95795194D01*
X151058950Y-95838675D01*
X151059500Y-95850344D01*
X151059500Y-96225547D01*
X151045985Y-96281842D01*
X151008385Y-96325865D01*
X150954898Y-96348020D01*
X150897182Y-96343478D01*
X150847819Y-96313228D01*
X148996794Y-94462203D01*
X148965278Y-94408701D01*
X148963653Y-94346628D01*
X148992323Y-94291551D01*
X149074832Y-94199917D01*
X149169478Y-94035985D01*
X149227973Y-93855957D01*
X149245620Y-93688045D01*
X149257020Y-93647626D01*
X149281257Y-93613331D01*
X152153789Y-90740800D01*
X152169885Y-90727906D01*
X152171873Y-90725787D01*
X152171877Y-90725786D01*
X152217948Y-90676723D01*
X152220566Y-90674023D01*
X152240120Y-90654471D01*
X152242581Y-90651298D01*
X152250156Y-90642427D01*
X152280062Y-90610582D01*
X152289717Y-90593018D01*
X152300394Y-90576764D01*
X152312673Y-90560936D01*
X152330018Y-90520852D01*
X152335160Y-90510356D01*
X152356197Y-90472092D01*
X152361179Y-90452684D01*
X152367481Y-90434280D01*
X152375437Y-90415896D01*
X152382269Y-90372752D01*
X152384633Y-90361338D01*
X152395500Y-90319019D01*
X152395500Y-90298984D01*
X152397027Y-90279585D01*
X152397068Y-90279321D01*
X152400160Y-90259804D01*
X152396050Y-90216325D01*
X152395500Y-90204656D01*
X152395500Y-82920849D01*
X152397696Y-82897615D01*
X152399227Y-82889587D01*
X152395745Y-82834241D01*
X152395500Y-82826455D01*
X152395500Y-82810650D01*
X152394362Y-82801643D01*
X152393517Y-82794957D01*
X152392789Y-82787266D01*
X152389304Y-82731862D01*
X152386777Y-82724086D01*
X152381688Y-82701317D01*
X152380664Y-82693208D01*
X152360233Y-82641606D01*
X152357608Y-82634315D01*
X152340467Y-82581559D01*
X152336087Y-82574657D01*
X152325495Y-82553869D01*
X152322486Y-82546268D01*
X152289870Y-82501377D01*
X152285503Y-82494949D01*
X152255786Y-82448123D01*
X152249833Y-82442533D01*
X152234396Y-82425023D01*
X152229593Y-82418412D01*
X152186861Y-82383061D01*
X152181018Y-82377910D01*
X152140582Y-82339938D01*
X152133415Y-82335998D01*
X152114113Y-82322879D01*
X152107824Y-82317676D01*
X152073718Y-82301627D01*
X152057633Y-82294058D01*
X152050700Y-82290525D01*
X152002093Y-82263803D01*
X151998813Y-82262961D01*
X151994173Y-82261769D01*
X151972223Y-82253866D01*
X151964826Y-82250386D01*
X151964824Y-82250385D01*
X151910356Y-82239994D01*
X151902759Y-82238296D01*
X151849021Y-82224500D01*
X151849019Y-82224500D01*
X151840849Y-82224500D01*
X151817615Y-82222304D01*
X151809587Y-82220772D01*
X151754241Y-82224255D01*
X151746455Y-82224500D01*
X146220452Y-82224500D01*
X146172999Y-82215061D01*
X146132771Y-82188181D01*
X145365050Y-81420460D01*
X145333706Y-81367552D01*
X145331637Y-81306091D01*
X145359350Y-81251194D01*
X145410030Y-81216363D01*
X145471213Y-81210164D01*
X145479383Y-81211395D01*
X145479385Y-81211396D01*
X145738818Y-81250500D01*
X146001182Y-81250500D01*
X146260615Y-81211396D01*
X146511323Y-81134063D01*
X146747704Y-81020228D01*
X146964479Y-80872433D01*
X146964482Y-80872429D01*
X146964485Y-80872428D01*
X147146024Y-80703984D01*
X147156805Y-80693981D01*
X147320386Y-80488857D01*
X147451568Y-80261643D01*
X147470188Y-80214198D01*
X147496849Y-80172919D01*
X147537451Y-80145237D01*
X147585617Y-80135500D01*
X159485146Y-80135500D01*
X159551901Y-80155003D01*
G37*
G04 #@! TD.AperFunction*
G04 #@! TA.AperFunction,NonConductor*
G36*
X144839202Y-101669015D02*
G01*
X144883225Y-101706615D01*
X144905380Y-101760102D01*
X144900838Y-101817818D01*
X144844326Y-101991742D01*
X144825257Y-102173181D01*
X144824540Y-102180000D01*
X144830588Y-102237545D01*
X144844326Y-102368257D01*
X144902820Y-102548284D01*
X144997466Y-102712215D01*
X145020257Y-102737527D01*
X145047540Y-102787153D01*
X145049912Y-102843735D01*
X145026878Y-102895470D01*
X144983243Y-102931568D01*
X144928108Y-102944500D01*
X131775226Y-102944500D01*
X131717969Y-102930489D01*
X131673651Y-102891623D01*
X131640120Y-102843735D01*
X131538495Y-102698599D01*
X131416569Y-102576673D01*
X131385273Y-102523927D01*
X131383084Y-102462634D01*
X131410537Y-102407789D01*
X131460916Y-102372810D01*
X131592331Y-102323796D01*
X131707546Y-102237546D01*
X131793796Y-102122331D01*
X131844091Y-101987483D01*
X131850500Y-101927873D01*
X131850500Y-101779500D01*
X131867113Y-101717500D01*
X131912500Y-101672113D01*
X131974500Y-101655500D01*
X144782907Y-101655500D01*
X144839202Y-101669015D01*
G37*
G04 #@! TD.AperFunction*
G04 #@! TA.AperFunction,NonConductor*
G36*
X158271795Y-103457791D02*
G01*
X158321227Y-103503486D01*
X158339500Y-103568276D01*
X158339500Y-103848170D01*
X158322655Y-103910571D01*
X158276695Y-103956018D01*
X158214109Y-103972162D01*
X158151901Y-103954618D01*
X157974764Y-103848784D01*
X157915898Y-103826692D01*
X157868318Y-103794668D01*
X157840238Y-103744659D01*
X157837665Y-103687363D01*
X157861150Y-103635038D01*
X157905662Y-103598882D01*
X158073973Y-103517829D01*
X158142614Y-103467958D01*
X158205771Y-103444658D01*
X158271795Y-103457791D01*
G37*
G04 #@! TD.AperFunction*
G04 #@! TA.AperFunction,NonConductor*
G36*
X143024238Y-104208432D02*
G01*
X143067872Y-104244529D01*
X143090906Y-104296264D01*
X143088535Y-104352845D01*
X143061254Y-104402471D01*
X143047466Y-104417783D01*
X142952820Y-104581715D01*
X142894326Y-104761742D01*
X142889100Y-104811463D01*
X142874540Y-104950000D01*
X142875636Y-104960425D01*
X142894326Y-105138257D01*
X142954087Y-105322182D01*
X142958629Y-105379898D01*
X142936474Y-105433386D01*
X142892451Y-105470985D01*
X142836156Y-105484500D01*
X131775226Y-105484500D01*
X131717969Y-105470489D01*
X131673651Y-105431623D01*
X131637433Y-105379898D01*
X131538495Y-105238599D01*
X131371401Y-105071505D01*
X131185839Y-104941573D01*
X131146975Y-104897257D01*
X131132964Y-104840000D01*
X131146975Y-104782743D01*
X131185839Y-104738426D01*
X131371401Y-104608495D01*
X131538495Y-104441401D01*
X131673653Y-104248374D01*
X131717970Y-104209511D01*
X131775227Y-104195500D01*
X142969103Y-104195500D01*
X143024238Y-104208432D01*
G37*
G04 #@! TD.AperFunction*
G04 #@! TA.AperFunction,NonConductor*
G36*
X158271795Y-105997791D02*
G01*
X158321227Y-106043486D01*
X158339500Y-106108276D01*
X158339500Y-106388170D01*
X158322655Y-106450571D01*
X158276695Y-106496018D01*
X158214109Y-106512162D01*
X158151901Y-106494618D01*
X157974764Y-106388784D01*
X157915898Y-106366692D01*
X157868318Y-106334668D01*
X157840238Y-106284659D01*
X157837665Y-106227363D01*
X157861150Y-106175038D01*
X157905662Y-106138882D01*
X158073973Y-106057829D01*
X158142614Y-106007958D01*
X158205771Y-105984658D01*
X158271795Y-105997791D01*
G37*
G04 #@! TD.AperFunction*
G04 #@! TA.AperFunction,NonConductor*
G36*
X147656806Y-106744939D02*
G01*
X147697034Y-106771819D01*
X148738034Y-107812819D01*
X148768284Y-107862182D01*
X148772826Y-107919898D01*
X148750671Y-107973385D01*
X148706648Y-108010985D01*
X148650353Y-108024500D01*
X131775226Y-108024500D01*
X131717969Y-108010489D01*
X131673651Y-107971623D01*
X131637433Y-107919898D01*
X131538495Y-107778599D01*
X131371401Y-107611505D01*
X131185839Y-107481573D01*
X131146975Y-107437257D01*
X131132964Y-107380000D01*
X131146975Y-107322743D01*
X131185839Y-107278426D01*
X131371401Y-107148495D01*
X131538495Y-106981401D01*
X131673653Y-106788374D01*
X131717970Y-106749511D01*
X131775227Y-106735500D01*
X147609353Y-106735500D01*
X147656806Y-106744939D01*
G37*
G04 #@! TD.AperFunction*
G04 #@! TA.AperFunction,NonConductor*
G36*
X151548035Y-108178051D02*
G01*
X151589473Y-108222878D01*
X151604500Y-108282046D01*
X151604500Y-108610742D01*
X151590985Y-108667037D01*
X151553385Y-108711060D01*
X151499898Y-108733215D01*
X151442182Y-108728673D01*
X151392819Y-108698423D01*
X151133670Y-108439274D01*
X151101166Y-108382116D01*
X151102457Y-108316375D01*
X151137180Y-108260537D01*
X151195566Y-108230304D01*
X151379803Y-108191144D01*
X151410380Y-108177529D01*
X151430065Y-108168766D01*
X151490229Y-108158428D01*
X151548035Y-108178051D01*
G37*
G04 #@! TD.AperFunction*
G04 #@! TA.AperFunction,NonConductor*
G36*
X158271795Y-108537791D02*
G01*
X158321227Y-108583486D01*
X158339500Y-108648276D01*
X158339500Y-108928170D01*
X158322655Y-108990571D01*
X158276695Y-109036018D01*
X158214109Y-109052162D01*
X158151901Y-109034618D01*
X157974764Y-108928784D01*
X157915898Y-108906692D01*
X157868318Y-108874668D01*
X157840238Y-108824659D01*
X157837665Y-108767363D01*
X157861150Y-108715038D01*
X157905662Y-108678882D01*
X158073973Y-108597829D01*
X158142614Y-108547958D01*
X158205771Y-108524658D01*
X158271795Y-108537791D01*
G37*
G04 #@! TD.AperFunction*
G04 #@! TA.AperFunction,NonConductor*
G36*
X158271795Y-111077791D02*
G01*
X158321227Y-111123486D01*
X158339500Y-111188276D01*
X158339500Y-111468170D01*
X158322655Y-111530571D01*
X158276695Y-111576018D01*
X158214109Y-111592162D01*
X158151901Y-111574618D01*
X157974764Y-111468784D01*
X157915898Y-111446692D01*
X157868318Y-111414668D01*
X157840238Y-111364659D01*
X157837665Y-111307363D01*
X157861150Y-111255038D01*
X157905662Y-111218882D01*
X158073973Y-111137829D01*
X158142614Y-111087958D01*
X158205771Y-111064658D01*
X158271795Y-111077791D01*
G37*
G04 #@! TD.AperFunction*
G04 #@! TA.AperFunction,NonConductor*
G36*
X164422500Y-96802113D02*
G01*
X164467887Y-96847500D01*
X164484500Y-96909500D01*
X164484500Y-97710161D01*
X164466948Y-97773760D01*
X164419261Y-97819353D01*
X164358319Y-97852148D01*
X164358317Y-97852149D01*
X164358318Y-97852149D01*
X164182335Y-97992490D01*
X164034233Y-98162006D01*
X163918784Y-98355236D01*
X163896692Y-98414101D01*
X163864668Y-98461681D01*
X163814659Y-98489761D01*
X163757363Y-98492333D01*
X163705039Y-98468849D01*
X163668879Y-98424331D01*
X163635605Y-98355237D01*
X163587829Y-98256027D01*
X163455522Y-98073922D01*
X163292825Y-97918368D01*
X163292822Y-97918366D01*
X163292821Y-97918365D01*
X163104968Y-97794365D01*
X162897987Y-97705896D01*
X162678537Y-97655809D01*
X162453671Y-97645709D01*
X162230611Y-97675925D01*
X162016537Y-97745482D01*
X161925698Y-97794365D01*
X161818319Y-97852148D01*
X161818317Y-97852149D01*
X161818318Y-97852149D01*
X161642335Y-97992490D01*
X161494233Y-98162006D01*
X161378784Y-98355236D01*
X161356692Y-98414101D01*
X161324668Y-98461681D01*
X161274659Y-98489761D01*
X161217363Y-98492333D01*
X161165039Y-98468849D01*
X161128879Y-98424331D01*
X161095605Y-98355237D01*
X161047829Y-98256027D01*
X160915522Y-98073922D01*
X160752825Y-97918368D01*
X160752822Y-97918366D01*
X160752821Y-97918365D01*
X160564968Y-97794365D01*
X160357987Y-97705896D01*
X160138537Y-97655809D01*
X159913671Y-97645709D01*
X159690611Y-97675925D01*
X159476537Y-97745482D01*
X159385698Y-97794365D01*
X159278319Y-97852148D01*
X159278317Y-97852149D01*
X159278318Y-97852149D01*
X159102335Y-97992490D01*
X158954233Y-98162006D01*
X158838784Y-98355236D01*
X158816692Y-98414101D01*
X158784668Y-98461681D01*
X158734659Y-98489761D01*
X158677363Y-98492333D01*
X158625039Y-98468849D01*
X158588879Y-98424331D01*
X158555605Y-98355237D01*
X158507829Y-98256027D01*
X158375522Y-98073922D01*
X158212825Y-97918368D01*
X158212822Y-97918366D01*
X158212821Y-97918365D01*
X158024968Y-97794365D01*
X157817987Y-97705896D01*
X157598537Y-97655809D01*
X157373671Y-97645709D01*
X157150611Y-97675925D01*
X156936537Y-97745482D01*
X156845698Y-97794365D01*
X156738319Y-97852148D01*
X156738317Y-97852149D01*
X156738318Y-97852149D01*
X156562335Y-97992490D01*
X156414233Y-98162006D01*
X156298783Y-98355237D01*
X156219693Y-98565974D01*
X156179500Y-98787453D01*
X156179500Y-99956153D01*
X156194623Y-100124190D01*
X156254507Y-100341171D01*
X156352170Y-100543972D01*
X156426451Y-100646211D01*
X156484478Y-100726078D01*
X156647175Y-100881632D01*
X156647177Y-100881633D01*
X156647178Y-100881634D01*
X156768947Y-100962013D01*
X156810867Y-101008710D01*
X156824556Y-101069951D01*
X156806509Y-101130052D01*
X156761346Y-101173621D01*
X156700636Y-101189500D01*
X156373845Y-101189500D01*
X156306631Y-101195549D01*
X156205809Y-101204623D01*
X155988828Y-101264507D01*
X155786027Y-101362170D01*
X155603925Y-101494475D01*
X155603922Y-101494477D01*
X155603922Y-101494478D01*
X155579003Y-101520541D01*
X155448365Y-101657178D01*
X155324365Y-101845031D01*
X155235896Y-102052012D01*
X155185809Y-102271462D01*
X155175709Y-102496328D01*
X155205925Y-102719388D01*
X155263889Y-102897784D01*
X155275483Y-102933464D01*
X155382148Y-103131681D01*
X155522492Y-103307666D01*
X155692004Y-103455765D01*
X155885236Y-103571215D01*
X155944100Y-103593307D01*
X155991680Y-103625330D01*
X156019760Y-103675339D01*
X156022334Y-103732635D01*
X155998849Y-103784960D01*
X155954331Y-103821120D01*
X155786027Y-103902170D01*
X155603925Y-104034475D01*
X155603922Y-104034477D01*
X155603922Y-104034478D01*
X155535665Y-104105869D01*
X155448365Y-104197178D01*
X155324365Y-104385031D01*
X155235896Y-104592012D01*
X155185809Y-104811462D01*
X155175709Y-105036328D01*
X155205925Y-105259388D01*
X155274677Y-105470985D01*
X155275483Y-105473464D01*
X155382148Y-105671681D01*
X155460555Y-105770000D01*
X155487243Y-105803466D01*
X155522492Y-105847666D01*
X155692004Y-105995765D01*
X155885236Y-106111215D01*
X155944100Y-106133307D01*
X155991680Y-106165330D01*
X156019760Y-106215339D01*
X156022334Y-106272635D01*
X155998849Y-106324960D01*
X155954331Y-106361120D01*
X155786027Y-106442170D01*
X155603925Y-106574475D01*
X155448365Y-106737178D01*
X155324365Y-106925031D01*
X155235896Y-107132012D01*
X155185809Y-107351462D01*
X155175709Y-107576328D01*
X155205925Y-107799388D01*
X155274677Y-108010985D01*
X155275483Y-108013464D01*
X155382148Y-108211681D01*
X155522492Y-108387666D01*
X155692004Y-108535765D01*
X155885236Y-108651215D01*
X155927394Y-108667037D01*
X155944100Y-108673307D01*
X155991680Y-108705330D01*
X156019760Y-108755339D01*
X156022334Y-108812635D01*
X155998849Y-108864960D01*
X155954331Y-108901120D01*
X155786027Y-108982170D01*
X155603925Y-109114475D01*
X155448365Y-109277178D01*
X155324365Y-109465031D01*
X155235896Y-109672012D01*
X155185809Y-109891462D01*
X155175709Y-110116328D01*
X155205925Y-110339388D01*
X155262065Y-110512170D01*
X155275483Y-110553464D01*
X155382148Y-110751681D01*
X155522492Y-110927666D01*
X155692004Y-111075765D01*
X155885236Y-111191215D01*
X155944100Y-111213307D01*
X155991680Y-111245330D01*
X156019760Y-111295339D01*
X156022334Y-111352635D01*
X155998849Y-111404960D01*
X155954331Y-111441120D01*
X155786027Y-111522170D01*
X155603925Y-111654475D01*
X155448365Y-111817178D01*
X155324365Y-112005031D01*
X155235896Y-112212012D01*
X155185809Y-112431462D01*
X155175709Y-112656328D01*
X155205925Y-112879388D01*
X155262421Y-113053265D01*
X155275483Y-113093464D01*
X155382148Y-113291681D01*
X155522492Y-113467666D01*
X155692004Y-113615765D01*
X155740099Y-113644500D01*
X155885237Y-113731216D01*
X156003214Y-113775493D01*
X156095976Y-113810307D01*
X156317453Y-113850500D01*
X156695271Y-113850500D01*
X156757913Y-113867486D01*
X156803393Y-113913790D01*
X156819251Y-113976726D01*
X156801143Y-114039053D01*
X156754031Y-114083692D01*
X156746361Y-114087819D01*
X156738320Y-114092147D01*
X156562335Y-114232490D01*
X156414233Y-114402006D01*
X156298783Y-114595237D01*
X156219693Y-114805974D01*
X156179500Y-115027453D01*
X156179500Y-115225827D01*
X156165985Y-115282122D01*
X156128385Y-115326145D01*
X156074898Y-115348300D01*
X156017182Y-115343758D01*
X155967819Y-115313508D01*
X154271819Y-113617508D01*
X154244939Y-113577280D01*
X154235500Y-113529827D01*
X154235500Y-113239357D01*
X154250838Y-113179619D01*
X154265697Y-113152592D01*
X154270675Y-113133199D01*
X154276981Y-113114782D01*
X154278518Y-113111228D01*
X154284938Y-113096396D01*
X154291772Y-113053245D01*
X154294135Y-113041831D01*
X154305000Y-112999519D01*
X154305000Y-112979484D01*
X154306527Y-112960085D01*
X154309660Y-112940304D01*
X154305550Y-112896825D01*
X154305000Y-112885156D01*
X154305000Y-104237744D01*
X154307264Y-104217237D01*
X154306987Y-104208432D01*
X154305061Y-104147127D01*
X154305000Y-104143232D01*
X154305000Y-104115653D01*
X154304896Y-104114832D01*
X154304496Y-104111665D01*
X154303580Y-104100019D01*
X154302209Y-104056373D01*
X154296620Y-104037140D01*
X154292674Y-104018082D01*
X154290164Y-103998206D01*
X154274088Y-103957604D01*
X154270304Y-103946553D01*
X154264381Y-103926168D01*
X154258118Y-103904610D01*
X154247914Y-103887355D01*
X154239361Y-103869895D01*
X154231986Y-103851269D01*
X154231986Y-103851268D01*
X154206308Y-103815925D01*
X154199901Y-103806171D01*
X154177669Y-103768579D01*
X154163506Y-103754416D01*
X154150867Y-103739617D01*
X154139095Y-103723413D01*
X154105441Y-103695573D01*
X154096799Y-103687709D01*
X153893460Y-103484369D01*
X153869220Y-103450071D01*
X153857821Y-103409655D01*
X153840174Y-103241744D01*
X153781679Y-103061716D01*
X153781679Y-103061715D01*
X153687033Y-102897783D01*
X153560370Y-102757110D01*
X153407230Y-102645848D01*
X153234302Y-102568855D01*
X153049148Y-102529500D01*
X153049146Y-102529500D01*
X152979500Y-102529500D01*
X152917500Y-102512887D01*
X152872113Y-102467500D01*
X152855500Y-102405500D01*
X152855500Y-96909500D01*
X152872113Y-96847500D01*
X152917500Y-96802113D01*
X152979500Y-96785500D01*
X164360500Y-96785500D01*
X164422500Y-96802113D01*
G37*
G04 #@! TD.AperFunction*
G04 #@! TA.AperFunction,NonConductor*
G36*
X158774960Y-116571150D02*
G01*
X158811120Y-116615668D01*
X158892170Y-116783972D01*
X158960206Y-116877615D01*
X158983506Y-116940771D01*
X158970373Y-117006795D01*
X158924678Y-117056227D01*
X158859888Y-117074500D01*
X158546893Y-117074500D01*
X158484492Y-117057655D01*
X158439045Y-117011695D01*
X158422901Y-116949109D01*
X158440445Y-116886901D01*
X158561214Y-116684766D01*
X158561216Y-116684762D01*
X158583308Y-116625896D01*
X158615330Y-116578319D01*
X158665339Y-116550239D01*
X158722635Y-116547665D01*
X158774960Y-116571150D01*
G37*
G04 #@! TD.AperFunction*
G04 #@! TA.AperFunction,NonConductor*
G36*
X161314960Y-116571150D02*
G01*
X161351120Y-116615668D01*
X161432170Y-116783972D01*
X161500206Y-116877615D01*
X161523506Y-116940771D01*
X161510373Y-117006795D01*
X161464678Y-117056227D01*
X161399888Y-117074500D01*
X161086893Y-117074500D01*
X161024492Y-117057655D01*
X160979045Y-117011695D01*
X160962901Y-116949109D01*
X160980445Y-116886901D01*
X161101214Y-116684766D01*
X161101216Y-116684762D01*
X161123308Y-116625896D01*
X161155330Y-116578319D01*
X161205339Y-116550239D01*
X161262635Y-116547665D01*
X161314960Y-116571150D01*
G37*
G04 #@! TD.AperFunction*
G04 #@! TA.AperFunction,NonConductor*
G36*
X163854960Y-116571150D02*
G01*
X163891120Y-116615668D01*
X163972170Y-116783972D01*
X164040206Y-116877615D01*
X164063506Y-116940771D01*
X164050373Y-117006795D01*
X164004678Y-117056227D01*
X163939888Y-117074500D01*
X163626893Y-117074500D01*
X163564492Y-117057655D01*
X163519045Y-117011695D01*
X163502901Y-116949109D01*
X163520445Y-116886901D01*
X163641214Y-116684766D01*
X163641216Y-116684762D01*
X163663308Y-116625896D01*
X163695330Y-116578319D01*
X163745339Y-116550239D01*
X163802635Y-116547665D01*
X163854960Y-116571150D01*
G37*
G04 #@! TD.AperFunction*
G04 #@! TA.AperFunction,NonConductor*
G36*
X165336688Y-118336220D02*
G01*
X165378401Y-118366526D01*
X165384129Y-118372888D01*
X165451087Y-118421535D01*
X165486386Y-118461259D01*
X165501815Y-118512120D01*
X165494533Y-118564767D01*
X165465878Y-118609530D01*
X164337228Y-119738181D01*
X164297000Y-119765061D01*
X164249547Y-119774500D01*
X158680452Y-119774500D01*
X158632999Y-119765061D01*
X158592771Y-119738181D01*
X157393983Y-118539392D01*
X157360650Y-118478760D01*
X157364996Y-118409705D01*
X157405666Y-118353729D01*
X157469998Y-118328261D01*
X157481407Y-118327183D01*
X157493400Y-118326050D01*
X157505064Y-118325500D01*
X165286253Y-118325500D01*
X165336688Y-118336220D01*
G37*
G04 #@! TD.AperFunction*
G04 #@! TA.AperFunction,NonConductor*
G36*
X149171501Y-109284939D02*
G01*
X149211729Y-109311819D01*
X149785538Y-109885629D01*
X149809777Y-109919926D01*
X149821178Y-109960348D01*
X149838826Y-110128257D01*
X149897320Y-110308284D01*
X149991966Y-110472216D01*
X150118629Y-110612889D01*
X150271769Y-110724151D01*
X150444697Y-110801144D01*
X150629852Y-110840500D01*
X150629854Y-110840500D01*
X150819146Y-110840500D01*
X150819148Y-110840500D01*
X151004719Y-110801056D01*
X151059447Y-110801772D01*
X151108536Y-110825980D01*
X151142421Y-110868963D01*
X151154500Y-110922346D01*
X151154500Y-115137256D01*
X151152235Y-115157762D01*
X151154439Y-115227873D01*
X151154500Y-115231768D01*
X151154500Y-115259349D01*
X151155003Y-115263334D01*
X151155918Y-115274967D01*
X151157290Y-115318626D01*
X151162879Y-115337860D01*
X151166825Y-115356916D01*
X151169335Y-115376792D01*
X151185414Y-115417404D01*
X151189197Y-115428451D01*
X151201382Y-115470391D01*
X151211580Y-115487635D01*
X151220136Y-115505100D01*
X151227514Y-115523732D01*
X151227515Y-115523733D01*
X151253180Y-115559059D01*
X151259593Y-115568822D01*
X151281826Y-115606416D01*
X151281829Y-115606419D01*
X151281830Y-115606420D01*
X151295995Y-115620585D01*
X151308627Y-115635375D01*
X151320406Y-115651587D01*
X151354058Y-115679426D01*
X151362699Y-115687289D01*
X160798229Y-125122819D01*
X160828479Y-125172182D01*
X160833021Y-125229898D01*
X160810866Y-125283385D01*
X160766843Y-125320985D01*
X160710548Y-125334500D01*
X134510453Y-125334500D01*
X134463000Y-125325061D01*
X134422772Y-125298181D01*
X131294591Y-122170000D01*
X135748845Y-122170000D01*
X135751030Y-122197762D01*
X135768276Y-122416895D01*
X135826091Y-122657712D01*
X135920863Y-122886514D01*
X136029770Y-123064231D01*
X136050266Y-123097678D01*
X136211107Y-123285998D01*
X136399427Y-123446839D01*
X136479661Y-123496006D01*
X136610590Y-123576241D01*
X136839392Y-123671013D01*
X136839395Y-123671013D01*
X136839396Y-123671014D01*
X137080211Y-123728829D01*
X137327105Y-123748260D01*
X137573999Y-123728829D01*
X137814814Y-123671014D01*
X137814815Y-123671013D01*
X137814817Y-123671013D01*
X138043619Y-123576241D01*
X138094314Y-123545174D01*
X138254783Y-123446839D01*
X138443103Y-123285998D01*
X138603944Y-123097678D01*
X138733345Y-122886515D01*
X138733346Y-122886514D01*
X138828118Y-122657712D01*
X138830830Y-122646416D01*
X138885934Y-122416894D01*
X138905365Y-122170000D01*
X138903441Y-122145557D01*
X150580044Y-122145557D01*
X150600072Y-122463894D01*
X150659842Y-122777219D01*
X150758410Y-123080579D01*
X150807355Y-123184592D01*
X150894220Y-123369191D01*
X151065133Y-123638506D01*
X151155929Y-123748260D01*
X151268451Y-123884276D01*
X151500973Y-124102629D01*
X151759023Y-124290113D01*
X152038538Y-124443777D01*
X152038540Y-124443778D01*
X152335111Y-124561199D01*
X152644060Y-124640523D01*
X152907019Y-124673742D01*
X152960514Y-124680501D01*
X152960515Y-124680501D01*
X153279485Y-124680501D01*
X153279486Y-124680501D01*
X153326979Y-124674501D01*
X153595940Y-124640523D01*
X153904889Y-124561199D01*
X154201460Y-124443778D01*
X154480976Y-124290113D01*
X154524927Y-124258181D01*
X154739026Y-124102629D01*
X154799862Y-124045500D01*
X154971548Y-123884277D01*
X155174867Y-123638506D01*
X155345780Y-123369191D01*
X155481590Y-123080578D01*
X155580158Y-122777219D01*
X155639927Y-122463899D01*
X155659955Y-122145558D01*
X155639927Y-121827217D01*
X155580158Y-121513897D01*
X155481590Y-121210538D01*
X155345780Y-120921925D01*
X155174867Y-120652610D01*
X154971548Y-120406839D01*
X154739026Y-120188486D01*
X154480976Y-120001002D01*
X154201461Y-119847338D01*
X153904886Y-119729916D01*
X153595942Y-119650593D01*
X153279486Y-119610615D01*
X153279485Y-119610615D01*
X152960515Y-119610615D01*
X152960514Y-119610615D01*
X152644057Y-119650593D01*
X152335113Y-119729916D01*
X152038538Y-119847338D01*
X151759023Y-120001002D01*
X151500973Y-120188486D01*
X151268451Y-120406839D01*
X151065132Y-120652611D01*
X150894221Y-120921922D01*
X150758410Y-121210536D01*
X150659842Y-121513896D01*
X150600072Y-121827221D01*
X150580044Y-122145557D01*
X138903441Y-122145557D01*
X138885934Y-121923106D01*
X138828119Y-121682291D01*
X138828118Y-121682290D01*
X138828118Y-121682287D01*
X138733346Y-121453485D01*
X138606056Y-121245769D01*
X138603944Y-121242322D01*
X138443103Y-121054002D01*
X138254783Y-120893161D01*
X138200005Y-120859593D01*
X138043619Y-120763758D01*
X137814817Y-120668986D01*
X137574000Y-120611171D01*
X137327105Y-120591740D01*
X137080209Y-120611171D01*
X136839392Y-120668986D01*
X136610590Y-120763758D01*
X136399428Y-120893160D01*
X136211107Y-121054002D01*
X136050265Y-121242323D01*
X135920863Y-121453485D01*
X135826091Y-121682287D01*
X135775478Y-121893106D01*
X135768276Y-121923106D01*
X135748845Y-122170000D01*
X131294591Y-122170000D01*
X131161819Y-122037228D01*
X131134939Y-121997000D01*
X131125500Y-121949547D01*
X131125500Y-115005227D01*
X131139511Y-114947970D01*
X131178374Y-114903653D01*
X131371401Y-114768495D01*
X131538495Y-114601401D01*
X131674035Y-114407830D01*
X131773903Y-114193663D01*
X131835063Y-113965408D01*
X131855659Y-113730000D01*
X131835063Y-113494592D01*
X131773903Y-113266337D01*
X131674035Y-113052171D01*
X131538495Y-112858599D01*
X131371401Y-112691505D01*
X131185839Y-112561573D01*
X131146975Y-112517257D01*
X131132964Y-112460000D01*
X131146975Y-112402743D01*
X131185839Y-112358426D01*
X131371401Y-112228495D01*
X131538495Y-112061401D01*
X131674035Y-111867830D01*
X131773903Y-111653663D01*
X131835063Y-111425408D01*
X131855659Y-111190000D01*
X131835063Y-110954592D01*
X131773903Y-110726337D01*
X131674035Y-110512171D01*
X131538495Y-110318599D01*
X131371401Y-110151505D01*
X131185839Y-110021573D01*
X131146974Y-109977255D01*
X131132964Y-109919999D01*
X131146975Y-109862742D01*
X131185837Y-109818428D01*
X131371401Y-109688495D01*
X131538495Y-109521401D01*
X131673653Y-109328374D01*
X131717970Y-109289511D01*
X131775227Y-109275500D01*
X149124048Y-109275500D01*
X149171501Y-109284939D01*
G37*
G04 #@! TD.AperFunction*
G04 #@! TA.AperFunction,NonConductor*
G36*
X176012030Y-124059511D02*
G01*
X176056346Y-124098374D01*
X176191505Y-124291401D01*
X176358599Y-124458495D01*
X176544160Y-124588426D01*
X176583024Y-124632743D01*
X176597035Y-124690000D01*
X176583024Y-124747257D01*
X176544158Y-124791575D01*
X176436134Y-124867215D01*
X176358595Y-124921508D01*
X176191505Y-125088598D01*
X176056349Y-125281623D01*
X176012031Y-125320489D01*
X175954774Y-125334500D01*
X174207515Y-125334500D01*
X174149300Y-125319985D01*
X174104714Y-125279840D01*
X174084194Y-125223463D01*
X174065674Y-125047244D01*
X174007179Y-124867216D01*
X174007179Y-124867215D01*
X173912533Y-124703283D01*
X173785870Y-124562610D01*
X173738900Y-124528485D01*
X173703596Y-124488756D01*
X173688167Y-124437896D01*
X173695449Y-124385248D01*
X173724104Y-124340486D01*
X173982772Y-124081819D01*
X174023000Y-124054939D01*
X174070453Y-124045500D01*
X175954773Y-124045500D01*
X176012030Y-124059511D01*
G37*
G04 #@! TD.AperFunction*
G04 #@! TA.AperFunction,NonConductor*
G36*
X179195566Y-38160474D02*
G01*
X179257542Y-38177088D01*
X179302917Y-38222458D01*
X179319539Y-38284435D01*
X179323255Y-50055481D01*
X179339433Y-101308785D01*
X179339461Y-101395461D01*
X179322861Y-101457477D01*
X179277472Y-101502881D01*
X179215461Y-101519500D01*
X158364760Y-101519500D01*
X158364554Y-101519459D01*
X158323526Y-101519459D01*
X158279955Y-101511552D01*
X158241941Y-101488839D01*
X158167997Y-101424235D01*
X157974763Y-101308784D01*
X157919611Y-101288085D01*
X157869799Y-101253574D01*
X157842290Y-101199580D01*
X157843652Y-101138997D01*
X157873561Y-101086294D01*
X157914163Y-101060785D01*
X157913636Y-101059805D01*
X157923460Y-101054518D01*
X157923464Y-101054517D01*
X158121681Y-100947852D01*
X158297666Y-100807508D01*
X158445765Y-100637996D01*
X158561215Y-100444764D01*
X158583308Y-100385896D01*
X158615330Y-100338319D01*
X158665339Y-100310239D01*
X158722635Y-100307665D01*
X158774960Y-100331150D01*
X158811120Y-100375668D01*
X158892170Y-100543972D01*
X158966451Y-100646211D01*
X159024478Y-100726078D01*
X159187175Y-100881632D01*
X159375032Y-101005635D01*
X159582012Y-101094103D01*
X159801463Y-101144191D01*
X160006998Y-101153421D01*
X160026328Y-101154290D01*
X160026328Y-101154289D01*
X160026330Y-101154290D01*
X160249387Y-101124075D01*
X160463464Y-101054517D01*
X160661681Y-100947852D01*
X160837666Y-100807508D01*
X160985765Y-100637996D01*
X161101215Y-100444764D01*
X161123308Y-100385896D01*
X161155330Y-100338319D01*
X161205339Y-100310239D01*
X161262635Y-100307665D01*
X161314960Y-100331150D01*
X161351120Y-100375668D01*
X161432170Y-100543972D01*
X161506451Y-100646211D01*
X161564478Y-100726078D01*
X161727175Y-100881632D01*
X161915032Y-101005635D01*
X162122012Y-101094103D01*
X162341463Y-101144191D01*
X162546998Y-101153421D01*
X162566328Y-101154290D01*
X162566328Y-101154289D01*
X162566330Y-101154290D01*
X162789387Y-101124075D01*
X163003464Y-101054517D01*
X163201681Y-100947852D01*
X163377666Y-100807508D01*
X163525765Y-100637996D01*
X163641215Y-100444764D01*
X163663308Y-100385896D01*
X163695330Y-100338319D01*
X163745339Y-100310239D01*
X163802635Y-100307665D01*
X163854960Y-100331150D01*
X163891120Y-100375668D01*
X163972170Y-100543972D01*
X164046451Y-100646211D01*
X164104478Y-100726078D01*
X164267175Y-100881632D01*
X164455032Y-101005635D01*
X164662012Y-101094103D01*
X164881463Y-101144191D01*
X165086998Y-101153421D01*
X165106328Y-101154290D01*
X165106328Y-101154289D01*
X165106330Y-101154290D01*
X165329387Y-101124075D01*
X165543464Y-101054517D01*
X165741681Y-100947852D01*
X165917666Y-100807508D01*
X166065765Y-100637996D01*
X166181215Y-100444764D01*
X166203308Y-100385896D01*
X166235330Y-100338319D01*
X166285339Y-100310239D01*
X166342635Y-100307665D01*
X166394960Y-100331150D01*
X166431120Y-100375668D01*
X166512170Y-100543972D01*
X166586451Y-100646211D01*
X166644478Y-100726078D01*
X166807175Y-100881632D01*
X166995032Y-101005635D01*
X167202012Y-101094103D01*
X167421463Y-101144191D01*
X167626998Y-101153421D01*
X167646328Y-101154290D01*
X167646328Y-101154289D01*
X167646330Y-101154290D01*
X167869387Y-101124075D01*
X168083464Y-101054517D01*
X168281681Y-100947852D01*
X168457666Y-100807508D01*
X168605765Y-100637996D01*
X168721215Y-100444764D01*
X168743308Y-100385896D01*
X168775330Y-100338319D01*
X168825339Y-100310239D01*
X168882635Y-100307665D01*
X168934960Y-100331150D01*
X168971120Y-100375668D01*
X169052170Y-100543972D01*
X169126451Y-100646211D01*
X169184478Y-100726078D01*
X169347175Y-100881632D01*
X169535032Y-101005635D01*
X169742012Y-101094103D01*
X169961463Y-101144191D01*
X170166998Y-101153421D01*
X170186328Y-101154290D01*
X170186328Y-101154289D01*
X170186330Y-101154290D01*
X170409387Y-101124075D01*
X170623464Y-101054517D01*
X170821681Y-100947852D01*
X170997666Y-100807508D01*
X171145765Y-100637996D01*
X171261215Y-100444764D01*
X171283308Y-100385896D01*
X171315330Y-100338319D01*
X171365339Y-100310239D01*
X171422635Y-100307665D01*
X171474960Y-100331150D01*
X171511120Y-100375668D01*
X171592170Y-100543972D01*
X171666451Y-100646211D01*
X171724478Y-100726078D01*
X171887175Y-100881632D01*
X172075032Y-101005635D01*
X172282012Y-101094103D01*
X172501463Y-101144191D01*
X172706998Y-101153421D01*
X172726328Y-101154290D01*
X172726328Y-101154289D01*
X172726330Y-101154290D01*
X172949387Y-101124075D01*
X173163464Y-101054517D01*
X173361681Y-100947852D01*
X173537666Y-100807508D01*
X173685765Y-100637996D01*
X173801215Y-100444764D01*
X173823308Y-100385896D01*
X173855330Y-100338319D01*
X173905339Y-100310239D01*
X173962635Y-100307665D01*
X174014960Y-100331150D01*
X174051120Y-100375668D01*
X174132170Y-100543972D01*
X174206451Y-100646211D01*
X174264478Y-100726078D01*
X174427175Y-100881632D01*
X174615032Y-101005635D01*
X174822012Y-101094103D01*
X175041463Y-101144191D01*
X175246998Y-101153421D01*
X175266328Y-101154290D01*
X175266328Y-101154289D01*
X175266330Y-101154290D01*
X175489387Y-101124075D01*
X175703464Y-101054517D01*
X175901681Y-100947852D01*
X176077666Y-100807508D01*
X176225765Y-100637996D01*
X176341215Y-100444764D01*
X176363308Y-100385896D01*
X176395330Y-100338319D01*
X176445339Y-100310239D01*
X176502635Y-100307665D01*
X176554960Y-100331150D01*
X176591120Y-100375668D01*
X176672170Y-100543972D01*
X176746451Y-100646211D01*
X176804478Y-100726078D01*
X176967175Y-100881632D01*
X177155032Y-101005635D01*
X177362012Y-101094103D01*
X177581463Y-101144191D01*
X177786998Y-101153421D01*
X177806328Y-101154290D01*
X177806328Y-101154289D01*
X177806330Y-101154290D01*
X178029387Y-101124075D01*
X178243464Y-101054517D01*
X178441681Y-100947852D01*
X178617666Y-100807508D01*
X178765765Y-100637996D01*
X178881215Y-100444764D01*
X178883446Y-100438821D01*
X178942864Y-100280500D01*
X178960307Y-100234024D01*
X179000500Y-100012547D01*
X179000500Y-98843845D01*
X178985377Y-98675812D01*
X178925493Y-98458830D01*
X178827829Y-98256027D01*
X178695522Y-98073922D01*
X178532825Y-97918368D01*
X178532822Y-97918366D01*
X178532821Y-97918365D01*
X178344968Y-97794365D01*
X178137987Y-97705896D01*
X177918537Y-97655809D01*
X177693671Y-97645709D01*
X177470611Y-97675925D01*
X177256537Y-97745482D01*
X177165698Y-97794365D01*
X177058319Y-97852148D01*
X177058317Y-97852149D01*
X177058318Y-97852149D01*
X176882335Y-97992490D01*
X176734233Y-98162006D01*
X176618784Y-98355236D01*
X176596692Y-98414101D01*
X176564668Y-98461681D01*
X176514659Y-98489761D01*
X176457363Y-98492333D01*
X176405039Y-98468849D01*
X176368879Y-98424331D01*
X176335605Y-98355237D01*
X176287829Y-98256027D01*
X176155522Y-98073922D01*
X175992825Y-97918368D01*
X175992822Y-97918366D01*
X175992821Y-97918365D01*
X175804968Y-97794365D01*
X175597987Y-97705896D01*
X175378537Y-97655809D01*
X175153671Y-97645709D01*
X174930611Y-97675925D01*
X174716537Y-97745482D01*
X174625698Y-97794365D01*
X174518319Y-97852148D01*
X174518317Y-97852149D01*
X174518318Y-97852149D01*
X174342335Y-97992490D01*
X174194233Y-98162006D01*
X174078784Y-98355236D01*
X174056692Y-98414101D01*
X174024668Y-98461681D01*
X173974659Y-98489761D01*
X173917363Y-98492333D01*
X173865039Y-98468849D01*
X173828879Y-98424331D01*
X173795605Y-98355237D01*
X173747829Y-98256027D01*
X173615522Y-98073922D01*
X173452825Y-97918368D01*
X173452822Y-97918366D01*
X173452821Y-97918365D01*
X173264968Y-97794365D01*
X173057987Y-97705896D01*
X172838537Y-97655809D01*
X172613671Y-97645709D01*
X172390611Y-97675925D01*
X172176537Y-97745482D01*
X172085698Y-97794365D01*
X171978319Y-97852148D01*
X171978317Y-97852149D01*
X171978318Y-97852149D01*
X171802335Y-97992490D01*
X171654233Y-98162006D01*
X171538784Y-98355236D01*
X171516692Y-98414101D01*
X171484668Y-98461681D01*
X171434659Y-98489761D01*
X171377363Y-98492333D01*
X171325039Y-98468849D01*
X171288879Y-98424331D01*
X171255605Y-98355237D01*
X171207829Y-98256027D01*
X171075522Y-98073922D01*
X170912825Y-97918368D01*
X170912822Y-97918366D01*
X170912821Y-97918365D01*
X170724968Y-97794365D01*
X170517987Y-97705896D01*
X170298537Y-97655809D01*
X170073671Y-97645709D01*
X169850611Y-97675925D01*
X169636537Y-97745482D01*
X169545698Y-97794365D01*
X169438319Y-97852148D01*
X169438317Y-97852149D01*
X169438318Y-97852149D01*
X169262335Y-97992490D01*
X169114233Y-98162006D01*
X168998784Y-98355236D01*
X168976692Y-98414101D01*
X168944668Y-98461681D01*
X168894659Y-98489761D01*
X168837363Y-98492333D01*
X168785039Y-98468849D01*
X168748879Y-98424331D01*
X168715605Y-98355237D01*
X168667829Y-98256027D01*
X168535522Y-98073922D01*
X168372825Y-97918368D01*
X168372822Y-97918366D01*
X168372821Y-97918365D01*
X168184968Y-97794365D01*
X167977987Y-97705896D01*
X167758537Y-97655809D01*
X167533671Y-97645709D01*
X167310611Y-97675925D01*
X167096537Y-97745482D01*
X167005698Y-97794365D01*
X166898319Y-97852148D01*
X166898317Y-97852149D01*
X166898318Y-97852149D01*
X166722335Y-97992490D01*
X166574233Y-98162006D01*
X166458784Y-98355236D01*
X166436692Y-98414101D01*
X166404668Y-98461681D01*
X166354659Y-98489761D01*
X166297363Y-98492333D01*
X166245039Y-98468849D01*
X166208879Y-98424331D01*
X166175605Y-98355237D01*
X166127829Y-98256027D01*
X165995522Y-98073922D01*
X165832825Y-97918368D01*
X165791186Y-97890882D01*
X165750306Y-97846157D01*
X165735500Y-97787397D01*
X165735500Y-96432744D01*
X165737764Y-96412236D01*
X165735561Y-96342113D01*
X165735500Y-96338219D01*
X165735500Y-96310654D01*
X165735500Y-96310650D01*
X165734997Y-96306670D01*
X165734081Y-96295028D01*
X165733982Y-96291877D01*
X165732710Y-96251373D01*
X165727118Y-96232126D01*
X165723174Y-96213085D01*
X165720664Y-96193208D01*
X165704579Y-96152583D01*
X165700808Y-96141568D01*
X165688618Y-96099610D01*
X165678414Y-96082355D01*
X165669861Y-96064895D01*
X165662486Y-96046269D01*
X165662486Y-96046268D01*
X165636808Y-96010925D01*
X165630401Y-96001171D01*
X165608169Y-95963579D01*
X165594006Y-95949416D01*
X165581374Y-95934627D01*
X165569594Y-95918413D01*
X165569591Y-95918411D01*
X165569591Y-95918410D01*
X165535947Y-95890578D01*
X165527306Y-95882715D01*
X165420801Y-95776210D01*
X165407905Y-95760112D01*
X165356774Y-95712097D01*
X165353977Y-95709386D01*
X165334470Y-95689879D01*
X165331290Y-95687412D01*
X165322424Y-95679839D01*
X165290582Y-95649938D01*
X165273024Y-95640285D01*
X165256764Y-95629604D01*
X165240936Y-95617327D01*
X165200851Y-95599980D01*
X165190361Y-95594841D01*
X165152091Y-95573802D01*
X165132691Y-95568821D01*
X165114284Y-95562519D01*
X165095897Y-95554562D01*
X165052758Y-95547729D01*
X165041324Y-95545361D01*
X164999019Y-95534500D01*
X164978984Y-95534500D01*
X164959586Y-95532973D01*
X164952162Y-95531797D01*
X164939805Y-95529840D01*
X164939804Y-95529840D01*
X164906751Y-95532964D01*
X164896325Y-95533950D01*
X164884656Y-95534500D01*
X153149452Y-95534500D01*
X153093157Y-95520985D01*
X153049134Y-95483385D01*
X153026979Y-95429898D01*
X153031521Y-95372182D01*
X153061771Y-95322819D01*
X155653708Y-92730882D01*
X160853789Y-87530800D01*
X160869885Y-87517906D01*
X160871873Y-87515787D01*
X160871877Y-87515786D01*
X160917948Y-87466723D01*
X160920566Y-87464023D01*
X160940120Y-87444471D01*
X160942581Y-87441298D01*
X160950156Y-87432427D01*
X160980062Y-87400582D01*
X160989717Y-87383018D01*
X161000394Y-87366764D01*
X161012673Y-87350936D01*
X161030018Y-87310852D01*
X161035160Y-87300356D01*
X161056197Y-87262092D01*
X161061179Y-87242684D01*
X161067481Y-87224280D01*
X161075437Y-87205896D01*
X161082269Y-87162752D01*
X161084633Y-87151338D01*
X161095500Y-87109019D01*
X161095500Y-87088984D01*
X161097027Y-87069585D01*
X161098636Y-87059426D01*
X161100160Y-87049804D01*
X161096050Y-87006325D01*
X161095500Y-86994656D01*
X161095500Y-84665372D01*
X161595723Y-84665372D01*
X161625881Y-84965160D01*
X161695731Y-85258262D01*
X161804021Y-85539432D01*
X161948824Y-85803664D01*
X161948825Y-85803665D01*
X162127554Y-86046238D01*
X162337020Y-86262824D01*
X162573485Y-86449558D01*
X162832730Y-86603109D01*
X163110128Y-86720736D01*
X163110129Y-86720736D01*
X163110131Y-86720737D01*
X163169194Y-86736916D01*
X163400729Y-86800340D01*
X163699347Y-86840500D01*
X163925244Y-86840500D01*
X163925246Y-86840500D01*
X164150635Y-86825412D01*
X164273994Y-86800338D01*
X164445903Y-86765396D01*
X164730537Y-86666560D01*
X164999459Y-86530668D01*
X165247869Y-86360144D01*
X165471333Y-86158032D01*
X165665865Y-85927939D01*
X165827993Y-85673970D01*
X165954823Y-85400658D01*
X166044093Y-85112879D01*
X166094209Y-84815770D01*
X166103556Y-84536201D01*
X167800661Y-84536201D01*
X167810888Y-84750904D01*
X167861564Y-84959794D01*
X167950852Y-85155309D01*
X168038158Y-85277912D01*
X168075534Y-85330399D01*
X168231097Y-85478727D01*
X168305083Y-85526275D01*
X168411917Y-85594934D01*
X168451962Y-85610965D01*
X168611468Y-85674822D01*
X168822528Y-85715500D01*
X168983613Y-85715500D01*
X168983618Y-85715500D01*
X169143971Y-85700188D01*
X169350209Y-85639631D01*
X169541259Y-85541138D01*
X169710217Y-85408268D01*
X169850976Y-85245824D01*
X169958448Y-85059677D01*
X170028750Y-84856554D01*
X170059339Y-84643797D01*
X170049112Y-84429096D01*
X169998437Y-84220210D01*
X169993868Y-84210205D01*
X169909147Y-84024690D01*
X169784467Y-83849603D01*
X169784466Y-83849601D01*
X169628903Y-83701273D01*
X169596053Y-83680161D01*
X169448082Y-83585065D01*
X169282613Y-83518822D01*
X169248532Y-83505178D01*
X169248531Y-83505177D01*
X169248529Y-83505177D01*
X169037472Y-83464500D01*
X168876382Y-83464500D01*
X168779701Y-83473732D01*
X168716026Y-83479812D01*
X168509792Y-83540368D01*
X168318742Y-83638861D01*
X168306035Y-83648854D01*
X168153189Y-83769054D01*
X168149782Y-83771733D01*
X168009022Y-83934177D01*
X167901552Y-84120321D01*
X167831249Y-84323445D01*
X167800661Y-84536201D01*
X166103556Y-84536201D01*
X166104277Y-84514631D01*
X166074118Y-84214838D01*
X166004269Y-83921739D01*
X165953723Y-83790500D01*
X165895978Y-83640567D01*
X165751175Y-83376335D01*
X165711563Y-83322573D01*
X165572446Y-83133762D01*
X165362980Y-82917176D01*
X165328043Y-82889587D01*
X165126514Y-82730441D01*
X164982762Y-82645297D01*
X164867270Y-82576891D01*
X164674027Y-82494949D01*
X164589868Y-82459262D01*
X164299275Y-82379661D01*
X164299274Y-82379660D01*
X164299271Y-82379660D01*
X164000653Y-82339500D01*
X163774756Y-82339500D01*
X163774754Y-82339500D01*
X163549364Y-82354587D01*
X163254098Y-82414603D01*
X162969459Y-82513441D01*
X162700546Y-82649328D01*
X162452127Y-82819858D01*
X162228668Y-83021966D01*
X162034135Y-83252061D01*
X161872005Y-83506032D01*
X161745178Y-83779339D01*
X161655907Y-84067120D01*
X161614357Y-84313445D01*
X161605791Y-84364230D01*
X161600042Y-84536201D01*
X161595723Y-84665372D01*
X161095500Y-84665372D01*
X161095500Y-83782744D01*
X161097764Y-83762237D01*
X161097423Y-83751396D01*
X161095561Y-83692127D01*
X161095500Y-83688232D01*
X161095500Y-83660653D01*
X161094997Y-83656672D01*
X161094080Y-83645019D01*
X161093924Y-83640057D01*
X161092709Y-83601373D01*
X161087120Y-83582140D01*
X161083174Y-83563084D01*
X161080664Y-83543208D01*
X161080663Y-83543206D01*
X161080391Y-83541049D01*
X161090363Y-83474565D01*
X161128255Y-83429386D01*
X161127667Y-83428753D01*
X161132716Y-83424068D01*
X161133565Y-83423056D01*
X161134479Y-83422433D01*
X161326805Y-83243981D01*
X161490386Y-83038857D01*
X161621568Y-82811643D01*
X161717420Y-82567416D01*
X161775802Y-82311630D01*
X161795408Y-82050000D01*
X161775802Y-81788370D01*
X161717420Y-81532584D01*
X161621568Y-81288357D01*
X161490386Y-81061143D01*
X161326805Y-80856019D01*
X161316028Y-80846019D01*
X161134485Y-80677571D01*
X161117170Y-80665766D01*
X160917704Y-80529772D01*
X160681323Y-80415937D01*
X160558303Y-80377990D01*
X160500263Y-80339678D01*
X160471976Y-80276145D01*
X160482342Y-80207376D01*
X160528099Y-80155003D01*
X160594854Y-80135500D01*
X164670459Y-80135500D01*
X164718625Y-80145237D01*
X164759227Y-80172919D01*
X164785884Y-80214192D01*
X164808432Y-80271643D01*
X164847092Y-80338604D01*
X164933840Y-80488857D01*
X164939614Y-80498857D01*
X165103195Y-80703981D01*
X165103197Y-80703983D01*
X165103198Y-80703984D01*
X165295514Y-80882428D01*
X165295520Y-80882432D01*
X165295521Y-80882433D01*
X165512296Y-81030228D01*
X165748677Y-81144063D01*
X165999385Y-81221396D01*
X166258818Y-81260500D01*
X166521182Y-81260500D01*
X166780615Y-81221396D01*
X167031323Y-81144063D01*
X167267704Y-81030228D01*
X167484479Y-80882433D01*
X167484482Y-80882429D01*
X167484485Y-80882428D01*
X167569792Y-80803273D01*
X167676805Y-80703981D01*
X167840386Y-80498857D01*
X167971568Y-80271643D01*
X168067420Y-80027416D01*
X168125802Y-79771630D01*
X168145408Y-79510000D01*
X168125802Y-79248370D01*
X168067420Y-78992584D01*
X167971568Y-78748357D01*
X167840386Y-78521143D01*
X167676805Y-78316019D01*
X167666028Y-78306019D01*
X167484485Y-78137571D01*
X167467170Y-78125766D01*
X167267704Y-77989772D01*
X167031323Y-77875937D01*
X166780615Y-77798604D01*
X166521182Y-77759500D01*
X166258818Y-77759500D01*
X165999385Y-77798604D01*
X165748677Y-77875937D01*
X165512296Y-77989772D01*
X165442922Y-78037070D01*
X165295514Y-78137571D01*
X165103198Y-78316015D01*
X164939613Y-78521143D01*
X164814205Y-78738357D01*
X164808432Y-78748357D01*
X164785884Y-78805807D01*
X164759227Y-78847081D01*
X164718625Y-78874763D01*
X164670459Y-78884500D01*
X147593466Y-78884500D01*
X147545300Y-78874763D01*
X147504698Y-78847081D01*
X147478038Y-78805802D01*
X147455493Y-78748358D01*
X147451568Y-78738357D01*
X147320386Y-78511143D01*
X147156805Y-78306019D01*
X147156801Y-78306015D01*
X146964485Y-78127571D01*
X146947170Y-78115766D01*
X146747704Y-77979772D01*
X146511323Y-77865937D01*
X146260615Y-77788604D01*
X146001182Y-77749500D01*
X145738818Y-77749500D01*
X145479385Y-77788604D01*
X145228677Y-77865937D01*
X144992296Y-77979772D01*
X144977629Y-77989772D01*
X144775514Y-78127571D01*
X144583198Y-78306015D01*
X144419613Y-78511143D01*
X144288431Y-78738358D01*
X144192580Y-78982581D01*
X144134197Y-79238372D01*
X144114591Y-79500000D01*
X144134197Y-79761627D01*
X144164995Y-79896559D01*
X144162865Y-79959814D01*
X144129796Y-80013778D01*
X144074402Y-80044393D01*
X144011115Y-80043683D01*
X143956423Y-80011833D01*
X134631819Y-70687228D01*
X134604939Y-70647000D01*
X134595500Y-70599547D01*
X134595500Y-47650000D01*
X135718845Y-47650000D01*
X135738276Y-47896895D01*
X135796091Y-48137712D01*
X135890863Y-48366514D01*
X136002163Y-48548138D01*
X136020266Y-48577678D01*
X136181107Y-48765998D01*
X136369427Y-48926839D01*
X136449661Y-48976006D01*
X136580590Y-49056241D01*
X136809392Y-49151013D01*
X136809395Y-49151013D01*
X136809396Y-49151014D01*
X137050211Y-49208829D01*
X137297105Y-49228260D01*
X137543999Y-49208829D01*
X137784814Y-49151014D01*
X137784815Y-49151013D01*
X137784817Y-49151013D01*
X138013619Y-49056241D01*
X138064314Y-49025174D01*
X138224783Y-48926839D01*
X138413103Y-48765998D01*
X138573944Y-48577678D01*
X138703345Y-48366515D01*
X138703346Y-48366514D01*
X138798118Y-48137712D01*
X138839847Y-47963899D01*
X138855934Y-47896894D01*
X138875365Y-47650000D01*
X138875015Y-47645557D01*
X151040044Y-47645557D01*
X151060072Y-47963894D01*
X151119842Y-48277219D01*
X151218410Y-48580579D01*
X151354221Y-48869193D01*
X151439676Y-49003848D01*
X151525133Y-49138506D01*
X151594532Y-49222395D01*
X151728451Y-49384276D01*
X151960973Y-49602629D01*
X152219023Y-49790113D01*
X152498538Y-49943777D01*
X152498540Y-49943778D01*
X152795111Y-50061199D01*
X153104060Y-50140523D01*
X153367019Y-50173742D01*
X153420514Y-50180501D01*
X153420515Y-50180501D01*
X153739485Y-50180501D01*
X153739486Y-50180501D01*
X153786979Y-50174501D01*
X154055940Y-50140523D01*
X154364889Y-50061199D01*
X154661460Y-49943778D01*
X154940976Y-49790113D01*
X154947963Y-49785037D01*
X155199026Y-49602629D01*
X155224287Y-49578906D01*
X155431548Y-49384277D01*
X155634867Y-49138506D01*
X155805780Y-48869191D01*
X155941590Y-48580578D01*
X156040158Y-48277219D01*
X156099927Y-47963899D01*
X156119676Y-47650000D01*
X168218845Y-47650000D01*
X168238276Y-47896895D01*
X168296091Y-48137712D01*
X168390863Y-48366514D01*
X168502163Y-48548138D01*
X168520266Y-48577678D01*
X168681107Y-48765998D01*
X168869427Y-48926839D01*
X168949661Y-48976006D01*
X169080590Y-49056241D01*
X169309392Y-49151013D01*
X169309395Y-49151013D01*
X169309396Y-49151014D01*
X169550211Y-49208829D01*
X169797105Y-49228260D01*
X170043999Y-49208829D01*
X170284814Y-49151014D01*
X170284815Y-49151013D01*
X170284817Y-49151013D01*
X170513619Y-49056241D01*
X170564314Y-49025174D01*
X170724783Y-48926839D01*
X170913103Y-48765998D01*
X171073944Y-48577678D01*
X171203345Y-48366515D01*
X171203346Y-48366514D01*
X171298118Y-48137712D01*
X171339847Y-47963899D01*
X171355934Y-47896894D01*
X171375365Y-47650000D01*
X171355934Y-47403106D01*
X171298119Y-47162291D01*
X171298118Y-47162290D01*
X171298118Y-47162287D01*
X171203346Y-46933485D01*
X171076056Y-46725769D01*
X171073944Y-46722322D01*
X170913103Y-46534002D01*
X170724783Y-46373161D01*
X170695243Y-46355058D01*
X170513619Y-46243758D01*
X170284817Y-46148986D01*
X170044000Y-46091171D01*
X169797105Y-46071740D01*
X169550209Y-46091171D01*
X169309392Y-46148986D01*
X169080590Y-46243758D01*
X168869428Y-46373160D01*
X168681107Y-46534002D01*
X168520265Y-46722323D01*
X168390863Y-46933485D01*
X168296091Y-47162287D01*
X168238276Y-47403104D01*
X168218845Y-47650000D01*
X156119676Y-47650000D01*
X156119955Y-47645558D01*
X156099927Y-47327217D01*
X156040158Y-47013897D01*
X155941590Y-46710538D01*
X155805780Y-46421925D01*
X155634867Y-46152610D01*
X155431548Y-45906839D01*
X155431547Y-45906838D01*
X155199026Y-45688486D01*
X154940976Y-45501002D01*
X154661461Y-45347338D01*
X154364886Y-45229916D01*
X154055942Y-45150593D01*
X153739486Y-45110615D01*
X153739485Y-45110615D01*
X153420515Y-45110615D01*
X153420514Y-45110615D01*
X153104057Y-45150593D01*
X152795113Y-45229916D01*
X152498538Y-45347338D01*
X152219023Y-45501002D01*
X151960973Y-45688486D01*
X151728451Y-45906839D01*
X151525132Y-46152611D01*
X151354221Y-46421922D01*
X151218410Y-46710536D01*
X151119842Y-47013896D01*
X151060072Y-47327221D01*
X151040044Y-47645557D01*
X138875015Y-47645557D01*
X138855934Y-47403106D01*
X138798119Y-47162291D01*
X138798118Y-47162290D01*
X138798118Y-47162287D01*
X138703346Y-46933485D01*
X138576056Y-46725769D01*
X138573944Y-46722322D01*
X138413103Y-46534002D01*
X138224783Y-46373161D01*
X138195243Y-46355058D01*
X138013619Y-46243758D01*
X137784817Y-46148986D01*
X137544000Y-46091171D01*
X137297105Y-46071740D01*
X137050209Y-46091171D01*
X136809392Y-46148986D01*
X136580590Y-46243758D01*
X136369428Y-46373160D01*
X136181107Y-46534002D01*
X136020265Y-46722323D01*
X135890863Y-46933485D01*
X135796091Y-47162287D01*
X135738276Y-47403104D01*
X135718845Y-47650000D01*
X134595500Y-47650000D01*
X134595500Y-41635227D01*
X134609511Y-41577970D01*
X134648374Y-41533653D01*
X134841401Y-41398495D01*
X135008495Y-41231401D01*
X135138426Y-41045839D01*
X135182743Y-41006975D01*
X135240000Y-40992964D01*
X135297257Y-41006975D01*
X135341573Y-41045839D01*
X135471505Y-41231401D01*
X135638599Y-41398495D01*
X135832170Y-41534035D01*
X136046337Y-41633903D01*
X136274592Y-41695063D01*
X136510000Y-41715659D01*
X136745408Y-41695063D01*
X136973663Y-41633903D01*
X137187830Y-41534035D01*
X137381401Y-41398495D01*
X137548495Y-41231401D01*
X137678426Y-41045839D01*
X137722743Y-41006975D01*
X137780000Y-40992964D01*
X137837257Y-41006975D01*
X137881573Y-41045839D01*
X138011505Y-41231401D01*
X138178599Y-41398495D01*
X138372170Y-41534035D01*
X138586337Y-41633903D01*
X138814592Y-41695063D01*
X139050000Y-41715659D01*
X139285408Y-41695063D01*
X139513663Y-41633903D01*
X139727830Y-41534035D01*
X139921401Y-41398495D01*
X140088495Y-41231401D01*
X140224035Y-41037830D01*
X140323903Y-40823663D01*
X140385063Y-40595408D01*
X140405659Y-40360000D01*
X140388161Y-40160000D01*
X147994340Y-40160000D01*
X148014936Y-40395407D01*
X148059709Y-40562501D01*
X148076097Y-40623663D01*
X148175965Y-40837830D01*
X148311505Y-41031401D01*
X148478599Y-41198495D01*
X148672170Y-41334035D01*
X148886337Y-41433903D01*
X149114592Y-41495063D01*
X149350000Y-41515659D01*
X149585408Y-41495063D01*
X149813663Y-41433903D01*
X150027830Y-41334035D01*
X150221401Y-41198495D01*
X150388495Y-41031401D01*
X150518426Y-40845839D01*
X150562743Y-40806975D01*
X150620000Y-40792964D01*
X150677257Y-40806975D01*
X150721573Y-40845839D01*
X150851505Y-41031401D01*
X151018599Y-41198495D01*
X151212170Y-41334035D01*
X151426337Y-41433903D01*
X151654592Y-41495063D01*
X151890000Y-41515659D01*
X152125408Y-41495063D01*
X152353663Y-41433903D01*
X152567830Y-41334035D01*
X152761401Y-41198495D01*
X152928495Y-41031401D01*
X153058426Y-40845839D01*
X153102743Y-40806975D01*
X153160000Y-40792964D01*
X153217257Y-40806975D01*
X153261573Y-40845839D01*
X153391505Y-41031401D01*
X153558599Y-41198495D01*
X153752170Y-41334035D01*
X153966337Y-41433903D01*
X154194592Y-41495063D01*
X154430000Y-41515659D01*
X154665408Y-41495063D01*
X154893663Y-41433903D01*
X155107830Y-41334035D01*
X155301401Y-41198495D01*
X155468495Y-41031401D01*
X155598426Y-40845839D01*
X155642743Y-40806975D01*
X155700000Y-40792964D01*
X155757257Y-40806975D01*
X155801573Y-40845839D01*
X155931505Y-41031401D01*
X156098599Y-41198495D01*
X156292170Y-41334035D01*
X156506337Y-41433903D01*
X156734592Y-41495063D01*
X156970000Y-41515659D01*
X157205408Y-41495063D01*
X157433663Y-41433903D01*
X157647830Y-41334035D01*
X157841401Y-41198495D01*
X158008495Y-41031401D01*
X158138426Y-40845839D01*
X158182743Y-40806975D01*
X158240000Y-40792964D01*
X158297257Y-40806975D01*
X158341573Y-40845839D01*
X158471505Y-41031401D01*
X158638599Y-41198495D01*
X158832170Y-41334035D01*
X159046337Y-41433903D01*
X159274592Y-41495063D01*
X159510000Y-41515659D01*
X159745408Y-41495063D01*
X159973663Y-41433903D01*
X160187830Y-41334035D01*
X160381401Y-41198495D01*
X160503329Y-41076566D01*
X160556072Y-41045273D01*
X160617365Y-41043084D01*
X160672209Y-41070537D01*
X160707189Y-41120916D01*
X160756204Y-41252331D01*
X160842454Y-41367546D01*
X160957669Y-41453796D01*
X161092517Y-41504091D01*
X161152127Y-41510500D01*
X162947872Y-41510499D01*
X163007483Y-41504091D01*
X163142331Y-41453796D01*
X163257546Y-41367546D01*
X163343796Y-41252331D01*
X163394091Y-41117483D01*
X163400500Y-41057873D01*
X163400499Y-39262128D01*
X163394091Y-39202517D01*
X163343796Y-39067669D01*
X163257546Y-38952454D01*
X163142331Y-38866204D01*
X163007483Y-38815909D01*
X162947873Y-38809500D01*
X162947869Y-38809500D01*
X161152130Y-38809500D01*
X161092515Y-38815909D01*
X160957669Y-38866204D01*
X160842454Y-38952454D01*
X160756204Y-39067669D01*
X160707189Y-39199083D01*
X160672209Y-39249462D01*
X160617365Y-39276915D01*
X160556072Y-39274726D01*
X160503326Y-39243430D01*
X160381404Y-39121508D01*
X160381401Y-39121505D01*
X160187830Y-38985965D01*
X159973663Y-38886097D01*
X159912502Y-38869709D01*
X159745407Y-38824936D01*
X159509999Y-38804340D01*
X159274592Y-38824936D01*
X159046336Y-38886097D01*
X158832170Y-38985965D01*
X158638598Y-39121505D01*
X158471505Y-39288598D01*
X158341575Y-39474159D01*
X158297257Y-39513025D01*
X158240000Y-39527036D01*
X158182743Y-39513025D01*
X158138425Y-39474159D01*
X158031536Y-39321505D01*
X158008495Y-39288599D01*
X157841401Y-39121505D01*
X157647830Y-38985965D01*
X157433663Y-38886097D01*
X157372502Y-38869709D01*
X157205407Y-38824936D01*
X156969999Y-38804340D01*
X156734592Y-38824936D01*
X156506336Y-38886097D01*
X156292170Y-38985965D01*
X156098598Y-39121505D01*
X155931505Y-39288598D01*
X155801575Y-39474159D01*
X155757257Y-39513025D01*
X155700000Y-39527036D01*
X155642743Y-39513025D01*
X155598425Y-39474159D01*
X155491536Y-39321505D01*
X155468495Y-39288599D01*
X155301401Y-39121505D01*
X155107830Y-38985965D01*
X154893663Y-38886097D01*
X154832502Y-38869709D01*
X154665407Y-38824936D01*
X154429999Y-38804340D01*
X154194592Y-38824936D01*
X153966336Y-38886097D01*
X153752170Y-38985965D01*
X153558598Y-39121505D01*
X153391505Y-39288598D01*
X153261575Y-39474159D01*
X153217257Y-39513025D01*
X153160000Y-39527036D01*
X153102743Y-39513025D01*
X153058425Y-39474159D01*
X152951536Y-39321505D01*
X152928495Y-39288599D01*
X152761401Y-39121505D01*
X152567830Y-38985965D01*
X152353663Y-38886097D01*
X152292502Y-38869709D01*
X152125407Y-38824936D01*
X151889999Y-38804340D01*
X151654592Y-38824936D01*
X151426336Y-38886097D01*
X151212170Y-38985965D01*
X151018598Y-39121505D01*
X150851505Y-39288598D01*
X150721575Y-39474159D01*
X150677257Y-39513025D01*
X150620000Y-39527036D01*
X150562743Y-39513025D01*
X150518425Y-39474159D01*
X150411536Y-39321505D01*
X150388495Y-39288599D01*
X150221401Y-39121505D01*
X150027830Y-38985965D01*
X149813663Y-38886097D01*
X149752502Y-38869709D01*
X149585407Y-38824936D01*
X149349999Y-38804340D01*
X149114592Y-38824936D01*
X148886336Y-38886097D01*
X148672170Y-38985965D01*
X148478598Y-39121505D01*
X148311505Y-39288598D01*
X148175965Y-39482170D01*
X148076097Y-39696336D01*
X148014936Y-39924592D01*
X147994340Y-40160000D01*
X140388161Y-40160000D01*
X140385063Y-40124592D01*
X140323903Y-39896337D01*
X140224035Y-39682171D01*
X140088495Y-39488599D01*
X139921401Y-39321505D01*
X139727830Y-39185965D01*
X139513663Y-39086097D01*
X139444888Y-39067669D01*
X139285407Y-39024936D01*
X139050000Y-39004340D01*
X138814592Y-39024936D01*
X138586336Y-39086097D01*
X138372170Y-39185965D01*
X138178598Y-39321505D01*
X138011505Y-39488598D01*
X137881575Y-39674159D01*
X137837257Y-39713025D01*
X137780000Y-39727036D01*
X137722743Y-39713025D01*
X137678425Y-39674159D01*
X137575409Y-39527036D01*
X137548495Y-39488599D01*
X137381401Y-39321505D01*
X137187830Y-39185965D01*
X136973663Y-39086097D01*
X136904888Y-39067669D01*
X136745407Y-39024936D01*
X136510000Y-39004340D01*
X136274592Y-39024936D01*
X136046336Y-39086097D01*
X135832170Y-39185965D01*
X135638598Y-39321505D01*
X135471505Y-39488598D01*
X135341575Y-39674159D01*
X135297257Y-39713025D01*
X135240000Y-39727036D01*
X135182743Y-39713025D01*
X135138425Y-39674159D01*
X135035409Y-39527036D01*
X135008495Y-39488599D01*
X134841401Y-39321505D01*
X134647830Y-39185965D01*
X134433663Y-39086097D01*
X134364888Y-39067669D01*
X134205407Y-39024936D01*
X133970000Y-39004340D01*
X133734592Y-39024936D01*
X133506336Y-39086097D01*
X133292170Y-39185965D01*
X133098601Y-39321503D01*
X132976673Y-39443431D01*
X132923926Y-39474726D01*
X132862634Y-39476915D01*
X132807789Y-39449462D01*
X132772810Y-39399082D01*
X132765658Y-39379907D01*
X132723796Y-39267669D01*
X132637546Y-39152454D01*
X132522331Y-39066204D01*
X132387483Y-39015909D01*
X132327873Y-39009500D01*
X132327869Y-39009500D01*
X130532130Y-39009500D01*
X130472515Y-39015909D01*
X130337669Y-39066204D01*
X130222454Y-39152454D01*
X130136204Y-39267668D01*
X130085909Y-39402516D01*
X130079500Y-39462130D01*
X130079500Y-41257869D01*
X130085909Y-41317484D01*
X130092082Y-41334035D01*
X130136204Y-41452331D01*
X130222454Y-41567546D01*
X130337669Y-41653796D01*
X130472517Y-41704091D01*
X130532127Y-41710500D01*
X132327872Y-41710499D01*
X132387483Y-41704091D01*
X132522331Y-41653796D01*
X132637546Y-41567546D01*
X132723796Y-41452331D01*
X132772810Y-41320916D01*
X132807789Y-41270537D01*
X132862634Y-41243084D01*
X132923927Y-41245273D01*
X132976673Y-41276569D01*
X133098599Y-41398495D01*
X133291625Y-41533653D01*
X133330489Y-41577970D01*
X133344500Y-41635227D01*
X133344500Y-59298610D01*
X133332421Y-59351993D01*
X133298536Y-59394976D01*
X133249448Y-59419184D01*
X133194719Y-59419900D01*
X133004648Y-59379500D01*
X133004646Y-59379500D01*
X132815354Y-59379500D01*
X132815352Y-59379500D01*
X132630197Y-59418855D01*
X132457269Y-59495848D01*
X132304129Y-59607110D01*
X132177466Y-59747783D01*
X132082820Y-59911715D01*
X132024326Y-60091742D01*
X132004540Y-60279999D01*
X132024326Y-60468257D01*
X132082820Y-60648284D01*
X132177464Y-60812213D01*
X132177467Y-60812216D01*
X132252652Y-60895717D01*
X132276264Y-60934249D01*
X132284500Y-60978687D01*
X132284500Y-83087256D01*
X132282235Y-83107762D01*
X132284439Y-83177873D01*
X132284500Y-83181768D01*
X132284500Y-83209349D01*
X132285003Y-83213334D01*
X132285918Y-83224967D01*
X132287290Y-83268626D01*
X132292879Y-83287860D01*
X132296825Y-83306916D01*
X132299335Y-83326792D01*
X132315414Y-83367404D01*
X132319197Y-83378451D01*
X132331382Y-83420391D01*
X132341580Y-83437635D01*
X132350136Y-83455100D01*
X132357514Y-83473732D01*
X132362184Y-83480160D01*
X132383180Y-83509059D01*
X132389593Y-83518822D01*
X132411826Y-83556416D01*
X132411829Y-83556419D01*
X132411830Y-83556420D01*
X132425995Y-83570585D01*
X132438627Y-83585375D01*
X132450406Y-83601587D01*
X132484058Y-83629426D01*
X132492699Y-83637289D01*
X145129197Y-96273787D01*
X145142098Y-96289889D01*
X145144212Y-96291874D01*
X145144214Y-96291877D01*
X145180407Y-96325865D01*
X145193240Y-96337916D01*
X145196035Y-96340625D01*
X145215530Y-96360120D01*
X145218704Y-96362582D01*
X145227568Y-96370153D01*
X145259418Y-96400062D01*
X145269914Y-96405832D01*
X145276974Y-96409714D01*
X145293231Y-96420392D01*
X145309064Y-96432674D01*
X145325185Y-96439649D01*
X145349156Y-96450023D01*
X145359643Y-96455160D01*
X145397908Y-96476197D01*
X145417316Y-96481180D01*
X145435710Y-96487478D01*
X145454105Y-96495438D01*
X145497254Y-96502271D01*
X145508680Y-96504638D01*
X145524222Y-96508629D01*
X145550980Y-96515500D01*
X145550981Y-96515500D01*
X145571016Y-96515500D01*
X145590413Y-96517026D01*
X145610196Y-96520160D01*
X145653674Y-96516050D01*
X145665344Y-96515500D01*
X146536253Y-96515500D01*
X146586688Y-96526220D01*
X146628401Y-96556526D01*
X146634129Y-96562888D01*
X146787270Y-96674151D01*
X146787271Y-96674151D01*
X146787272Y-96674152D01*
X146960197Y-96751144D01*
X147145352Y-96790500D01*
X147145354Y-96790500D01*
X147334646Y-96790500D01*
X147334648Y-96790500D01*
X147458083Y-96764262D01*
X147519803Y-96751144D01*
X147692730Y-96674151D01*
X147845871Y-96562888D01*
X147972533Y-96422216D01*
X148067179Y-96258284D01*
X148125674Y-96078256D01*
X148145460Y-95890000D01*
X148125674Y-95701744D01*
X148120923Y-95687124D01*
X148117840Y-95621759D01*
X148148461Y-95563924D01*
X148204258Y-95529731D01*
X148269691Y-95528703D01*
X148326535Y-95561126D01*
X150021038Y-97255629D01*
X150045277Y-97289926D01*
X150056678Y-97330348D01*
X150074326Y-97498257D01*
X150132820Y-97678284D01*
X150227466Y-97842216D01*
X150354129Y-97982889D01*
X150507269Y-98094151D01*
X150680197Y-98171144D01*
X150865352Y-98210500D01*
X150935500Y-98210500D01*
X150997500Y-98227113D01*
X151042887Y-98272500D01*
X151059500Y-98334500D01*
X151059500Y-98589047D01*
X151050061Y-98636500D01*
X151023181Y-98676728D01*
X150776728Y-98923181D01*
X150736500Y-98950061D01*
X150689047Y-98959500D01*
X150629852Y-98959500D01*
X150444697Y-98998855D01*
X150271769Y-99075848D01*
X150118629Y-99187110D01*
X149991966Y-99327783D01*
X149897320Y-99491715D01*
X149838826Y-99671742D01*
X149819040Y-99860000D01*
X149838826Y-100048257D01*
X149897320Y-100228284D01*
X149991966Y-100392216D01*
X150118629Y-100532889D01*
X150271769Y-100644151D01*
X150444697Y-100721144D01*
X150629852Y-100760500D01*
X150629854Y-100760500D01*
X150819146Y-100760500D01*
X150819148Y-100760500D01*
X150981090Y-100726078D01*
X151004303Y-100721144D01*
X151177230Y-100644151D01*
X151264463Y-100580773D01*
X151330370Y-100532889D01*
X151388350Y-100468496D01*
X151437277Y-100435245D01*
X151496041Y-100428446D01*
X151551268Y-100449645D01*
X151590389Y-100494019D01*
X151604500Y-100551468D01*
X151604500Y-102250875D01*
X151586227Y-102315665D01*
X151536795Y-102361360D01*
X151470772Y-102374493D01*
X151407615Y-102351194D01*
X151372727Y-102325846D01*
X151199802Y-102248855D01*
X151014648Y-102209500D01*
X151014646Y-102209500D01*
X150955453Y-102209500D01*
X150908000Y-102200061D01*
X150867772Y-102173181D01*
X149340802Y-100646211D01*
X149327906Y-100630113D01*
X149276775Y-100582098D01*
X149273978Y-100579387D01*
X149254470Y-100559879D01*
X149251290Y-100557412D01*
X149242424Y-100549839D01*
X149210582Y-100519938D01*
X149193024Y-100510285D01*
X149176764Y-100499604D01*
X149160936Y-100487327D01*
X149120851Y-100469980D01*
X149110361Y-100464841D01*
X149072091Y-100443802D01*
X149052691Y-100438821D01*
X149034284Y-100432519D01*
X149015897Y-100424562D01*
X148972758Y-100417729D01*
X148961324Y-100415361D01*
X148919019Y-100404500D01*
X148898984Y-100404500D01*
X148879586Y-100402973D01*
X148872162Y-100401797D01*
X148859805Y-100399840D01*
X148859804Y-100399840D01*
X148826751Y-100402964D01*
X148816325Y-100403950D01*
X148804656Y-100404500D01*
X131974499Y-100404500D01*
X131912499Y-100387887D01*
X131867112Y-100342500D01*
X131850499Y-100280500D01*
X131850499Y-100132130D01*
X131850499Y-100132127D01*
X131844091Y-100072517D01*
X131793796Y-99937669D01*
X131707546Y-99822454D01*
X131592331Y-99736204D01*
X131457483Y-99685909D01*
X131397873Y-99679500D01*
X131397869Y-99679500D01*
X129602130Y-99679500D01*
X129542515Y-99685909D01*
X129407669Y-99736204D01*
X129292454Y-99822454D01*
X129206204Y-99937668D01*
X129155909Y-100072515D01*
X129155909Y-100072517D01*
X129150354Y-100124190D01*
X129149500Y-100132130D01*
X129149500Y-101927869D01*
X129155909Y-101987484D01*
X129157498Y-101991744D01*
X129206204Y-102122331D01*
X129292454Y-102237546D01*
X129407669Y-102323796D01*
X129519907Y-102365658D01*
X129539082Y-102372810D01*
X129589462Y-102407789D01*
X129616915Y-102462634D01*
X129614726Y-102523926D01*
X129583431Y-102576673D01*
X129461503Y-102698601D01*
X129325965Y-102892170D01*
X129226097Y-103106336D01*
X129164936Y-103334592D01*
X129144340Y-103569999D01*
X129164936Y-103805407D01*
X129191518Y-103904612D01*
X129226097Y-104033663D01*
X129325965Y-104247830D01*
X129461505Y-104441401D01*
X129628599Y-104608495D01*
X129814160Y-104738426D01*
X129853024Y-104782743D01*
X129867035Y-104840000D01*
X129853024Y-104897257D01*
X129814158Y-104941575D01*
X129678835Y-105036330D01*
X129628595Y-105071508D01*
X129461505Y-105238598D01*
X129325965Y-105432170D01*
X129226097Y-105646336D01*
X129164936Y-105874592D01*
X129144340Y-106109999D01*
X129164936Y-106345407D01*
X129190864Y-106442170D01*
X129226097Y-106573663D01*
X129325965Y-106787830D01*
X129461505Y-106981401D01*
X129628599Y-107148495D01*
X129814160Y-107278426D01*
X129853024Y-107322743D01*
X129867035Y-107380000D01*
X129853024Y-107437257D01*
X129814158Y-107481575D01*
X129678835Y-107576330D01*
X129628595Y-107611508D01*
X129461505Y-107778598D01*
X129325965Y-107972170D01*
X129226097Y-108186336D01*
X129164936Y-108414592D01*
X129144340Y-108650000D01*
X129164936Y-108885407D01*
X129190864Y-108982170D01*
X129226097Y-109113663D01*
X129325965Y-109327830D01*
X129461505Y-109521401D01*
X129628599Y-109688495D01*
X129814160Y-109818426D01*
X129853024Y-109862743D01*
X129867035Y-109920000D01*
X129853024Y-109977257D01*
X129814160Y-110021574D01*
X129678835Y-110116330D01*
X129628595Y-110151508D01*
X129461505Y-110318598D01*
X129325965Y-110512170D01*
X129226097Y-110726336D01*
X129164936Y-110954592D01*
X129144340Y-111190000D01*
X129164936Y-111425407D01*
X129190864Y-111522170D01*
X129226097Y-111653663D01*
X129325965Y-111867830D01*
X129461505Y-112061401D01*
X129628599Y-112228495D01*
X129814160Y-112358426D01*
X129853024Y-112402743D01*
X129867035Y-112460000D01*
X129853024Y-112517257D01*
X129814158Y-112561575D01*
X129678835Y-112656330D01*
X129628595Y-112691508D01*
X129461505Y-112858598D01*
X129325965Y-113052170D01*
X129226097Y-113266336D01*
X129164936Y-113494592D01*
X129144340Y-113730000D01*
X129164936Y-113965407D01*
X129196631Y-114083694D01*
X129226097Y-114193663D01*
X129325965Y-114407830D01*
X129461505Y-114601401D01*
X129628599Y-114768495D01*
X129821625Y-114903653D01*
X129860489Y-114947970D01*
X129874500Y-115005227D01*
X129874500Y-122177256D01*
X129872235Y-122197762D01*
X129874439Y-122267873D01*
X129874500Y-122271768D01*
X129874500Y-122299349D01*
X129875003Y-122303334D01*
X129875918Y-122314967D01*
X129877290Y-122358626D01*
X129882879Y-122377860D01*
X129886825Y-122396916D01*
X129889335Y-122416792D01*
X129905414Y-122457404D01*
X129909197Y-122468451D01*
X129921382Y-122510391D01*
X129931580Y-122527635D01*
X129940136Y-122545100D01*
X129947514Y-122563732D01*
X129947515Y-122563733D01*
X129973180Y-122599059D01*
X129979593Y-122608822D01*
X130001826Y-122646416D01*
X130001829Y-122646419D01*
X130001830Y-122646420D01*
X130015995Y-122660585D01*
X130028627Y-122675375D01*
X130040406Y-122691587D01*
X130074058Y-122719426D01*
X130082699Y-122727289D01*
X133699196Y-126343787D01*
X133712096Y-126359888D01*
X133763223Y-126407900D01*
X133766019Y-126410610D01*
X133785529Y-126430120D01*
X133788711Y-126432588D01*
X133797571Y-126440155D01*
X133829418Y-126470062D01*
X133846970Y-126479711D01*
X133863238Y-126490397D01*
X133879064Y-126502673D01*
X133919146Y-126520017D01*
X133929633Y-126525155D01*
X133967907Y-126546197D01*
X133976410Y-126548379D01*
X133987308Y-126551178D01*
X134005713Y-126557478D01*
X134024104Y-126565437D01*
X134067250Y-126572270D01*
X134078668Y-126574635D01*
X134120981Y-126585500D01*
X134141016Y-126585500D01*
X134160415Y-126587027D01*
X134180196Y-126590160D01*
X134223674Y-126586050D01*
X134235344Y-126585500D01*
X175954773Y-126585500D01*
X176012030Y-126599511D01*
X176056346Y-126638374D01*
X176191505Y-126831401D01*
X176358599Y-126998495D01*
X176552170Y-127134035D01*
X176766337Y-127233903D01*
X176994592Y-127295063D01*
X177230000Y-127315659D01*
X177465408Y-127295063D01*
X177693663Y-127233903D01*
X177907830Y-127134035D01*
X178101401Y-126998495D01*
X178268495Y-126831401D01*
X178404035Y-126637830D01*
X178503903Y-126423663D01*
X178565063Y-126195408D01*
X178585659Y-125960000D01*
X178565063Y-125724592D01*
X178503903Y-125496337D01*
X178404035Y-125282171D01*
X178268495Y-125088599D01*
X178101401Y-124921505D01*
X177915839Y-124791573D01*
X177876975Y-124747257D01*
X177862964Y-124690000D01*
X177876975Y-124632743D01*
X177915839Y-124588426D01*
X178101401Y-124458495D01*
X178268495Y-124291401D01*
X178404035Y-124097830D01*
X178503903Y-123883663D01*
X178565063Y-123655408D01*
X178585659Y-123420000D01*
X178565063Y-123184592D01*
X178503903Y-122956337D01*
X178404035Y-122742171D01*
X178268495Y-122548599D01*
X178146569Y-122426672D01*
X178115273Y-122373927D01*
X178113084Y-122312634D01*
X178140537Y-122257789D01*
X178190916Y-122222810D01*
X178322331Y-122173796D01*
X178437546Y-122087546D01*
X178523796Y-121972331D01*
X178574091Y-121837483D01*
X178580500Y-121777873D01*
X178580499Y-119982128D01*
X178574091Y-119922517D01*
X178523796Y-119787669D01*
X178437546Y-119672454D01*
X178322331Y-119586204D01*
X178187483Y-119535909D01*
X178127873Y-119529500D01*
X178127869Y-119529500D01*
X176332130Y-119529500D01*
X176272515Y-119535909D01*
X176137669Y-119586204D01*
X176022454Y-119672454D01*
X175936204Y-119787668D01*
X175885909Y-119922516D01*
X175879500Y-119982130D01*
X175879500Y-121777869D01*
X175884805Y-121827217D01*
X175885909Y-121837483D01*
X175936204Y-121972331D01*
X176022454Y-122087546D01*
X176137669Y-122173796D01*
X176249907Y-122215658D01*
X176269082Y-122222810D01*
X176319462Y-122257789D01*
X176346915Y-122312634D01*
X176344726Y-122373926D01*
X176313431Y-122426673D01*
X176191503Y-122548601D01*
X176113096Y-122660579D01*
X176066386Y-122727289D01*
X176056349Y-122741623D01*
X176012031Y-122780489D01*
X175954774Y-122794500D01*
X173842740Y-122794500D01*
X173822236Y-122792236D01*
X173752144Y-122794439D01*
X173748250Y-122794500D01*
X173720648Y-122794500D01*
X173716653Y-122795004D01*
X173705029Y-122795918D01*
X173661372Y-122797290D01*
X173642135Y-122802879D01*
X173623094Y-122806822D01*
X173603208Y-122809335D01*
X173562582Y-122825419D01*
X173551537Y-122829200D01*
X173509613Y-122841381D01*
X173492365Y-122851581D01*
X173474903Y-122860135D01*
X173462915Y-122864881D01*
X173456265Y-122867515D01*
X173420926Y-122893189D01*
X173411168Y-122899599D01*
X173373579Y-122921829D01*
X173359410Y-122935998D01*
X173344622Y-122948628D01*
X173328413Y-122960405D01*
X173300572Y-122994058D01*
X173292711Y-123002696D01*
X172037228Y-124258181D01*
X171997000Y-124285061D01*
X171949547Y-124294500D01*
X162450453Y-124294500D01*
X162403000Y-124285061D01*
X162362772Y-124258181D01*
X160244590Y-122139999D01*
X168228845Y-122139999D01*
X168248276Y-122386895D01*
X168306091Y-122627712D01*
X168400863Y-122856514D01*
X168490445Y-123002696D01*
X168530266Y-123067678D01*
X168691107Y-123255998D01*
X168879427Y-123416839D01*
X168959661Y-123466006D01*
X169090590Y-123546241D01*
X169319392Y-123641013D01*
X169319395Y-123641013D01*
X169319396Y-123641014D01*
X169560211Y-123698829D01*
X169807105Y-123718260D01*
X170053999Y-123698829D01*
X170294814Y-123641014D01*
X170294815Y-123641013D01*
X170294817Y-123641013D01*
X170523619Y-123546241D01*
X170574314Y-123515174D01*
X170734783Y-123416839D01*
X170923103Y-123255998D01*
X171083944Y-123067678D01*
X171206605Y-122867514D01*
X171213346Y-122856514D01*
X171308118Y-122627712D01*
X171323478Y-122563733D01*
X171365934Y-122386894D01*
X171385365Y-122140000D01*
X171365934Y-121893106D01*
X171308119Y-121652291D01*
X171308118Y-121652290D01*
X171308118Y-121652287D01*
X171213346Y-121423485D01*
X171104440Y-121245769D01*
X171083944Y-121212322D01*
X170923103Y-121024002D01*
X170734783Y-120863161D01*
X170705243Y-120845058D01*
X170523619Y-120733758D01*
X170294817Y-120638986D01*
X170054000Y-120581171D01*
X169807105Y-120561740D01*
X169560209Y-120581171D01*
X169319392Y-120638986D01*
X169090590Y-120733758D01*
X168879428Y-120863160D01*
X168691107Y-121024002D01*
X168530265Y-121212323D01*
X168400863Y-121423485D01*
X168306091Y-121652287D01*
X168248276Y-121893104D01*
X168228845Y-122139999D01*
X160244590Y-122139999D01*
X159341772Y-121237181D01*
X159311522Y-121187818D01*
X159306980Y-121130102D01*
X159329135Y-121076615D01*
X159373158Y-121039015D01*
X159429453Y-121025500D01*
X164477256Y-121025500D01*
X164497762Y-121027764D01*
X164500665Y-121027672D01*
X164500667Y-121027673D01*
X164567872Y-121025561D01*
X164571768Y-121025500D01*
X164599349Y-121025500D01*
X164599350Y-121025500D01*
X164603319Y-121024998D01*
X164614965Y-121024080D01*
X164658627Y-121022709D01*
X164677859Y-121017120D01*
X164696918Y-121013174D01*
X164703196Y-121012381D01*
X164716792Y-121010664D01*
X164757407Y-120994582D01*
X164768444Y-120990803D01*
X164810390Y-120978618D01*
X164827629Y-120968422D01*
X164845102Y-120959862D01*
X164863732Y-120952486D01*
X164899064Y-120926814D01*
X164908830Y-120920400D01*
X164946418Y-120898171D01*
X164946417Y-120898171D01*
X164946420Y-120898170D01*
X164960585Y-120884004D01*
X164975373Y-120871373D01*
X164991587Y-120859594D01*
X165019438Y-120825926D01*
X165027279Y-120817309D01*
X167973789Y-117870800D01*
X167989885Y-117857906D01*
X167991873Y-117855787D01*
X167991877Y-117855786D01*
X168037948Y-117806723D01*
X168040566Y-117804023D01*
X168060120Y-117784471D01*
X168062581Y-117781298D01*
X168070156Y-117772427D01*
X168100062Y-117740582D01*
X168109717Y-117723018D01*
X168120394Y-117706764D01*
X168132673Y-117690936D01*
X168150018Y-117650852D01*
X168155160Y-117640356D01*
X168176197Y-117602092D01*
X168181179Y-117582684D01*
X168187481Y-117564280D01*
X168195437Y-117545896D01*
X168202269Y-117502752D01*
X168204633Y-117491338D01*
X168215500Y-117449019D01*
X168215500Y-117428984D01*
X168217027Y-117409585D01*
X168219449Y-117394290D01*
X168220160Y-117389804D01*
X168216050Y-117346325D01*
X168215500Y-117334656D01*
X168215500Y-117297552D01*
X168233054Y-117233951D01*
X168273403Y-117195373D01*
X168272955Y-117194811D01*
X168279208Y-117189823D01*
X168280744Y-117188356D01*
X168281681Y-117187852D01*
X168457666Y-117047508D01*
X168605765Y-116877996D01*
X168721215Y-116684764D01*
X168743308Y-116625896D01*
X168775330Y-116578319D01*
X168825339Y-116550239D01*
X168882635Y-116547665D01*
X168934960Y-116571150D01*
X168971120Y-116615668D01*
X169052170Y-116783972D01*
X169166091Y-116940771D01*
X169184478Y-116966078D01*
X169347175Y-117121632D01*
X169535032Y-117245635D01*
X169742012Y-117334103D01*
X169961463Y-117384191D01*
X170166998Y-117393421D01*
X170186328Y-117394290D01*
X170186328Y-117394289D01*
X170186330Y-117394290D01*
X170409387Y-117364075D01*
X170623464Y-117294517D01*
X170821681Y-117187852D01*
X170997666Y-117047508D01*
X171145765Y-116877996D01*
X171261215Y-116684764D01*
X171283308Y-116625896D01*
X171315330Y-116578319D01*
X171365339Y-116550239D01*
X171422635Y-116547665D01*
X171474960Y-116571150D01*
X171511120Y-116615668D01*
X171592170Y-116783972D01*
X171706091Y-116940771D01*
X171724478Y-116966078D01*
X171887175Y-117121632D01*
X172075032Y-117245635D01*
X172282012Y-117334103D01*
X172501463Y-117384191D01*
X172706998Y-117393421D01*
X172726328Y-117394290D01*
X172726328Y-117394289D01*
X172726330Y-117394290D01*
X172949387Y-117364075D01*
X173163464Y-117294517D01*
X173361681Y-117187852D01*
X173537666Y-117047508D01*
X173685765Y-116877996D01*
X173801215Y-116684764D01*
X173823308Y-116625896D01*
X173855330Y-116578319D01*
X173905339Y-116550239D01*
X173962635Y-116547665D01*
X174014960Y-116571150D01*
X174051120Y-116615668D01*
X174132170Y-116783972D01*
X174246091Y-116940771D01*
X174264478Y-116966078D01*
X174427175Y-117121632D01*
X174615032Y-117245635D01*
X174822012Y-117334103D01*
X175041463Y-117384191D01*
X175246998Y-117393421D01*
X175266328Y-117394290D01*
X175266328Y-117394289D01*
X175266330Y-117394290D01*
X175489387Y-117364075D01*
X175703464Y-117294517D01*
X175901681Y-117187852D01*
X176077666Y-117047508D01*
X176225765Y-116877996D01*
X176341215Y-116684764D01*
X176363308Y-116625896D01*
X176395330Y-116578319D01*
X176445339Y-116550239D01*
X176502635Y-116547665D01*
X176554960Y-116571150D01*
X176591120Y-116615668D01*
X176672170Y-116783972D01*
X176786091Y-116940771D01*
X176804478Y-116966078D01*
X176967175Y-117121632D01*
X177155032Y-117245635D01*
X177362012Y-117334103D01*
X177581463Y-117384191D01*
X177786998Y-117393421D01*
X177806328Y-117394290D01*
X177806328Y-117394289D01*
X177806330Y-117394290D01*
X178029387Y-117364075D01*
X178243464Y-117294517D01*
X178441681Y-117187852D01*
X178617666Y-117047508D01*
X178765765Y-116877996D01*
X178881215Y-116684764D01*
X178960307Y-116474024D01*
X179000500Y-116252547D01*
X179000500Y-115083845D01*
X178985377Y-114915812D01*
X178925493Y-114698830D01*
X178827829Y-114496027D01*
X178695522Y-114313922D01*
X178532825Y-114158368D01*
X178532822Y-114158366D01*
X178532821Y-114158365D01*
X178344968Y-114034365D01*
X178137987Y-113945896D01*
X177918537Y-113895809D01*
X177693671Y-113885709D01*
X177470611Y-113915925D01*
X177256537Y-113985482D01*
X177165698Y-114034365D01*
X177058319Y-114092148D01*
X177058317Y-114092149D01*
X177058318Y-114092149D01*
X176882335Y-114232490D01*
X176734233Y-114402006D01*
X176618784Y-114595236D01*
X176596692Y-114654101D01*
X176564668Y-114701681D01*
X176514659Y-114729761D01*
X176457363Y-114732333D01*
X176405039Y-114708849D01*
X176368879Y-114664331D01*
X176335605Y-114595237D01*
X176287829Y-114496027D01*
X176155522Y-114313922D01*
X175992825Y-114158368D01*
X175992822Y-114158366D01*
X175992821Y-114158365D01*
X175804968Y-114034365D01*
X175597987Y-113945896D01*
X175378537Y-113895809D01*
X175153671Y-113885709D01*
X174930611Y-113915925D01*
X174716537Y-113985482D01*
X174625698Y-114034365D01*
X174518319Y-114092148D01*
X174518317Y-114092149D01*
X174518318Y-114092149D01*
X174342335Y-114232490D01*
X174194233Y-114402006D01*
X174078784Y-114595236D01*
X174056692Y-114654101D01*
X174024668Y-114701681D01*
X173974659Y-114729761D01*
X173917363Y-114732333D01*
X173865039Y-114708849D01*
X173828879Y-114664331D01*
X173795605Y-114595237D01*
X173747829Y-114496027D01*
X173615522Y-114313922D01*
X173452825Y-114158368D01*
X173452822Y-114158366D01*
X173452821Y-114158365D01*
X173264968Y-114034365D01*
X173057987Y-113945896D01*
X172838537Y-113895809D01*
X172613671Y-113885709D01*
X172390611Y-113915925D01*
X172176537Y-113985482D01*
X172085698Y-114034365D01*
X171978319Y-114092148D01*
X171978317Y-114092149D01*
X171978318Y-114092149D01*
X171802335Y-114232490D01*
X171654233Y-114402006D01*
X171538784Y-114595236D01*
X171516692Y-114654101D01*
X171484668Y-114701681D01*
X171434659Y-114729761D01*
X171377363Y-114732333D01*
X171325039Y-114708849D01*
X171288879Y-114664331D01*
X171255605Y-114595237D01*
X171207829Y-114496027D01*
X171075522Y-114313922D01*
X170912825Y-114158368D01*
X170912822Y-114158366D01*
X170912821Y-114158365D01*
X170724968Y-114034365D01*
X170517987Y-113945896D01*
X170298537Y-113895809D01*
X170073671Y-113885709D01*
X169850611Y-113915925D01*
X169636537Y-113985482D01*
X169545698Y-114034365D01*
X169438319Y-114092148D01*
X169438317Y-114092149D01*
X169438318Y-114092149D01*
X169262335Y-114232490D01*
X169114233Y-114402006D01*
X168998784Y-114595236D01*
X168976692Y-114654101D01*
X168944668Y-114701681D01*
X168894659Y-114729761D01*
X168837363Y-114732333D01*
X168785039Y-114708849D01*
X168748879Y-114664331D01*
X168715605Y-114595237D01*
X168667829Y-114496027D01*
X168535522Y-114313922D01*
X168372825Y-114158368D01*
X168372822Y-114158366D01*
X168372821Y-114158365D01*
X168184968Y-114034365D01*
X167977987Y-113945896D01*
X167758537Y-113895809D01*
X167533671Y-113885709D01*
X167310611Y-113915925D01*
X167096537Y-113985482D01*
X167005698Y-114034365D01*
X166898319Y-114092148D01*
X166898317Y-114092149D01*
X166898318Y-114092149D01*
X166722335Y-114232490D01*
X166574233Y-114402006D01*
X166458784Y-114595236D01*
X166436692Y-114654101D01*
X166404668Y-114701681D01*
X166354659Y-114729761D01*
X166297363Y-114732333D01*
X166245039Y-114708849D01*
X166208879Y-114664331D01*
X166175605Y-114595237D01*
X166127829Y-114496027D01*
X165995522Y-114313922D01*
X165832825Y-114158368D01*
X165832822Y-114158366D01*
X165832821Y-114158365D01*
X165644968Y-114034365D01*
X165437987Y-113945896D01*
X165218537Y-113895809D01*
X164993671Y-113885709D01*
X164770611Y-113915925D01*
X164556537Y-113985482D01*
X164465698Y-114034365D01*
X164358319Y-114092148D01*
X164358317Y-114092149D01*
X164358318Y-114092149D01*
X164182335Y-114232490D01*
X164034233Y-114402006D01*
X163918784Y-114595236D01*
X163896692Y-114654101D01*
X163864668Y-114701681D01*
X163814659Y-114729761D01*
X163757363Y-114732333D01*
X163705039Y-114708849D01*
X163668879Y-114664331D01*
X163635605Y-114595237D01*
X163587829Y-114496027D01*
X163455522Y-114313922D01*
X163292825Y-114158368D01*
X163292822Y-114158366D01*
X163292821Y-114158365D01*
X163104968Y-114034365D01*
X162897987Y-113945896D01*
X162678537Y-113895809D01*
X162453671Y-113885709D01*
X162230611Y-113915925D01*
X162016537Y-113985482D01*
X161925698Y-114034365D01*
X161818319Y-114092148D01*
X161818317Y-114092149D01*
X161818318Y-114092149D01*
X161642335Y-114232490D01*
X161494233Y-114402006D01*
X161378784Y-114595236D01*
X161356692Y-114654101D01*
X161324668Y-114701681D01*
X161274659Y-114729761D01*
X161217363Y-114732333D01*
X161165039Y-114708849D01*
X161128879Y-114664331D01*
X161095605Y-114595237D01*
X161047829Y-114496027D01*
X160915522Y-114313922D01*
X160752825Y-114158368D01*
X160752822Y-114158366D01*
X160752821Y-114158365D01*
X160564968Y-114034365D01*
X160357987Y-113945896D01*
X160138537Y-113895809D01*
X159913671Y-113885709D01*
X159690611Y-113915925D01*
X159476537Y-113985482D01*
X159385698Y-114034365D01*
X159278319Y-114092148D01*
X159278317Y-114092149D01*
X159278318Y-114092149D01*
X159102335Y-114232490D01*
X158954233Y-114402006D01*
X158838784Y-114595236D01*
X158816692Y-114654101D01*
X158784668Y-114701681D01*
X158734659Y-114729761D01*
X158677363Y-114732333D01*
X158625039Y-114708849D01*
X158588879Y-114664331D01*
X158555605Y-114595237D01*
X158507829Y-114496027D01*
X158375522Y-114313922D01*
X158212825Y-114158368D01*
X158212822Y-114158366D01*
X158212821Y-114158365D01*
X158024968Y-114034365D01*
X157909723Y-113985106D01*
X157864349Y-113951827D01*
X157838354Y-113901922D01*
X157837092Y-113845666D01*
X157860823Y-113794645D01*
X157904651Y-113759369D01*
X158073973Y-113677829D01*
X158256078Y-113545522D01*
X158256084Y-113545515D01*
X158257855Y-113544229D01*
X158292383Y-113526629D01*
X158330657Y-113520547D01*
X158339999Y-113520540D01*
X158340000Y-113520541D01*
X158340000Y-113520540D01*
X158364618Y-113520524D01*
X158364618Y-113520528D01*
X158364760Y-113520500D01*
X179215500Y-113520500D01*
X179277500Y-113537113D01*
X179322887Y-113582500D01*
X179339500Y-113644500D01*
X179339500Y-135535500D01*
X179322887Y-135597500D01*
X179277500Y-135642887D01*
X179215500Y-135659500D01*
X127944513Y-135659500D01*
X127882509Y-135642885D01*
X127837122Y-135597493D01*
X127820513Y-135535487D01*
X127820608Y-134607869D01*
X164229500Y-134607869D01*
X164235909Y-134667484D01*
X164261056Y-134734906D01*
X164286204Y-134802331D01*
X164372454Y-134917546D01*
X164487669Y-135003796D01*
X164622517Y-135054091D01*
X164682127Y-135060500D01*
X166477872Y-135060499D01*
X166537483Y-135054091D01*
X166672331Y-135003796D01*
X166787546Y-134917546D01*
X166873796Y-134802331D01*
X166922810Y-134670916D01*
X166957789Y-134620537D01*
X167012634Y-134593084D01*
X167073927Y-134595273D01*
X167126672Y-134626568D01*
X167248599Y-134748495D01*
X167442170Y-134884035D01*
X167656337Y-134983903D01*
X167884592Y-135045063D01*
X168120000Y-135065659D01*
X168355408Y-135045063D01*
X168583663Y-134983903D01*
X168797830Y-134884035D01*
X168991401Y-134748495D01*
X169158495Y-134581401D01*
X169288426Y-134395839D01*
X169332743Y-134356975D01*
X169390000Y-134342964D01*
X169447257Y-134356975D01*
X169491573Y-134395839D01*
X169621505Y-134581401D01*
X169788599Y-134748495D01*
X169982170Y-134884035D01*
X170196337Y-134983903D01*
X170424592Y-135045063D01*
X170660000Y-135065659D01*
X170895408Y-135045063D01*
X171123663Y-134983903D01*
X171337830Y-134884035D01*
X171531401Y-134748495D01*
X171698495Y-134581401D01*
X171834035Y-134387830D01*
X171933903Y-134173663D01*
X171995063Y-133945408D01*
X172015659Y-133710000D01*
X171995063Y-133474592D01*
X171933903Y-133246337D01*
X171834035Y-133032171D01*
X171698495Y-132838599D01*
X171531401Y-132671505D01*
X171337830Y-132535965D01*
X171123663Y-132436097D01*
X171062501Y-132419709D01*
X170895407Y-132374936D01*
X170660000Y-132354340D01*
X170424592Y-132374936D01*
X170196336Y-132436097D01*
X169982170Y-132535965D01*
X169788598Y-132671505D01*
X169621505Y-132838598D01*
X169491575Y-133024159D01*
X169447257Y-133063025D01*
X169390000Y-133077036D01*
X169332743Y-133063025D01*
X169288425Y-133024159D01*
X169158494Y-132838598D01*
X168991404Y-132671508D01*
X168991401Y-132671505D01*
X168797830Y-132535965D01*
X168583663Y-132436097D01*
X168522501Y-132419709D01*
X168355407Y-132374936D01*
X168120000Y-132354340D01*
X167884592Y-132374936D01*
X167656336Y-132436097D01*
X167442170Y-132535965D01*
X167248601Y-132671503D01*
X167126673Y-132793431D01*
X167073926Y-132824726D01*
X167012634Y-132826915D01*
X166957789Y-132799462D01*
X166922810Y-132749082D01*
X166915658Y-132729907D01*
X166873796Y-132617669D01*
X166787546Y-132502454D01*
X166672331Y-132416204D01*
X166537483Y-132365909D01*
X166477873Y-132359500D01*
X166477869Y-132359500D01*
X164682130Y-132359500D01*
X164622515Y-132365909D01*
X164487669Y-132416204D01*
X164372454Y-132502454D01*
X164286204Y-132617668D01*
X164235909Y-132752516D01*
X164229500Y-132812130D01*
X164229500Y-134607869D01*
X127820608Y-134607869D01*
X127825621Y-85715500D01*
X127830486Y-38274509D01*
X127847107Y-38212510D01*
X127892504Y-38167127D01*
X127954509Y-38150524D01*
X179195566Y-38160474D01*
G37*
G04 #@! TD.AperFunction*
M02*
