M48
; DRILL file {KiCad 7.0.1} date Fri Dec 15 11:31:01 2023
; FORMAT={-:-/ absolute / metric / decimal}
; #@! TF.CreationDate,2023-12-15T11:31:01-05:00
; #@! TF.GenerationSoftware,Kicad,Pcbnew,7.0.1
; #@! TF.FileFunction,Plated,1,2,PTH
FMAT,2
METRIC
; #@! TA.AperFunction,Plated,PTH,ViaDrill
T1C0.400
; #@! TA.AperFunction,Plated,PTH,ComponentDrill
T2C1.000
; #@! TA.AperFunction,Plated,PTH,ComponentDrill
T3C1.500
%
G90
G05
T1
X132.91Y-60.28
X143.78Y-104.95
X145.73Y-102.18
X147.24Y-95.89
X148.342Y-93.668
X150.725Y-99.86
X150.725Y-109.94
X150.92Y-103.11
X150.96Y-97.31
X151.1Y-107.33
X151.23Y-104.14
X151.36Y-105.77
X152.954Y-103.43
X152.954Y-105.86
X165.99Y-117.7
X173.18Y-125.235
T2
X130.5Y-101.03
X130.5Y-103.57
X130.5Y-106.11
X130.5Y-108.65
X130.5Y-111.19
X130.5Y-113.73
X131.43Y-40.36
X133.97Y-40.36
X136.51Y-40.36
X139.05Y-40.36
X149.35Y-40.16
X151.89Y-40.16
X154.43Y-40.16
X156.97Y-40.16
X157.43Y-99.9
X157.43Y-102.44
X157.43Y-104.98
X157.43Y-107.52
X157.43Y-110.06
X157.43Y-112.6
X157.43Y-115.14
X159.51Y-40.16
X159.97Y-99.9
X159.97Y-115.14
X162.05Y-40.16
X162.51Y-99.9
X162.51Y-115.14
X165.05Y-99.9
X165.05Y-115.14
X165.58Y-133.71
X167.59Y-99.9
X167.59Y-115.14
X168.12Y-133.71
X170.13Y-99.9
X170.13Y-115.14
X170.66Y-133.71
X172.67Y-99.9
X172.67Y-115.14
X175.21Y-99.9
X175.21Y-115.14
X177.23Y-120.88
X177.23Y-123.42
X177.23Y-125.96
X177.75Y-99.9
X177.75Y-115.14
T3
X139.52Y-82.04
X145.87Y-79.5
X160.04Y-82.05
X166.39Y-79.51
T0
M30
