G04 #@! TF.GenerationSoftware,KiCad,Pcbnew,7.0.1*
G04 #@! TF.CreationDate,2023-12-15T11:31:03-05:00*
G04 #@! TF.ProjectId,strum,73747275-6d2e-46b6-9963-61645f706362,rev?*
G04 #@! TF.SameCoordinates,Original*
G04 #@! TF.FileFunction,Legend,Bot*
G04 #@! TF.FilePolarity,Positive*
%FSLAX46Y46*%
G04 Gerber Fmt 4.6, Leading zero omitted, Abs format (unit mm)*
G04 Created by KiCad (PCBNEW 7.0.1) date 2023-12-15 11:31:03*
%MOMM*%
%LPD*%
G01*
G04 APERTURE LIST*
%ADD10C,0.150000*%
%ADD11R,1.700000X1.700000*%
%ADD12O,1.700000X1.700000*%
%ADD13O,1.500000X2.500000*%
%ADD14O,2.500000X1.500000*%
%ADD15C,1.750000*%
%ADD16C,4.000000*%
%ADD17C,2.500000*%
G04 APERTURE END LIST*
D10*
X178660476Y-40412380D02*
X178708095Y-40460000D01*
X178708095Y-40460000D02*
X178850952Y-40507619D01*
X178850952Y-40507619D02*
X178946190Y-40507619D01*
X178946190Y-40507619D02*
X179089047Y-40460000D01*
X179089047Y-40460000D02*
X179184285Y-40364761D01*
X179184285Y-40364761D02*
X179231904Y-40269523D01*
X179231904Y-40269523D02*
X179279523Y-40079047D01*
X179279523Y-40079047D02*
X179279523Y-39936190D01*
X179279523Y-39936190D02*
X179231904Y-39745714D01*
X179231904Y-39745714D02*
X179184285Y-39650476D01*
X179184285Y-39650476D02*
X179089047Y-39555238D01*
X179089047Y-39555238D02*
X178946190Y-39507619D01*
X178946190Y-39507619D02*
X178850952Y-39507619D01*
X178850952Y-39507619D02*
X178708095Y-39555238D01*
X178708095Y-39555238D02*
X178660476Y-39602857D01*
X178231904Y-40507619D02*
X178231904Y-39840952D01*
X178231904Y-40031428D02*
X178184285Y-39936190D01*
X178184285Y-39936190D02*
X178136666Y-39888571D01*
X178136666Y-39888571D02*
X178041428Y-39840952D01*
X178041428Y-39840952D02*
X177946190Y-39840952D01*
X177231904Y-40460000D02*
X177327142Y-40507619D01*
X177327142Y-40507619D02*
X177517618Y-40507619D01*
X177517618Y-40507619D02*
X177612856Y-40460000D01*
X177612856Y-40460000D02*
X177660475Y-40364761D01*
X177660475Y-40364761D02*
X177660475Y-39983809D01*
X177660475Y-39983809D02*
X177612856Y-39888571D01*
X177612856Y-39888571D02*
X177517618Y-39840952D01*
X177517618Y-39840952D02*
X177327142Y-39840952D01*
X177327142Y-39840952D02*
X177231904Y-39888571D01*
X177231904Y-39888571D02*
X177184285Y-39983809D01*
X177184285Y-39983809D02*
X177184285Y-40079047D01*
X177184285Y-40079047D02*
X177660475Y-40174285D01*
X176327142Y-40507619D02*
X176327142Y-39983809D01*
X176327142Y-39983809D02*
X176374761Y-39888571D01*
X176374761Y-39888571D02*
X176469999Y-39840952D01*
X176469999Y-39840952D02*
X176660475Y-39840952D01*
X176660475Y-39840952D02*
X176755713Y-39888571D01*
X176327142Y-40460000D02*
X176422380Y-40507619D01*
X176422380Y-40507619D02*
X176660475Y-40507619D01*
X176660475Y-40507619D02*
X176755713Y-40460000D01*
X176755713Y-40460000D02*
X176803332Y-40364761D01*
X176803332Y-40364761D02*
X176803332Y-40269523D01*
X176803332Y-40269523D02*
X176755713Y-40174285D01*
X176755713Y-40174285D02*
X176660475Y-40126666D01*
X176660475Y-40126666D02*
X176422380Y-40126666D01*
X176422380Y-40126666D02*
X176327142Y-40079047D01*
X175993808Y-39840952D02*
X175612856Y-39840952D01*
X175850951Y-39507619D02*
X175850951Y-40364761D01*
X175850951Y-40364761D02*
X175803332Y-40460000D01*
X175803332Y-40460000D02*
X175708094Y-40507619D01*
X175708094Y-40507619D02*
X175612856Y-40507619D01*
X175136665Y-40507619D02*
X175231903Y-40460000D01*
X175231903Y-40460000D02*
X175279522Y-40412380D01*
X175279522Y-40412380D02*
X175327141Y-40317142D01*
X175327141Y-40317142D02*
X175327141Y-40031428D01*
X175327141Y-40031428D02*
X175279522Y-39936190D01*
X175279522Y-39936190D02*
X175231903Y-39888571D01*
X175231903Y-39888571D02*
X175136665Y-39840952D01*
X175136665Y-39840952D02*
X174993808Y-39840952D01*
X174993808Y-39840952D02*
X174898570Y-39888571D01*
X174898570Y-39888571D02*
X174850951Y-39936190D01*
X174850951Y-39936190D02*
X174803332Y-40031428D01*
X174803332Y-40031428D02*
X174803332Y-40317142D01*
X174803332Y-40317142D02*
X174850951Y-40412380D01*
X174850951Y-40412380D02*
X174898570Y-40460000D01*
X174898570Y-40460000D02*
X174993808Y-40507619D01*
X174993808Y-40507619D02*
X175136665Y-40507619D01*
X174374760Y-40507619D02*
X174374760Y-39840952D01*
X174374760Y-40031428D02*
X174327141Y-39936190D01*
X174327141Y-39936190D02*
X174279522Y-39888571D01*
X174279522Y-39888571D02*
X174184284Y-39840952D01*
X174184284Y-39840952D02*
X174089046Y-39840952D01*
X173755712Y-40412380D02*
X173708093Y-40460000D01*
X173708093Y-40460000D02*
X173755712Y-40507619D01*
X173755712Y-40507619D02*
X173803331Y-40460000D01*
X173803331Y-40460000D02*
X173755712Y-40412380D01*
X173755712Y-40412380D02*
X173755712Y-40507619D01*
X173755712Y-39888571D02*
X173708093Y-39936190D01*
X173708093Y-39936190D02*
X173755712Y-39983809D01*
X173755712Y-39983809D02*
X173803331Y-39936190D01*
X173803331Y-39936190D02*
X173755712Y-39888571D01*
X173755712Y-39888571D02*
X173755712Y-39983809D01*
X172517617Y-40507619D02*
X172517617Y-39507619D01*
X172517617Y-39507619D02*
X172279522Y-39507619D01*
X172279522Y-39507619D02*
X172136665Y-39555238D01*
X172136665Y-39555238D02*
X172041427Y-39650476D01*
X172041427Y-39650476D02*
X171993808Y-39745714D01*
X171993808Y-39745714D02*
X171946189Y-39936190D01*
X171946189Y-39936190D02*
X171946189Y-40079047D01*
X171946189Y-40079047D02*
X171993808Y-40269523D01*
X171993808Y-40269523D02*
X172041427Y-40364761D01*
X172041427Y-40364761D02*
X172136665Y-40460000D01*
X172136665Y-40460000D02*
X172279522Y-40507619D01*
X172279522Y-40507619D02*
X172517617Y-40507619D01*
X171374760Y-40507619D02*
X171469998Y-40460000D01*
X171469998Y-40460000D02*
X171517617Y-40412380D01*
X171517617Y-40412380D02*
X171565236Y-40317142D01*
X171565236Y-40317142D02*
X171565236Y-40031428D01*
X171565236Y-40031428D02*
X171517617Y-39936190D01*
X171517617Y-39936190D02*
X171469998Y-39888571D01*
X171469998Y-39888571D02*
X171374760Y-39840952D01*
X171374760Y-39840952D02*
X171231903Y-39840952D01*
X171231903Y-39840952D02*
X171136665Y-39888571D01*
X171136665Y-39888571D02*
X171089046Y-39936190D01*
X171089046Y-39936190D02*
X171041427Y-40031428D01*
X171041427Y-40031428D02*
X171041427Y-40317142D01*
X171041427Y-40317142D02*
X171089046Y-40412380D01*
X171089046Y-40412380D02*
X171136665Y-40460000D01*
X171136665Y-40460000D02*
X171231903Y-40507619D01*
X171231903Y-40507619D02*
X171374760Y-40507619D01*
X170231903Y-40460000D02*
X170327141Y-40507619D01*
X170327141Y-40507619D02*
X170517617Y-40507619D01*
X170517617Y-40507619D02*
X170612855Y-40460000D01*
X170612855Y-40460000D02*
X170660474Y-40364761D01*
X170660474Y-40364761D02*
X170660474Y-39983809D01*
X170660474Y-39983809D02*
X170612855Y-39888571D01*
X170612855Y-39888571D02*
X170517617Y-39840952D01*
X170517617Y-39840952D02*
X170327141Y-39840952D01*
X170327141Y-39840952D02*
X170231903Y-39888571D01*
X170231903Y-39888571D02*
X170184284Y-39983809D01*
X170184284Y-39983809D02*
X170184284Y-40079047D01*
X170184284Y-40079047D02*
X170660474Y-40174285D01*
X169803331Y-40460000D02*
X169708093Y-40507619D01*
X169708093Y-40507619D02*
X169517617Y-40507619D01*
X169517617Y-40507619D02*
X169422379Y-40460000D01*
X169422379Y-40460000D02*
X169374760Y-40364761D01*
X169374760Y-40364761D02*
X169374760Y-40317142D01*
X169374760Y-40317142D02*
X169422379Y-40221904D01*
X169422379Y-40221904D02*
X169517617Y-40174285D01*
X169517617Y-40174285D02*
X169660474Y-40174285D01*
X169660474Y-40174285D02*
X169755712Y-40126666D01*
X169755712Y-40126666D02*
X169803331Y-40031428D01*
X169803331Y-40031428D02*
X169803331Y-39983809D01*
X169803331Y-39983809D02*
X169755712Y-39888571D01*
X169755712Y-39888571D02*
X169660474Y-39840952D01*
X169660474Y-39840952D02*
X169517617Y-39840952D01*
X169517617Y-39840952D02*
X169422379Y-39888571D01*
X168946188Y-39840952D02*
X168946188Y-40507619D01*
X168946188Y-39936190D02*
X168898569Y-39888571D01*
X168898569Y-39888571D02*
X168803331Y-39840952D01*
X168803331Y-39840952D02*
X168660474Y-39840952D01*
X168660474Y-39840952D02*
X168565236Y-39888571D01*
X168565236Y-39888571D02*
X168517617Y-39983809D01*
X168517617Y-39983809D02*
X168517617Y-40507619D01*
X168184283Y-39840952D02*
X167803331Y-39840952D01*
X168041426Y-39507619D02*
X168041426Y-40364761D01*
X168041426Y-40364761D02*
X167993807Y-40460000D01*
X167993807Y-40460000D02*
X167898569Y-40507619D01*
X167898569Y-40507619D02*
X167803331Y-40507619D01*
X167612854Y-39840952D02*
X167231902Y-39840952D01*
X167469997Y-40507619D02*
X167469997Y-39650476D01*
X167469997Y-39650476D02*
X167422378Y-39555238D01*
X167422378Y-39555238D02*
X167327140Y-39507619D01*
X167327140Y-39507619D02*
X167231902Y-39507619D01*
X166469997Y-40507619D02*
X166469997Y-39983809D01*
X166469997Y-39983809D02*
X166517616Y-39888571D01*
X166517616Y-39888571D02*
X166612854Y-39840952D01*
X166612854Y-39840952D02*
X166803330Y-39840952D01*
X166803330Y-39840952D02*
X166898568Y-39888571D01*
X166469997Y-40460000D02*
X166565235Y-40507619D01*
X166565235Y-40507619D02*
X166803330Y-40507619D01*
X166803330Y-40507619D02*
X166898568Y-40460000D01*
X166898568Y-40460000D02*
X166946187Y-40364761D01*
X166946187Y-40364761D02*
X166946187Y-40269523D01*
X166946187Y-40269523D02*
X166898568Y-40174285D01*
X166898568Y-40174285D02*
X166803330Y-40126666D01*
X166803330Y-40126666D02*
X166565235Y-40126666D01*
X166565235Y-40126666D02*
X166469997Y-40079047D01*
X166089044Y-39840952D02*
X165565235Y-39840952D01*
X165565235Y-39840952D02*
X166089044Y-40507619D01*
X166089044Y-40507619D02*
X165565235Y-40507619D01*
X164803330Y-40460000D02*
X164898568Y-40507619D01*
X164898568Y-40507619D02*
X165089044Y-40507619D01*
X165089044Y-40507619D02*
X165184282Y-40460000D01*
X165184282Y-40460000D02*
X165231901Y-40364761D01*
X165231901Y-40364761D02*
X165231901Y-39983809D01*
X165231901Y-39983809D02*
X165184282Y-39888571D01*
X165184282Y-39888571D02*
X165089044Y-39840952D01*
X165089044Y-39840952D02*
X164898568Y-39840952D01*
X164898568Y-39840952D02*
X164803330Y-39888571D01*
X164803330Y-39888571D02*
X164755711Y-39983809D01*
X164755711Y-39983809D02*
X164755711Y-40079047D01*
X164755711Y-40079047D02*
X165231901Y-40174285D01*
X164327139Y-40507619D02*
X164327139Y-39840952D01*
X164327139Y-40031428D02*
X164279520Y-39936190D01*
X164279520Y-39936190D02*
X164231901Y-39888571D01*
X164231901Y-39888571D02*
X164136663Y-39840952D01*
X164136663Y-39840952D02*
X164041425Y-39840952D01*
X178117142Y-127657619D02*
X177879047Y-128657619D01*
X177879047Y-128657619D02*
X177688571Y-127943333D01*
X177688571Y-127943333D02*
X177498095Y-128657619D01*
X177498095Y-128657619D02*
X177260000Y-127657619D01*
X176879047Y-128657619D02*
X176879047Y-127657619D01*
X176879047Y-128133809D02*
X176307619Y-128133809D01*
X176307619Y-128657619D02*
X176307619Y-127657619D01*
X175879047Y-128371904D02*
X175402857Y-128371904D01*
X175974285Y-128657619D02*
X175640952Y-127657619D01*
X175640952Y-127657619D02*
X175307619Y-128657619D01*
X174974285Y-128657619D02*
X174974285Y-127657619D01*
X174974285Y-127657619D02*
X174640952Y-128371904D01*
X174640952Y-128371904D02*
X174307619Y-127657619D01*
X174307619Y-127657619D02*
X174307619Y-128657619D01*
X173831428Y-128657619D02*
X173831428Y-127657619D01*
X173831428Y-127657619D02*
X173498095Y-128371904D01*
X173498095Y-128371904D02*
X173164762Y-127657619D01*
X173164762Y-127657619D02*
X173164762Y-128657619D01*
X172498095Y-128181428D02*
X172498095Y-128657619D01*
X172831428Y-127657619D02*
X172498095Y-128181428D01*
X172498095Y-128181428D02*
X172164762Y-127657619D01*
X175834761Y-125487619D02*
X175501428Y-126487619D01*
X175501428Y-126487619D02*
X175168095Y-125487619D01*
X174263333Y-126392380D02*
X174310952Y-126440000D01*
X174310952Y-126440000D02*
X174453809Y-126487619D01*
X174453809Y-126487619D02*
X174549047Y-126487619D01*
X174549047Y-126487619D02*
X174691904Y-126440000D01*
X174691904Y-126440000D02*
X174787142Y-126344761D01*
X174787142Y-126344761D02*
X174834761Y-126249523D01*
X174834761Y-126249523D02*
X174882380Y-126059047D01*
X174882380Y-126059047D02*
X174882380Y-125916190D01*
X174882380Y-125916190D02*
X174834761Y-125725714D01*
X174834761Y-125725714D02*
X174787142Y-125630476D01*
X174787142Y-125630476D02*
X174691904Y-125535238D01*
X174691904Y-125535238D02*
X174549047Y-125487619D01*
X174549047Y-125487619D02*
X174453809Y-125487619D01*
X174453809Y-125487619D02*
X174310952Y-125535238D01*
X174310952Y-125535238D02*
X174263333Y-125582857D01*
X173263333Y-126392380D02*
X173310952Y-126440000D01*
X173310952Y-126440000D02*
X173453809Y-126487619D01*
X173453809Y-126487619D02*
X173549047Y-126487619D01*
X173549047Y-126487619D02*
X173691904Y-126440000D01*
X173691904Y-126440000D02*
X173787142Y-126344761D01*
X173787142Y-126344761D02*
X173834761Y-126249523D01*
X173834761Y-126249523D02*
X173882380Y-126059047D01*
X173882380Y-126059047D02*
X173882380Y-125916190D01*
X173882380Y-125916190D02*
X173834761Y-125725714D01*
X173834761Y-125725714D02*
X173787142Y-125630476D01*
X173787142Y-125630476D02*
X173691904Y-125535238D01*
X173691904Y-125535238D02*
X173549047Y-125487619D01*
X173549047Y-125487619D02*
X173453809Y-125487619D01*
X173453809Y-125487619D02*
X173310952Y-125535238D01*
X173310952Y-125535238D02*
X173263333Y-125582857D01*
X175679523Y-123481904D02*
X175203333Y-123481904D01*
X175774761Y-123767619D02*
X175441428Y-122767619D01*
X175441428Y-122767619D02*
X175108095Y-123767619D01*
X174774761Y-123767619D02*
X174774761Y-122767619D01*
X174774761Y-122767619D02*
X174203333Y-123767619D01*
X174203333Y-123767619D02*
X174203333Y-122767619D01*
X173203333Y-122815238D02*
X173298571Y-122767619D01*
X173298571Y-122767619D02*
X173441428Y-122767619D01*
X173441428Y-122767619D02*
X173584285Y-122815238D01*
X173584285Y-122815238D02*
X173679523Y-122910476D01*
X173679523Y-122910476D02*
X173727142Y-123005714D01*
X173727142Y-123005714D02*
X173774761Y-123196190D01*
X173774761Y-123196190D02*
X173774761Y-123339047D01*
X173774761Y-123339047D02*
X173727142Y-123529523D01*
X173727142Y-123529523D02*
X173679523Y-123624761D01*
X173679523Y-123624761D02*
X173584285Y-123720000D01*
X173584285Y-123720000D02*
X173441428Y-123767619D01*
X173441428Y-123767619D02*
X173346190Y-123767619D01*
X173346190Y-123767619D02*
X173203333Y-123720000D01*
X173203333Y-123720000D02*
X173155714Y-123672380D01*
X173155714Y-123672380D02*
X173155714Y-123339047D01*
X173155714Y-123339047D02*
X173346190Y-123339047D01*
X175068095Y-120385238D02*
X175163333Y-120337619D01*
X175163333Y-120337619D02*
X175306190Y-120337619D01*
X175306190Y-120337619D02*
X175449047Y-120385238D01*
X175449047Y-120385238D02*
X175544285Y-120480476D01*
X175544285Y-120480476D02*
X175591904Y-120575714D01*
X175591904Y-120575714D02*
X175639523Y-120766190D01*
X175639523Y-120766190D02*
X175639523Y-120909047D01*
X175639523Y-120909047D02*
X175591904Y-121099523D01*
X175591904Y-121099523D02*
X175544285Y-121194761D01*
X175544285Y-121194761D02*
X175449047Y-121290000D01*
X175449047Y-121290000D02*
X175306190Y-121337619D01*
X175306190Y-121337619D02*
X175210952Y-121337619D01*
X175210952Y-121337619D02*
X175068095Y-121290000D01*
X175068095Y-121290000D02*
X175020476Y-121242380D01*
X175020476Y-121242380D02*
X175020476Y-120909047D01*
X175020476Y-120909047D02*
X175210952Y-120909047D01*
X174591904Y-121337619D02*
X174591904Y-120337619D01*
X174591904Y-120337619D02*
X174020476Y-121337619D01*
X174020476Y-121337619D02*
X174020476Y-120337619D01*
X173544285Y-121337619D02*
X173544285Y-120337619D01*
X173544285Y-120337619D02*
X173306190Y-120337619D01*
X173306190Y-120337619D02*
X173163333Y-120385238D01*
X173163333Y-120385238D02*
X173068095Y-120480476D01*
X173068095Y-120480476D02*
X173020476Y-120575714D01*
X173020476Y-120575714D02*
X172972857Y-120766190D01*
X172972857Y-120766190D02*
X172972857Y-120909047D01*
X172972857Y-120909047D02*
X173020476Y-121099523D01*
X173020476Y-121099523D02*
X173068095Y-121194761D01*
X173068095Y-121194761D02*
X173163333Y-121290000D01*
X173163333Y-121290000D02*
X173306190Y-121337619D01*
X173306190Y-121337619D02*
X173544285Y-121337619D01*
X134778761Y-113431619D02*
X134445428Y-114431619D01*
X134445428Y-114431619D02*
X134112095Y-113431619D01*
X133207333Y-114336380D02*
X133254952Y-114384000D01*
X133254952Y-114384000D02*
X133397809Y-114431619D01*
X133397809Y-114431619D02*
X133493047Y-114431619D01*
X133493047Y-114431619D02*
X133635904Y-114384000D01*
X133635904Y-114384000D02*
X133731142Y-114288761D01*
X133731142Y-114288761D02*
X133778761Y-114193523D01*
X133778761Y-114193523D02*
X133826380Y-114003047D01*
X133826380Y-114003047D02*
X133826380Y-113860190D01*
X133826380Y-113860190D02*
X133778761Y-113669714D01*
X133778761Y-113669714D02*
X133731142Y-113574476D01*
X133731142Y-113574476D02*
X133635904Y-113479238D01*
X133635904Y-113479238D02*
X133493047Y-113431619D01*
X133493047Y-113431619D02*
X133397809Y-113431619D01*
X133397809Y-113431619D02*
X133254952Y-113479238D01*
X133254952Y-113479238D02*
X133207333Y-113526857D01*
X132207333Y-114336380D02*
X132254952Y-114384000D01*
X132254952Y-114384000D02*
X132397809Y-114431619D01*
X132397809Y-114431619D02*
X132493047Y-114431619D01*
X132493047Y-114431619D02*
X132635904Y-114384000D01*
X132635904Y-114384000D02*
X132731142Y-114288761D01*
X132731142Y-114288761D02*
X132778761Y-114193523D01*
X132778761Y-114193523D02*
X132826380Y-114003047D01*
X132826380Y-114003047D02*
X132826380Y-113860190D01*
X132826380Y-113860190D02*
X132778761Y-113669714D01*
X132778761Y-113669714D02*
X132731142Y-113574476D01*
X132731142Y-113574476D02*
X132635904Y-113479238D01*
X132635904Y-113479238D02*
X132493047Y-113431619D01*
X132493047Y-113431619D02*
X132397809Y-113431619D01*
X132397809Y-113431619D02*
X132254952Y-113479238D01*
X132254952Y-113479238D02*
X132207333Y-113526857D01*
X134366095Y-110685238D02*
X134461333Y-110637619D01*
X134461333Y-110637619D02*
X134604190Y-110637619D01*
X134604190Y-110637619D02*
X134747047Y-110685238D01*
X134747047Y-110685238D02*
X134842285Y-110780476D01*
X134842285Y-110780476D02*
X134889904Y-110875714D01*
X134889904Y-110875714D02*
X134937523Y-111066190D01*
X134937523Y-111066190D02*
X134937523Y-111209047D01*
X134937523Y-111209047D02*
X134889904Y-111399523D01*
X134889904Y-111399523D02*
X134842285Y-111494761D01*
X134842285Y-111494761D02*
X134747047Y-111590000D01*
X134747047Y-111590000D02*
X134604190Y-111637619D01*
X134604190Y-111637619D02*
X134508952Y-111637619D01*
X134508952Y-111637619D02*
X134366095Y-111590000D01*
X134366095Y-111590000D02*
X134318476Y-111542380D01*
X134318476Y-111542380D02*
X134318476Y-111209047D01*
X134318476Y-111209047D02*
X134508952Y-111209047D01*
X133889904Y-111637619D02*
X133889904Y-110637619D01*
X133889904Y-110637619D02*
X133318476Y-111637619D01*
X133318476Y-111637619D02*
X133318476Y-110637619D01*
X132842285Y-111637619D02*
X132842285Y-110637619D01*
X132842285Y-110637619D02*
X132604190Y-110637619D01*
X132604190Y-110637619D02*
X132461333Y-110685238D01*
X132461333Y-110685238D02*
X132366095Y-110780476D01*
X132366095Y-110780476D02*
X132318476Y-110875714D01*
X132318476Y-110875714D02*
X132270857Y-111066190D01*
X132270857Y-111066190D02*
X132270857Y-111209047D01*
X132270857Y-111209047D02*
X132318476Y-111399523D01*
X132318476Y-111399523D02*
X132366095Y-111494761D01*
X132366095Y-111494761D02*
X132461333Y-111590000D01*
X132461333Y-111590000D02*
X132604190Y-111637619D01*
X132604190Y-111637619D02*
X132842285Y-111637619D01*
X135128095Y-108145238D02*
X135223333Y-108097619D01*
X135223333Y-108097619D02*
X135366190Y-108097619D01*
X135366190Y-108097619D02*
X135509047Y-108145238D01*
X135509047Y-108145238D02*
X135604285Y-108240476D01*
X135604285Y-108240476D02*
X135651904Y-108335714D01*
X135651904Y-108335714D02*
X135699523Y-108526190D01*
X135699523Y-108526190D02*
X135699523Y-108669047D01*
X135699523Y-108669047D02*
X135651904Y-108859523D01*
X135651904Y-108859523D02*
X135604285Y-108954761D01*
X135604285Y-108954761D02*
X135509047Y-109050000D01*
X135509047Y-109050000D02*
X135366190Y-109097619D01*
X135366190Y-109097619D02*
X135270952Y-109097619D01*
X135270952Y-109097619D02*
X135128095Y-109050000D01*
X135128095Y-109050000D02*
X135080476Y-109002380D01*
X135080476Y-109002380D02*
X135080476Y-108669047D01*
X135080476Y-108669047D02*
X135270952Y-108669047D01*
X134651904Y-109097619D02*
X134651904Y-108097619D01*
X134651904Y-108097619D02*
X134270952Y-108097619D01*
X134270952Y-108097619D02*
X134175714Y-108145238D01*
X134175714Y-108145238D02*
X134128095Y-108192857D01*
X134128095Y-108192857D02*
X134080476Y-108288095D01*
X134080476Y-108288095D02*
X134080476Y-108430952D01*
X134080476Y-108430952D02*
X134128095Y-108526190D01*
X134128095Y-108526190D02*
X134175714Y-108573809D01*
X134175714Y-108573809D02*
X134270952Y-108621428D01*
X134270952Y-108621428D02*
X134651904Y-108621428D01*
X133699523Y-108192857D02*
X133651904Y-108145238D01*
X133651904Y-108145238D02*
X133556666Y-108097619D01*
X133556666Y-108097619D02*
X133318571Y-108097619D01*
X133318571Y-108097619D02*
X133223333Y-108145238D01*
X133223333Y-108145238D02*
X133175714Y-108192857D01*
X133175714Y-108192857D02*
X133128095Y-108288095D01*
X133128095Y-108288095D02*
X133128095Y-108383333D01*
X133128095Y-108383333D02*
X133175714Y-108526190D01*
X133175714Y-108526190D02*
X133747142Y-109097619D01*
X133747142Y-109097619D02*
X133128095Y-109097619D01*
X132270952Y-108097619D02*
X132461428Y-108097619D01*
X132461428Y-108097619D02*
X132556666Y-108145238D01*
X132556666Y-108145238D02*
X132604285Y-108192857D01*
X132604285Y-108192857D02*
X132699523Y-108335714D01*
X132699523Y-108335714D02*
X132747142Y-108526190D01*
X132747142Y-108526190D02*
X132747142Y-108907142D01*
X132747142Y-108907142D02*
X132699523Y-109002380D01*
X132699523Y-109002380D02*
X132651904Y-109050000D01*
X132651904Y-109050000D02*
X132556666Y-109097619D01*
X132556666Y-109097619D02*
X132366190Y-109097619D01*
X132366190Y-109097619D02*
X132270952Y-109050000D01*
X132270952Y-109050000D02*
X132223333Y-109002380D01*
X132223333Y-109002380D02*
X132175714Y-108907142D01*
X132175714Y-108907142D02*
X132175714Y-108669047D01*
X132175714Y-108669047D02*
X132223333Y-108573809D01*
X132223333Y-108573809D02*
X132270952Y-108526190D01*
X132270952Y-108526190D02*
X132366190Y-108478571D01*
X132366190Y-108478571D02*
X132556666Y-108478571D01*
X132556666Y-108478571D02*
X132651904Y-108526190D01*
X132651904Y-108526190D02*
X132699523Y-108573809D01*
X132699523Y-108573809D02*
X132747142Y-108669047D01*
X135128095Y-105605238D02*
X135223333Y-105557619D01*
X135223333Y-105557619D02*
X135366190Y-105557619D01*
X135366190Y-105557619D02*
X135509047Y-105605238D01*
X135509047Y-105605238D02*
X135604285Y-105700476D01*
X135604285Y-105700476D02*
X135651904Y-105795714D01*
X135651904Y-105795714D02*
X135699523Y-105986190D01*
X135699523Y-105986190D02*
X135699523Y-106129047D01*
X135699523Y-106129047D02*
X135651904Y-106319523D01*
X135651904Y-106319523D02*
X135604285Y-106414761D01*
X135604285Y-106414761D02*
X135509047Y-106510000D01*
X135509047Y-106510000D02*
X135366190Y-106557619D01*
X135366190Y-106557619D02*
X135270952Y-106557619D01*
X135270952Y-106557619D02*
X135128095Y-106510000D01*
X135128095Y-106510000D02*
X135080476Y-106462380D01*
X135080476Y-106462380D02*
X135080476Y-106129047D01*
X135080476Y-106129047D02*
X135270952Y-106129047D01*
X134651904Y-106557619D02*
X134651904Y-105557619D01*
X134651904Y-105557619D02*
X134270952Y-105557619D01*
X134270952Y-105557619D02*
X134175714Y-105605238D01*
X134175714Y-105605238D02*
X134128095Y-105652857D01*
X134128095Y-105652857D02*
X134080476Y-105748095D01*
X134080476Y-105748095D02*
X134080476Y-105890952D01*
X134080476Y-105890952D02*
X134128095Y-105986190D01*
X134128095Y-105986190D02*
X134175714Y-106033809D01*
X134175714Y-106033809D02*
X134270952Y-106081428D01*
X134270952Y-106081428D02*
X134651904Y-106081428D01*
X133699523Y-105652857D02*
X133651904Y-105605238D01*
X133651904Y-105605238D02*
X133556666Y-105557619D01*
X133556666Y-105557619D02*
X133318571Y-105557619D01*
X133318571Y-105557619D02*
X133223333Y-105605238D01*
X133223333Y-105605238D02*
X133175714Y-105652857D01*
X133175714Y-105652857D02*
X133128095Y-105748095D01*
X133128095Y-105748095D02*
X133128095Y-105843333D01*
X133128095Y-105843333D02*
X133175714Y-105986190D01*
X133175714Y-105986190D02*
X133747142Y-106557619D01*
X133747142Y-106557619D02*
X133128095Y-106557619D01*
X132794761Y-105557619D02*
X132128095Y-105557619D01*
X132128095Y-105557619D02*
X132556666Y-106557619D01*
X135128095Y-103065238D02*
X135223333Y-103017619D01*
X135223333Y-103017619D02*
X135366190Y-103017619D01*
X135366190Y-103017619D02*
X135509047Y-103065238D01*
X135509047Y-103065238D02*
X135604285Y-103160476D01*
X135604285Y-103160476D02*
X135651904Y-103255714D01*
X135651904Y-103255714D02*
X135699523Y-103446190D01*
X135699523Y-103446190D02*
X135699523Y-103589047D01*
X135699523Y-103589047D02*
X135651904Y-103779523D01*
X135651904Y-103779523D02*
X135604285Y-103874761D01*
X135604285Y-103874761D02*
X135509047Y-103970000D01*
X135509047Y-103970000D02*
X135366190Y-104017619D01*
X135366190Y-104017619D02*
X135270952Y-104017619D01*
X135270952Y-104017619D02*
X135128095Y-103970000D01*
X135128095Y-103970000D02*
X135080476Y-103922380D01*
X135080476Y-103922380D02*
X135080476Y-103589047D01*
X135080476Y-103589047D02*
X135270952Y-103589047D01*
X134651904Y-104017619D02*
X134651904Y-103017619D01*
X134651904Y-103017619D02*
X134270952Y-103017619D01*
X134270952Y-103017619D02*
X134175714Y-103065238D01*
X134175714Y-103065238D02*
X134128095Y-103112857D01*
X134128095Y-103112857D02*
X134080476Y-103208095D01*
X134080476Y-103208095D02*
X134080476Y-103350952D01*
X134080476Y-103350952D02*
X134128095Y-103446190D01*
X134128095Y-103446190D02*
X134175714Y-103493809D01*
X134175714Y-103493809D02*
X134270952Y-103541428D01*
X134270952Y-103541428D02*
X134651904Y-103541428D01*
X133699523Y-103112857D02*
X133651904Y-103065238D01*
X133651904Y-103065238D02*
X133556666Y-103017619D01*
X133556666Y-103017619D02*
X133318571Y-103017619D01*
X133318571Y-103017619D02*
X133223333Y-103065238D01*
X133223333Y-103065238D02*
X133175714Y-103112857D01*
X133175714Y-103112857D02*
X133128095Y-103208095D01*
X133128095Y-103208095D02*
X133128095Y-103303333D01*
X133128095Y-103303333D02*
X133175714Y-103446190D01*
X133175714Y-103446190D02*
X133747142Y-104017619D01*
X133747142Y-104017619D02*
X133128095Y-104017619D01*
X132556666Y-103446190D02*
X132651904Y-103398571D01*
X132651904Y-103398571D02*
X132699523Y-103350952D01*
X132699523Y-103350952D02*
X132747142Y-103255714D01*
X132747142Y-103255714D02*
X132747142Y-103208095D01*
X132747142Y-103208095D02*
X132699523Y-103112857D01*
X132699523Y-103112857D02*
X132651904Y-103065238D01*
X132651904Y-103065238D02*
X132556666Y-103017619D01*
X132556666Y-103017619D02*
X132366190Y-103017619D01*
X132366190Y-103017619D02*
X132270952Y-103065238D01*
X132270952Y-103065238D02*
X132223333Y-103112857D01*
X132223333Y-103112857D02*
X132175714Y-103208095D01*
X132175714Y-103208095D02*
X132175714Y-103255714D01*
X132175714Y-103255714D02*
X132223333Y-103350952D01*
X132223333Y-103350952D02*
X132270952Y-103398571D01*
X132270952Y-103398571D02*
X132366190Y-103446190D01*
X132366190Y-103446190D02*
X132556666Y-103446190D01*
X132556666Y-103446190D02*
X132651904Y-103493809D01*
X132651904Y-103493809D02*
X132699523Y-103541428D01*
X132699523Y-103541428D02*
X132747142Y-103636666D01*
X132747142Y-103636666D02*
X132747142Y-103827142D01*
X132747142Y-103827142D02*
X132699523Y-103922380D01*
X132699523Y-103922380D02*
X132651904Y-103970000D01*
X132651904Y-103970000D02*
X132556666Y-104017619D01*
X132556666Y-104017619D02*
X132366190Y-104017619D01*
X132366190Y-104017619D02*
X132270952Y-103970000D01*
X132270952Y-103970000D02*
X132223333Y-103922380D01*
X132223333Y-103922380D02*
X132175714Y-103827142D01*
X132175714Y-103827142D02*
X132175714Y-103636666D01*
X132175714Y-103636666D02*
X132223333Y-103541428D01*
X132223333Y-103541428D02*
X132270952Y-103493809D01*
X132270952Y-103493809D02*
X132366190Y-103446190D01*
X135128095Y-100525238D02*
X135223333Y-100477619D01*
X135223333Y-100477619D02*
X135366190Y-100477619D01*
X135366190Y-100477619D02*
X135509047Y-100525238D01*
X135509047Y-100525238D02*
X135604285Y-100620476D01*
X135604285Y-100620476D02*
X135651904Y-100715714D01*
X135651904Y-100715714D02*
X135699523Y-100906190D01*
X135699523Y-100906190D02*
X135699523Y-101049047D01*
X135699523Y-101049047D02*
X135651904Y-101239523D01*
X135651904Y-101239523D02*
X135604285Y-101334761D01*
X135604285Y-101334761D02*
X135509047Y-101430000D01*
X135509047Y-101430000D02*
X135366190Y-101477619D01*
X135366190Y-101477619D02*
X135270952Y-101477619D01*
X135270952Y-101477619D02*
X135128095Y-101430000D01*
X135128095Y-101430000D02*
X135080476Y-101382380D01*
X135080476Y-101382380D02*
X135080476Y-101049047D01*
X135080476Y-101049047D02*
X135270952Y-101049047D01*
X134651904Y-101477619D02*
X134651904Y-100477619D01*
X134651904Y-100477619D02*
X134270952Y-100477619D01*
X134270952Y-100477619D02*
X134175714Y-100525238D01*
X134175714Y-100525238D02*
X134128095Y-100572857D01*
X134128095Y-100572857D02*
X134080476Y-100668095D01*
X134080476Y-100668095D02*
X134080476Y-100810952D01*
X134080476Y-100810952D02*
X134128095Y-100906190D01*
X134128095Y-100906190D02*
X134175714Y-100953809D01*
X134175714Y-100953809D02*
X134270952Y-101001428D01*
X134270952Y-101001428D02*
X134651904Y-101001428D01*
X133699523Y-100572857D02*
X133651904Y-100525238D01*
X133651904Y-100525238D02*
X133556666Y-100477619D01*
X133556666Y-100477619D02*
X133318571Y-100477619D01*
X133318571Y-100477619D02*
X133223333Y-100525238D01*
X133223333Y-100525238D02*
X133175714Y-100572857D01*
X133175714Y-100572857D02*
X133128095Y-100668095D01*
X133128095Y-100668095D02*
X133128095Y-100763333D01*
X133128095Y-100763333D02*
X133175714Y-100906190D01*
X133175714Y-100906190D02*
X133747142Y-101477619D01*
X133747142Y-101477619D02*
X133128095Y-101477619D01*
X132651904Y-101477619D02*
X132461428Y-101477619D01*
X132461428Y-101477619D02*
X132366190Y-101430000D01*
X132366190Y-101430000D02*
X132318571Y-101382380D01*
X132318571Y-101382380D02*
X132223333Y-101239523D01*
X132223333Y-101239523D02*
X132175714Y-101049047D01*
X132175714Y-101049047D02*
X132175714Y-100668095D01*
X132175714Y-100668095D02*
X132223333Y-100572857D01*
X132223333Y-100572857D02*
X132270952Y-100525238D01*
X132270952Y-100525238D02*
X132366190Y-100477619D01*
X132366190Y-100477619D02*
X132556666Y-100477619D01*
X132556666Y-100477619D02*
X132651904Y-100525238D01*
X132651904Y-100525238D02*
X132699523Y-100572857D01*
X132699523Y-100572857D02*
X132747142Y-100668095D01*
X132747142Y-100668095D02*
X132747142Y-100906190D01*
X132747142Y-100906190D02*
X132699523Y-101001428D01*
X132699523Y-101001428D02*
X132651904Y-101049047D01*
X132651904Y-101049047D02*
X132556666Y-101096666D01*
X132556666Y-101096666D02*
X132366190Y-101096666D01*
X132366190Y-101096666D02*
X132270952Y-101049047D01*
X132270952Y-101049047D02*
X132223333Y-101001428D01*
X132223333Y-101001428D02*
X132175714Y-100906190D01*
%LPC*%
D11*
X131430000Y-40360000D03*
D12*
X133970000Y-40360000D03*
X136510000Y-40360000D03*
X139050000Y-40360000D03*
D11*
X130500000Y-101030000D03*
D12*
X130500000Y-103570000D03*
X130500000Y-106110000D03*
X130500000Y-108650000D03*
X130500000Y-111190000D03*
X130500000Y-113730000D03*
D13*
X177750000Y-99400000D03*
X175210000Y-99400000D03*
X172670000Y-99400000D03*
X170130000Y-99400000D03*
X167590000Y-99400000D03*
X165050000Y-99400000D03*
X162510000Y-99400000D03*
X159970000Y-99400000D03*
X157430000Y-99400000D03*
D14*
X156930000Y-102440000D03*
X156930000Y-104980000D03*
X156930000Y-107520000D03*
X156930000Y-110060000D03*
X156930000Y-112600000D03*
D13*
X157430000Y-115640000D03*
X159970000Y-115640000D03*
X162510000Y-115640000D03*
X165050000Y-115640000D03*
X167590000Y-115640000D03*
X170130000Y-115640000D03*
X172670000Y-115640000D03*
X175210000Y-115640000D03*
X177750000Y-115640000D03*
D15*
X168930000Y-84590000D03*
X158770000Y-84590000D03*
D16*
X163850000Y-84590000D03*
D17*
X166390000Y-79510000D03*
X160040000Y-82050000D03*
X139520000Y-82040000D03*
X145870000Y-79500000D03*
D16*
X143330000Y-84580000D03*
D15*
X138250000Y-84580000D03*
X148410000Y-84580000D03*
D12*
X170660000Y-133710000D03*
X168120000Y-133710000D03*
D11*
X165580000Y-133710000D03*
X162050000Y-40160000D03*
D12*
X159510000Y-40160000D03*
X156970000Y-40160000D03*
X154430000Y-40160000D03*
X151890000Y-40160000D03*
X149350000Y-40160000D03*
D11*
X177230000Y-120880000D03*
D12*
X177230000Y-123420000D03*
X177230000Y-125960000D03*
M02*
